<?xml version="1.0" standalone="no"?>
<!DOCTYPE svg PUBLIC "-//W3C//DTD SVG 1.1//EN" "http://www.w3.org/Graphics/SVG/1.1/DTD/svg11.dtd" >
<svg>
<metadata>
Created by FontForge 20110222 at Sun Jul 14 23:24:51 2013
 By Orthosie Webhosting
Part of the digitally encoded machine readable outline data for producing the Typefaces provided is copyrighted (c) 2003 - 2006 Linotype GmbH, www.linotype.com. All rights reserved. This software is the property of Linotype GmbH, and may not be reproduced, modified, disclosed or transferred without the express written approval of Linotype GmbH. Copyright (c) 1988, 1990, 1993 Adobe Systems Incorporated. All Rights Reserved. Helvetica is a trademark of Heidelberger Druckmaschinen AG, exclusively licensed through Linotype GmbH, and may be registered in certain jurisdictions. This typeface is original artwork of Linotype Design Studio. The design may be protected in certain jurisdictions.
</metadata>
<defs>
<font id="HelveticaNeueLTCom45Light" horiz-adv-x="185" >
  <font-face 
    font-family="HelveticaNeueLTCom45Light"
    font-weight="300"
    font-stretch="normal"
    units-per-em="1000"
    panose-1="2 11 4 3 2 2 2 2 2 4"
    ascent="714"
    descent="-286"
    x-height="516"
    cap-height="714"
    bbox="-166 -214 1050 967"
    underline-thickness="50"
    underline-position="-50"
    unicode-range="U+0020-FB02"
  />
<missing-glyph horiz-adv-x="512" 
d="M222 117v67h56v-67h-56zM225 234l-2 17q0 55 13 81t46 59q32 31 41 47.5t9 35.5q0 36 -22.5 60.5t-53.5 24.5t-53.5 -22t-28.5 -73l-50 8q7 71 44 104t91 33q53 0 88.5 -36t35.5 -95q0 -32 -12.5 -58.5t-50.5 -61.5q-37 -33 -43 -52t-6 -72h-46zM462 50v617h-412v-617
h412zM512 718v-718h-512v718h512z" />
    <glyph glyph-name="IJ" unicode="IJ" horiz-adv-x="727" 
d="M77 714h68v-714h-68v714zM587 714h68v-515q0 -54 -11 -94.5t-35.5 -67t-64 -39.5t-97.5 -13q-62 0 -100.5 20.5t-60.5 55t-30 78t-8 90.5h68q1 -23 2.5 -55t14 -61t40 -49.5t80.5 -20.5q40 0 66 10.5t41 33t21 57.5t6 84v486z" />
    <glyph glyph-name="ij" unicode="ij" horiz-adv-x="373" 
d="M61 714h63v-101h-63v101zM61 516h63v-516h-63v516zM249 714h63v-101h-63v101zM249 516h63v-564q0 -29 -4.5 -55t-17 -45.5t-34 -31t-54.5 -11.5q-11 0 -22 1t-22 1v52q8 -1 17 -1.5t17 0.5q37 0 47 21.5t10 53.5v579z" />
    <glyph glyph-name="napostrophe" unicode="&#x22;n" horiz-adv-x="555" 
d="M77 516h63v-89h2q9 23 25.5 42.5t38.5 33t48 21t53 7.5q54 0 90.5 -14t58.5 -39.5t31 -62.5t9 -83v-332h-63v322q0 33 -6 61.5t-21 49.5t-40.5 33t-63.5 12t-67.5 -13.5t-50.5 -37t-32 -56t-12 -70.5v-301h-63v516zM109 805v-80q0 -27 -12.5 -42.5t-30 -22.5t-43.5 -8v28
q15 3 22 7.5t11.5 11.5t5.5 15h-39v91h86z" />
    <glyph glyph-name="fi" unicode="fi" horiz-adv-x="444" 
d="M320 714h63v-101h-63v101zM94 463h-88v53h88v47q0 33 5 61t19 48t38.5 31t62.5 11q14 0 26 -1t27 -3v-54q-13 2 -24 3.5t-22 1.5q-26 0 -40 -8t-20.5 -21.5t-7.5 -31.5t-1 -39v-45h102v-53h-102v-463h-63v463zM320 516h63v-516h-63v516z" />
    <glyph glyph-name="fl" unicode="fl" horiz-adv-x="444" 
d="M320 714h63v-714h-63v714zM94 463h-88v53h88v47q0 33 5 61t19 48t38.5 31t62.5 11q14 0 26 -1t27 -3v-54q-13 2 -24 3.5t-22 1.5q-26 0 -40 -8t-20.5 -21.5t-7.5 -31.5t-1 -39v-45h102v-53h-102v-463h-63v463z" />
    <glyph glyph-name=".notdef" horiz-adv-x="512" 
d="M222 117v67h56v-67h-56zM225 234l-2 17q0 55 13 81t46 59q32 31 41 47.5t9 35.5q0 36 -22.5 60.5t-53.5 24.5t-53.5 -22t-28.5 -73l-50 8q7 71 44 104t91 33q53 0 88.5 -36t35.5 -95q0 -32 -12.5 -58.5t-50.5 -61.5q-37 -33 -43 -52t-6 -72h-46zM462 50v617h-412v-617
h412zM512 718v-718h-512v718h512z" />
    <glyph glyph-name=".null" horiz-adv-x="500" 
 />
    <glyph glyph-name="nonmarkingreturn" horiz-adv-x="0" 
 />
    <glyph glyph-name="space" unicode=" " horiz-adv-x="278" 
 />
    <glyph glyph-name="exclam" unicode="!" horiz-adv-x="241" 
d="M79 0v106h84v-106h-84zM87 501v213h68v-213l-15 -323h-38z" />
    <glyph glyph-name="quotedbl" unicode="&#x22;" horiz-adv-x="370" 
d="M220 714h63v-243h-63v243zM87 714h63v-243h-63v243z" />
    <glyph glyph-name="numbersign" unicode="#" horiz-adv-x="556" 
d="M223 424l-22 -156h141l22 156h-141zM497 223h-111l-31 -223h-50l31 223h-141l-31 -223h-50l31 223h-110v45h116l22 156h-110v45h116l31 222h50l-31 -222h141l31 222h50l-31 -222h105v-45h-111l-22 -156h105v-45z" />
    <glyph glyph-name="dollar" unicode="$" horiz-adv-x="556" 
d="M92 228q1 -87 43.5 -134t121.5 -56v296q-42 9 -80.5 22t-67 35t-45.5 56t-17 87q0 45 16.5 81t45 61.5t66.5 39t82 13.5v78h39v-78q43 0 82 -15.5t68.5 -44t46 -68.5t15.5 -89h-63q-1 75 -42 119.5t-107 44.5v-288q43 -9 84.5 -22t74 -36t52.5 -58t20 -87
q0 -49 -19.5 -86.5t-52 -63t-74 -38t-85.5 -12.5v-85h-39v86q-117 11 -170.5 69.5t-57.5 172.5h63zM257 676q-30 0 -56.5 -8.5t-47 -26.5t-32 -46.5t-11.5 -67.5q0 -35 12.5 -57t33 -36t47 -22t54.5 -15v279zM296 38q32 0 62 8t53.5 26t38 45.5t14.5 66.5q0 36 -15.5 60
t-39.5 39.5t-54 25.5t-59 17v-288z" />
    <glyph glyph-name="percent" unicode="%" horiz-adv-x="889" 
d="M228 706q42 0 72.5 -14.5t49.5 -40t28 -60t9 -74.5t-9 -74.5t-28 -60t-49.5 -40t-72.5 -14.5t-72.5 14.5t-49.5 40t-28 60t-9 74.5t9 74.5t28 60t49.5 40t72.5 14.5zM667 318q-32 0 -52.5 -13.5t-32.5 -35t-16.5 -47t-4.5 -49.5t4.5 -49t16.5 -46t32.5 -34.5t52.5 -13.5
q31 0 51.5 13.5t32.5 34.5t17 46t5 49t-5 49.5t-17 47t-32.5 35t-51.5 13.5zM667 363q42 0 72.5 -14.5t49.5 -40t28 -60t9 -74.5t-9 -74.5t-28 -60t-49.5 -40t-72.5 -14.5t-72.5 14.5t-49.5 40t-28 60t-9 74.5t9 74.5t28 60t49.5 40t72.5 14.5zM643 725h47l-452 -759h-48z
M228 661q-32 0 -52.5 -13.5t-32.5 -35t-16.5 -47t-4.5 -49.5t4.5 -49t16.5 -46t32.5 -34.5t52.5 -13.5q31 0 51.5 13.5t32.5 34.5t17 46t5 49t-5 49.5t-17 47t-32.5 35t-51.5 13.5z" />
    <glyph glyph-name="ampersand" unicode="&#x26;" horiz-adv-x="611" 
d="M284 661q-39 0 -67 -23.5t-28 -68.5q0 -19 8 -38.5t20 -38t26 -36t26 -31.5q19 12 38.5 26t35.5 31.5t26 39t10 47.5q0 45 -28 68.5t-67 23.5zM465 93q-39 -49 -93 -78.5t-117 -29.5q-46 0 -85.5 13t-68.5 38.5t-45.5 63t-16.5 85.5q0 38 16 70t41.5 58t56.5 47t61 37
q-15 19 -30.5 38.5t-28 40.5t-21 44t-8.5 49q0 33 12.5 59.5t34 45.5t50 29.5t61.5 10.5t61.5 -10.5t50 -29.5t34 -45.5t12.5 -59.5t-12 -60t-31.5 -49t-44.5 -40.5t-52 -35.5l156 -188q13 26 17 52.5t4 67.5h63q0 -30 -8.5 -77.5t-33.5 -93.5l120 -145h-79zM248 356
q-26 -14 -52 -31t-47 -39t-34 -48.5t-13 -58.5t13 -57.5t34.5 -44.5t49.5 -29t58 -10q54 0 96.5 29.5t72.5 72.5z" />
    <glyph glyph-name="quotesingle" unicode="'" horiz-adv-x="278" 
d="M108 714h63v-243h-63v243z" />
    <glyph glyph-name="parenleft" unicode="(" horiz-adv-x="241" 
d="M192 -191q-33 55 -59.5 109t-44.5 109.5t-27.5 114.5t-9.5 124q0 128 37.5 244.5t103.5 218.5h50q-67 -107 -97.5 -230t-30.5 -256q0 -54 9.5 -111.5t26 -113.5t40 -109.5t52.5 -99.5h-50z" />
    <glyph glyph-name="parenright" unicode=")" horiz-adv-x="241" 
d="M49 729q33 -55 59.5 -109t44.5 -109.5t27.5 -114.5t9.5 -124q0 -128 -37.5 -244.5t-103.5 -218.5h-50q67 107 97.5 230t30.5 256q0 54 -9.5 111.5t-26 113.5t-40.5 109t-52 100h50z" />
    <glyph glyph-name="asterisk" unicode="*" horiz-adv-x="352" 
d="M27 595l14 37l115 -41v123h39v-123l115 41l15 -37l-118 -39l72 -98l-32 -23l-73 100l-73 -100l-32 23l73 98z" />
    <glyph glyph-name="plus" unicode="+" horiz-adv-x="600" 
d="M274 503h53v-225h225v-53h-225v-225h-53v225h-225v53h225v225z" />
    <glyph glyph-name="comma" unicode="," horiz-adv-x="278" 
d="M181 106v-107q0 -22 -5.5 -43.5t-16.5 -40t-27.5 -32.5t-38.5 -20v43q12 4 21 15t15 24.5t8.5 28t1.5 26.5h-42v106h84z" />
    <glyph glyph-name="hyphen" unicode="-" horiz-adv-x="370" 
d="M60 246v58h250v-58h-250z" />
    <glyph glyph-name="period" unicode="." horiz-adv-x="278" 
d="M97 0v106h84v-106h-84z" />
    <glyph glyph-name="slash" unicode="/" horiz-adv-x="333" 
d="M-13 -15l308 744h51l-305 -744h-54z" />
    <glyph glyph-name="zero" unicode="0" horiz-adv-x="556" 
d="M278 706q76 0 124 -33.5t74.5 -85.5t36 -116t9.5 -125q0 -62 -9.5 -126t-36 -116t-74.5 -85.5t-124 -33.5q-77 0 -124.5 33.5t-74 85.5t-36 116t-9.5 125t9.5 125.5t36 116.5t74 85.5t124.5 33.5zM278 653q-60 0 -96 -31t-54.5 -77t-24.5 -100t-6 -99q0 -46 6 -99.5
t24.5 -100t54.5 -77.5t96 -31t96 31t54.5 77.5t24.5 100t6 99.5q0 45 -6 99t-24.5 100t-54.5 77t-96 31z" />
    <glyph glyph-name="one" unicode="1" horiz-adv-x="556" 
d="M97 565q41 1 74.5 4.5t58 16t41 39.5t23.5 75h51v-700h-63v520h-185v45z" />
    <glyph glyph-name="two" unicode="2" horiz-adv-x="556" 
d="M497 0h-461q1 52 18.5 92t45 72t62.5 58.5t72 51t73 49.5t66 55q29 29 43.5 59.5t14.5 72.5q0 34 -12.5 60.5t-34 45t-50 28t-60.5 9.5q-43 0 -73.5 -16t-49.5 -43t-27.5 -62t-7.5 -74h-63q-1 54 12.5 99.5t41.5 78.5t70.5 51.5t99.5 18.5q46 0 85.5 -12.5t68.5 -37.5
t46 -61.5t17 -85.5q0 -44 -14.5 -80t-39 -66t-56.5 -55.5t-66 -47.5q-26 -17 -59.5 -37.5t-65 -45.5t-55.5 -54.5t-30 -64.5h389v-58z" />
    <glyph glyph-name="three" unicode="3" horiz-adv-x="556" 
d="M96 223q-2 -42 9.5 -76t34 -58t56 -37.5t75.5 -13.5q34 0 66.5 10t57.5 30t40 48.5t15 66.5q0 37 -13 65t-36 46.5t-53.5 27.5t-65.5 9h-53v53h53q24 0 49.5 7t46 23t33.5 40t13 57q0 34 -12 59t-33 41.5t-49 24t-59 7.5q-39 0 -69 -13t-50.5 -36.5t-30.5 -56t-9 -71.5
h-63q0 49 15.5 91.5t44 73t69.5 48t92 17.5q41 0 80 -10.5t69.5 -32t49 -55.5t18.5 -80q0 -57 -30.5 -99t-87.5 -56v-2q69 -11 106.5 -57.5t37.5 -115.5q0 -51 -19.5 -91t-52.5 -67t-77 -41t-92 -14q-54 0 -99.5 16t-78 46.5t-49 75t-12.5 100.5h63z" />
    <glyph glyph-name="four" unicode="4" horiz-adv-x="556" 
d="M353 227v381h-2l-264 -381h266zM30 235l324 465h57v-473h105v-53h-105v-174h-58v174h-323v61z" />
    <glyph glyph-name="five" unicode="5" horiz-adv-x="556" 
d="M99 200q1 -36 14.5 -66t36.5 -51.5t54 -33t67 -11.5q40 0 72.5 15.5t55.5 41.5t35 61t12 73q0 39 -13.5 72t-37 57.5t-56.5 38.5t-72 14q-47 0 -88.5 -21.5t-67.5 -61.5h-54l68 363h350v-58h-306l-45 -232l2 -2q26 31 66.5 48t81.5 17q54 0 97.5 -18t74 -50t47 -76.5
t16.5 -97.5q0 -51 -19 -94.5t-52 -75t-77.5 -49.5t-94.5 -18q-49 0 -90.5 15t-72 42.5t-48.5 67.5t-19 90h63z" />
    <glyph glyph-name="six" unicode="6" horiz-adv-x="556" 
d="M442 523q-8 58 -46.5 94t-99.5 36t-99 -31t-59 -78t-28 -101.5t-7 -102.5h2q25 52 75.5 84t110.5 32q52 0 95 -17.5t73 -48.5t46.5 -74t16.5 -94t-17.5 -94.5t-49 -75t-75 -49.5t-95.5 -18q-64 0 -110 19.5t-76 64t-44.5 115.5t-14.5 173q0 21 2.5 55t11.5 72.5t25.5 78
t44 71.5t68.5 52t98 20q93 0 148.5 -45.5t66.5 -137.5h-63zM290 403q-41 0 -73.5 -14.5t-55 -39.5t-34 -58.5t-11.5 -72.5q0 -37 10 -70t31.5 -57.5t54.5 -38.5t79 -14q37 0 68 14.5t53.5 39t34.5 57.5t12 69q0 38 -11.5 72t-33 59t-53 39.5t-71.5 14.5z" />
    <glyph glyph-name="seven" unicode="7" horiz-adv-x="556" 
d="M51 691h450v-58q-33 -34 -79 -91.5t-89.5 -137t-76 -181t-38.5 -223.5h-68q6 89 24.5 168t53 154.5t86 151.5t124.5 159h-387v58z" />
    <glyph glyph-name="eight" unicode="8" horiz-adv-x="556" 
d="M278 401q29 -1 56 6.5t47.5 24t33 41t12.5 58.5q0 30 -11.5 53t-31.5 38t-47.5 23t-58.5 8q-29 0 -56 -8t-48 -23t-33.5 -38t-12.5 -53q0 -35 13 -60t34 -41t48 -23t55 -6zM490 531q0 -57 -30 -97.5t-84 -56.5v-2q68 -14 105.5 -61t37.5 -118q0 -53 -19 -92.5t-52 -66
t-77 -39.5t-93 -13t-93 13t-77 39.5t-52 66t-19 92.5q2 69 39.5 118t102.5 61v2q-55 17 -84.5 56.5t-29.5 97.5q0 45 18.5 78t48.5 54.5t68 32t77 10.5t77 -10.5t68.5 -32t49 -54.5t18.5 -78zM278 38q37 0 69.5 9.5t56.5 29t38 49.5t14 70q0 38 -14.5 66.5t-39 48t-57 29
t-67.5 8.5q-36 1 -68.5 -8.5t-56.5 -28.5t-38.5 -47.5t-14.5 -67.5t14 -69t38 -49.5t56.5 -29.5t69.5 -10z" />
    <glyph glyph-name="nine" unicode="9" horiz-adv-x="556" 
d="M114 168q8 -58 46.5 -94t99.5 -36t99 31t59 78t28 101.5t7 102.5h-2q-25 -52 -75.5 -84t-110.5 -32q-53 0 -95.5 17.5t-72.5 48.5t-46.5 74t-16.5 94t17.5 94.5t49 75t75 49.5t95.5 18q64 0 110 -19.5t76 -64t44.5 -115.5t14.5 -173q0 -21 -2.5 -55t-11.5 -72.5
t-25.5 -78t-44 -71.5t-68.5 -52t-98 -20q-93 0 -148.5 45.5t-66.5 137.5h63zM266 288q41 0 73.5 14.5t55 39.5t34 58.5t11.5 72.5q0 37 -10 70t-31.5 57.5t-54.5 38.5t-79 14q-38 0 -68.5 -14.5t-53 -39t-34.5 -57.5t-12 -69q0 -38 11.5 -72t33 -59t53 -39.5t71.5 -14.5z
" />
    <glyph glyph-name="colon" unicode=":" horiz-adv-x="278" 
d="M97 0v106h84v-106h-84zM97 394v106h84v-106h-84z" />
    <glyph glyph-name="semicolon" unicode=";" horiz-adv-x="278" 
d="M97 394v106h84v-106h-84zM181 106v-107q0 -22 -5.5 -43.5t-16.5 -40t-27.5 -32.5t-38.5 -20v43q12 4 21 15t15 24.5t8.5 28t1.5 26.5h-42v106h84z" />
    <glyph glyph-name="less" unicode="&#x3c;" horiz-adv-x="600" 
d="M554 -8l-508 234v54l508 234v-55l-446 -206l446 -206v-55z" />
    <glyph glyph-name="equal" unicode="=" horiz-adv-x="600" 
d="M552 128h-503v53h503v-53zM552 325h-503v53h503v-53z" />
    <glyph glyph-name="greater" unicode="&#x3e;" horiz-adv-x="600" 
d="M492 253l-446 206v55l508 -234v-54l-508 -234v55z" />
    <glyph glyph-name="question" unicode="?" horiz-adv-x="537" 
d="M231 106h84v-106h-84v106zM54 494q0 53 15.5 96.5t44 74t71 47.5t96.5 17q42 0 78.5 -12.5t64.5 -36.5t44 -58.5t16 -77.5q0 -56 -24.5 -95t-62.5 -75q-32 -32 -50 -49t-27 -34.5t-12 -41.5t-4 -70h-63q-1 46 5 77.5t20 56t36 47.5t54 52q28 26 46.5 58t18.5 71
q0 30 -11.5 55t-31 42.5t-45.5 27.5t-55 10q-41 0 -71.5 -14t-50.5 -38.5t-30 -57.5t-9 -72h-63z" />
    <glyph glyph-name="at" unicode="@" horiz-adv-x="800" 
d="M518 256q-5 -16 -8.5 -31t-2.5 -26.5t6.5 -18.5t17.5 -7q33 0 64 23t54 59t37 80t14 86q0 62 -22.5 111t-61.5 82.5t-90.5 51.5t-109.5 18q-70 0 -128 -26t-100 -70.5t-65 -105t-23 -129.5q0 -68 24 -127t66.5 -102.5t101 -68.5t126.5 -25q37 0 73.5 9t70.5 26.5t63 42
t51 55.5h51q-23 -41 -56.5 -74t-74 -56t-86 -35.5t-92.5 -12.5q-81 0 -149 29t-117.5 79.5t-77 119t-27.5 147.5q0 78 28.5 145.5t78.5 117t116.5 78t143.5 28.5q72 0 134 -22.5t107.5 -64t71.5 -98.5t26 -126q0 -60 -20.5 -113t-53.5 -92.5t-74.5 -62t-83.5 -22.5
q-26 0 -45 17t-22 50h-2q-23 -24 -56 -45t-71 -21q-31 0 -55.5 11.5t-41.5 31.5t-26 46t-9 56q0 52 17 103.5t48 92.5t75 67t97 26q33 0 61 -19.5t45 -64.5l25 65h53zM426 510q-38 0 -69.5 -23t-54 -57.5t-34.5 -75t-12 -75.5q0 -45 23.5 -71t59.5 -26q35 0 65 24.5t52.5 60
t35.5 76.5t13 74q0 18 -7 34.5t-18 29.5t-25 21t-29 8z" />
    <glyph glyph-name="A" unicode="A" horiz-adv-x="630" 
d="M173 280h281l-138 366zM281 714h76l280 -714h-73l-87 222h-325l-86 -222h-73z" />
    <glyph glyph-name="B" unicode="B" horiz-adv-x="667" 
d="M140 401h234q41 0 71 9.5t50 26t30 38.5t10 47q0 134 -161 134h-234v-255zM72 714h302q45 0 86.5 -8.5t73 -29t50.5 -54t19 -83.5q0 -28 -9 -54.5t-25.5 -48t-39 -36.5t-50.5 -21v-2q69 -9 110 -56.5t41 -117.5q0 -26 -7.5 -60.5t-33.5 -66.5t-77 -54t-138 -22h-302v714z
M140 58h234q38 0 72 6.5t60 23.5t41 45.5t15 71.5q0 69 -49 103.5t-139 34.5h-234v-285z" />
    <glyph glyph-name="C" unicode="C" horiz-adv-x="704" 
d="M594 498q-9 41 -29.5 73.5t-50 54.5t-65 33.5t-74.5 11.5q-71 0 -122 -27t-83.5 -71.5t-48 -101t-15.5 -114.5q0 -59 15.5 -115t48 -100.5t83.5 -71.5t122 -27q49 0 89.5 18t69.5 49t47 72.5t23 89.5h68q-7 -66 -31 -119t-62 -90.5t-89.5 -57.5t-114.5 -20
q-84 0 -147.5 30.5t-105.5 82t-63 119t-21 140.5t21 140.5t63 119t105.5 82t147.5 30.5q51 0 99.5 -15t88 -44.5t66 -72.5t33.5 -99h-68z" />
    <glyph glyph-name="D" unicode="D" horiz-adv-x="685" 
d="M72 714h247q162 -4 245 -92t83 -265t-83 -265t-245 -92h-247v714zM140 58h145q77 0 132.5 16.5t91.5 52.5t53 93t17 137t-17 137t-53 93t-91.5 52.5t-132.5 16.5h-145v-598z" />
    <glyph glyph-name="E" unicode="E" horiz-adv-x="593" 
d="M72 714h493v-58h-425v-258h398v-58h-398v-282h430v-58h-498v714z" />
    <glyph glyph-name="F" unicode="F" horiz-adv-x="537" 
d="M72 714h453v-58h-385v-258h342v-58h-342v-340h-68v714z" />
    <glyph glyph-name="G" unicode="G" horiz-adv-x="741" 
d="M682 0h-49l-9 130h-2q-18 -38 -44.5 -65.5t-58.5 -45t-68.5 -26t-75.5 -8.5q-84 0 -147.5 30.5t-105.5 82t-63 119t-21 140.5t21 140.5t63 119t105.5 82t147.5 30.5q56 0 106 -15t89.5 -45t66 -74.5t36.5 -102.5h-68q-3 31 -20.5 62.5t-47 57.5t-70.5 42.5t-92 16.5
q-71 0 -122 -27t-83.5 -71.5t-48 -101t-15.5 -114.5q0 -59 15.5 -115t48 -100.5t83.5 -71.5t122 -27q59 0 105.5 19.5t78.5 54.5t48 83t15 105h-243v58h303v-363z" />
    <glyph glyph-name="H" unicode="H" horiz-adv-x="704" 
d="M72 714h68v-310h424v310h68v-714h-68v346h-424v-346h-68v714z" />
    <glyph glyph-name="I" unicode="I" horiz-adv-x="222" 
d="M77 714h68v-714h-68v714z" />
    <glyph glyph-name="J" unicode="J" horiz-adv-x="500" 
d="M360 714h68v-515q0 -54 -11 -94.5t-35.5 -67t-64 -39.5t-97.5 -13q-62 0 -100.5 20.5t-60.5 55t-30 78t-8 90.5h68q1 -23 2.5 -55t14 -61t40 -49.5t80.5 -20.5q40 0 66 10.5t41 33t21 57.5t6 84v486z" />
    <glyph glyph-name="K" unicode="K" horiz-adv-x="648" 
d="M72 714h68v-384l415 384h92l-319 -295l334 -419h-88l-297 372l-137 -127v-245h-68v714z" />
    <glyph glyph-name="L" unicode="L" horiz-adv-x="537" 
d="M72 714h68v-656h400v-58h-468v714z" />
    <glyph glyph-name="M" unicode="M" horiz-adv-x="833" 
d="M70 714h100l247 -626l246 626h100v-714h-68v617h-2l-244 -617h-64l-245 617h-2v-617h-68v714z" />
    <glyph glyph-name="N" unicode="N" horiz-adv-x="704" 
d="M71 714h76l416 -604h2v604h68v-714h-76l-416 604h-2v-604h-68v714z" />
    <glyph glyph-name="O" unicode="O" horiz-adv-x="741" 
d="M102 357q0 -59 15.5 -115t48 -100.5t83.5 -71.5t122 -27q70 0 121 27t83.5 71.5t48 100.5t15.5 115q0 58 -15.5 114.5t-48 101t-83.5 71.5t-121 27q-71 0 -122 -27t-83.5 -71.5t-48 -101t-15.5 -114.5zM34 357q0 73 21 140.5t63 119t105.5 82t147.5 30.5t147 -30.5
t105 -82t63 -119t21 -140.5t-21 -140.5t-63 -119t-105 -82t-147 -30.5t-147.5 30.5t-105.5 82t-63 119t-21 140.5z" />
    <glyph glyph-name="P" unicode="P" horiz-adv-x="630" 
d="M140 364h234q71 0 115 36t44 110t-44 110t-115 36h-234v-292zM72 714h317q48 0 87 -13.5t67 -40t43 -64.5t15 -86t-15 -86t-43 -64.5t-67 -40t-87 -13.5h-249v-306h-68v714z" />
    <glyph glyph-name="Q" unicode="Q" horiz-adv-x="741" 
d="M667 -46l-111 84q-37 -26 -83 -39.5t-102 -13.5q-84 0 -147.5 30.5t-105.5 82t-63 119t-21 140.5t21 140.5t63 119t105.5 82t147.5 30.5t147 -30.5t105 -82t63 -119t21 -140.5q0 -83 -27 -157t-81 -126l102 -78zM548 113q48 45 69.5 110t21.5 134q0 58 -15.5 114.5
t-48 101t-83.5 71.5t-121 27q-71 0 -122 -27t-83.5 -71.5t-48 -101t-15.5 -114.5q0 -59 15.5 -115t48 -100.5t83.5 -71.5t122 -27q77 0 132 35l-94 71l35 43z" />
    <glyph glyph-name="R" unicode="R" horiz-adv-x="667" 
d="M140 375h254q31 0 59 9.5t49 27.5t33.5 43.5t12.5 58.5q0 66 -38.5 104t-115.5 38h-254v-281zM72 714h327q44 0 83.5 -11t69 -33.5t47 -58t17.5 -83.5q0 -68 -35 -118t-104 -64v-2q35 -5 58 -18.5t37.5 -34.5t21 -48.5t8.5 -59.5q1 -18 2 -44t4 -52.5t9.5 -50t17.5 -36.5
h-75q-6 10 -9.5 24.5t-5.5 30t-2.5 30.5t-1.5 26q-2 37 -6.5 75t-19 67.5t-42 47.5t-75.5 16h-258v-317h-68v714z" />
    <glyph glyph-name="S" unicode="S" horiz-adv-x="630" 
d="M104 235q-1 -55 17 -92t49.5 -59t74.5 -31.5t92 -9.5q28 0 61 8t61.5 25.5t47.5 45t19 66.5q0 30 -13.5 52t-35 37t-47.5 24.5t-51 15.5l-159 39q-32 8 -61 20t-51 32t-35.5 49t-13.5 71q0 26 10 61t37.5 66t75.5 52.5t123 21.5q53 0 101 -14t84.5 -42t57.5 -69.5
t21 -96.5h-68q-2 41 -18 71.5t-43 51t-61.5 31t-72.5 10.5q-35 0 -67.5 -7.5t-57 -24t-39.5 -43.5t-15 -67q0 -25 8.5 -43.5t23.5 -31t34.5 -21t41.5 -13.5l174 -43q38 -10 71.5 -24.5t59 -36t40 -52.5t14.5 -75q0 -12 -2.5 -32t-12 -42.5t-27 -45.5t-48 -42t-75.5 -30.5
t-108 -11.5t-117 14.5t-92 45t-58.5 78t-17.5 112.5h68z" />
    <glyph glyph-name="T" unicode="T" horiz-adv-x="556" 
d="M-5 714h566v-58h-249v-656h-68v656h-249v58z" />
    <glyph glyph-name="U" unicode="U" horiz-adv-x="685" 
d="M65 714h68v-442q0 -62 14 -105.5t41 -71t66 -40t88 -12.5t88.5 12.5t66.5 40t41 71t14 105.5v442h68v-457q0 -55 -15.5 -104.5t-49 -86.5t-86 -59t-127.5 -22q-74 0 -126.5 22t-86 59t-49 86.5t-15.5 104.5v457z" />
    <glyph glyph-name="V" unicode="V" horiz-adv-x="593" 
d="M-7 714h73l232 -639h2l230 639h72l-265 -714h-79z" />
    <glyph glyph-name="W" unicode="W" horiz-adv-x="907" 
d="M0 714h73l162 -625h2l174 625h85l175 -625h2l163 625h68l-197 -714h-72l-181 639h-2l-180 -639h-74z" />
    <glyph glyph-name="X" unicode="X" horiz-adv-x="574" 
d="M3 714h80l202 -299l209 299h76l-244 -348l258 -366h-82l-217 315l-220 -315h-77l257 368z" />
    <glyph glyph-name="Y" unicode="Y" horiz-adv-x="611" 
d="M271 294l-281 420h81l235 -362l234 362h81l-282 -420v-294h-68v294z" />
    <glyph glyph-name="Z" unicode="Z" horiz-adv-x="574" 
d="M37 714h514v-60l-470 -596h480v-58h-556v60l470 596h-438v58z" />
    <glyph glyph-name="bracketleft" unicode="[" horiz-adv-x="241" 
d="M76 -191v920h161v-53h-98v-814h98v-53h-161z" />
    <glyph glyph-name="backslash" unicode="\" horiz-adv-x="333" 
d="M292 -15l-305 744h51l308 -744h-54z" />
    <glyph glyph-name="bracketright" unicode="]" horiz-adv-x="241" 
d="M165 729v-920h-161v53h98v814h-98v53h161z" />
    <glyph glyph-name="asciicircum" unicode="^" horiz-adv-x="600" 
d="M44 238l230 453h52l230 -453h-57l-200 390l-197 -390h-58z" />
    <glyph glyph-name="underscore" unicode="_" horiz-adv-x="500" 
d="M0 -125v50h500v-50h-500z" />
    <glyph glyph-name="grave" unicode="`" 
d="M-31 729h78l105 -141h-51z" />
    <glyph glyph-name="a" unicode="a" horiz-adv-x="519" 
d="M54 358q5 91 62.5 132t146.5 41q34 0 68 -6.5t61 -24.5t44 -50.5t17 -84.5v-274q0 -38 37 -38q10 0 20 4v-53q-11 -2 -19.5 -3t-21.5 -1q-24 0 -38.5 6.5t-22.5 18.5t-10.5 28.5t-2.5 36.5h-2q-17 -25 -34.5 -44.5t-39 -33t-49.5 -20.5t-65 -7q-36 0 -67.5 9t-55 27.5
t-37 47t-13.5 67.5q0 54 24 84.5t63.5 46.5t89 22.5t100.5 12.5q19 2 34.5 5.5t25.5 10.5t15.5 20t5.5 34q0 32 -10.5 52.5t-29 32.5t-43 16.5t-52.5 4.5q-59 0 -97.5 -28.5t-40.5 -91.5h-63zM390 282h-2q-6 -11 -23 -16t-30 -7q-40 -7 -82.5 -12.5t-77.5 -16.5t-57.5 -31.5
t-22.5 -58.5q0 -24 9.5 -42.5t25.5 -32t37 -20.5t43 -7q36 0 69 11t57.5 32t39 51t14.5 68v82z" />
    <glyph glyph-name="b" unicode="b" horiz-adv-x="574" 
d="M60 714h63v-296h2q10 28 28.5 49t42.5 35t51.5 21.5t56.5 7.5q59 0 102.5 -22t72.5 -59.5t43 -87t14 -104.5t-14 -104.5t-43 -87t-72.5 -59.5t-102.5 -22q-63 0 -112.5 30t-71.5 83h-2v-98h-58v714zM473 258q0 40 -9.5 79.5t-30 70.5t-52.5 50.5t-77 19.5
q-50 0 -84.5 -19.5t-56 -50.5t-31 -70.5t-9.5 -79.5t9.5 -79.5t31 -70.5t56 -50.5t84.5 -19.5q45 0 77 19.5t52.5 50.5t30 70.5t9.5 79.5z" />
    <glyph glyph-name="c" unicode="c" horiz-adv-x="519" 
d="M424 354q-13 58 -48.5 91t-97.5 33q-45 0 -79 -19t-56.5 -50t-34 -70.5t-11.5 -80.5t11.5 -80.5t34 -70.5t56.5 -50t79 -19q29 0 55 11t46 30.5t33 46.5t16 59h63q-13 -94 -69.5 -147t-143.5 -53q-59 0 -104.5 22t-76.5 59t-47 86.5t-16 105.5q0 55 16 105t47 87t76.5 59
t104.5 22q83 0 140.5 -44t68.5 -133h-63z" />
    <glyph glyph-name="d" unicode="d" horiz-adv-x="574" 
d="M514 0h-58v98h-2q-10 -25 -29.5 -46t-44.5 -36t-53.5 -23t-56.5 -8q-59 0 -102.5 22t-72.5 59.5t-43 87t-14 104.5t14 104.5t43 87t72.5 59.5t102.5 22q29 0 56.5 -7.5t51.5 -21.5t42.5 -35t28.5 -49h2v296h63v-714zM101 258q0 -40 9.5 -79.5t30 -70.5t52.5 -50.5
t77 -19.5q50 0 84.5 19.5t56 50.5t31 70.5t9.5 79.5t-9.5 79.5t-31 70.5t-56 50.5t-84.5 19.5q-45 0 -77 -19.5t-52.5 -50.5t-30 -70.5t-9.5 -79.5z" />
    <glyph glyph-name="e" unicode="e" horiz-adv-x="519" 
d="M431 294q-1 36 -12.5 69t-32.5 58.5t-51 41t-68 15.5q-39 0 -69 -15.5t-51 -41t-33.5 -59t-16.5 -68.5h334zM97 241q0 -35 10 -71t30 -65t52.5 -48t77.5 -19q69 0 108 36.5t54 95.5h63q-20 -88 -73.5 -136.5t-151.5 -48.5q-62 0 -106 22t-72 59.5t-41.5 87t-13.5 104.5
q0 51 13.5 100t41.5 87.5t72 62t106 23.5t106 -25t71.5 -65.5t39.5 -93t10 -106.5h-397z" />
    <glyph glyph-name="f" unicode="f" horiz-adv-x="259" 
d="M259 463h-102v-463h-63v463h-88v53h88v47q0 33 5 61t19 48t38.5 31t62.5 11q14 0 26 -1t27 -3v-54q-13 2 -24 3.5t-22 1.5q-26 0 -40 -8t-20.5 -21.5t-7.5 -31.5t-1 -39v-45h102v-53z" />
    <glyph glyph-name="g" unicode="g" horiz-adv-x="556" 
d="M496 42q0 -58 -12.5 -104t-39.5 -78t-70.5 -49t-106.5 -17q-39 0 -76 9t-66.5 28t-49 48.5t-22.5 70.5h63q5 -29 19.5 -48.5t35 -31.5t45.5 -17.5t51 -5.5q88 0 127 50t39 145v70h-2q-22 -48 -65 -77t-99 -29q-62 0 -106 20.5t-72.5 56.5t-41.5 84.5t-13 103.5
q0 53 15.5 100.5t45 83t73 56t99.5 20.5q57 0 101 -30.5t63 -73.5h2v89h63v-474zM267 59q41 0 72 17.5t52 46t31.5 65.5t10.5 76q0 38 -9 76t-29 69t-51.5 50t-76.5 19t-77 -18.5t-53 -48.5t-30.5 -68.5t-9.5 -78.5q0 -39 10 -76t31 -65.5t53 -46t76 -17.5z" />
    <glyph glyph-name="h" unicode="h" horiz-adv-x="537" 
d="M59 714h63v-287h2q9 23 25.5 42.5t38.5 33t48 21t53 7.5q54 0 90.5 -14t58.5 -39.5t31 -62.5t9 -83v-332h-63v322q0 33 -6 61.5t-21 49.5t-40.5 33t-63.5 12t-67.5 -13.5t-50.5 -37t-32 -56t-12 -70.5v-301h-63v714z" />
    <glyph glyph-name="i" unicode="i" 
d="M61 714h63v-101h-63v101zM61 516h63v-516h-63v516z" />
    <glyph glyph-name="j" unicode="j" 
d="M61 714h63v-101h-63v101zM61 516h63v-564q0 -29 -4.5 -55t-17 -45.5t-34 -31t-54.5 -11.5q-11 0 -22 1t-22 1v52q8 -1 17 -1.5t17 0.5q37 0 47 21.5t10 53.5v579z" />
    <glyph glyph-name="k" unicode="k" horiz-adv-x="500" 
d="M60 714h63v-448l286 250h84l-220 -191l235 -325h-79l-204 281l-102 -85v-196h-63v714z" />
    <glyph glyph-name="l" unicode="l" 
d="M61 714h63v-714h-63v714z" />
    <glyph glyph-name="m" unicode="m" horiz-adv-x="833" 
d="M60 516h58v-87h3q25 47 66 74.5t103 27.5q51 0 92.5 -25t55.5 -76q23 51 68 76t96 25q171 0 171 -181v-350h-63v347q0 64 -27 97.5t-95 33.5q-41 0 -68 -15.5t-43 -41.5t-22.5 -59.5t-6.5 -69.5v-292h-63v350q0 26 -5.5 49.5t-18 41t-33.5 27.5t-51 10q-41 0 -70 -14.5
t-47.5 -40t-27.5 -60.5t-9 -75v-288h-63v516z" />
    <glyph glyph-name="n" unicode="n" horiz-adv-x="537" 
d="M59 516h63v-89h2q9 23 25.5 42.5t38.5 33t48 21t53 7.5q54 0 90.5 -14t58.5 -39.5t31 -62.5t9 -83v-332h-63v322q0 33 -6 61.5t-21 49.5t-40.5 33t-63.5 12t-67.5 -13.5t-50.5 -37t-32 -56t-12 -70.5v-301h-63v516z" />
    <glyph glyph-name="o" unicode="o" horiz-adv-x="556" 
d="M278 478q-45 0 -79 -19t-56.5 -50t-34 -70.5t-11.5 -80.5t11.5 -80.5t34 -70.5t56.5 -50t79 -19t79 19t56.5 50t34 70.5t11.5 80.5t-11.5 80.5t-34 70.5t-56.5 50t-79 19zM278 531q59 0 104.5 -22t76.5 -59t47 -87t16 -105q0 -56 -16 -105.5t-47 -86.5t-76.5 -59
t-104.5 -22t-104.5 22t-76.5 59t-47 86.5t-16 105.5q0 55 16 105t47 87t76.5 59t104.5 22z" />
    <glyph glyph-name="p" unicode="p" horiz-adv-x="574" 
d="M60 516h58v-98h2q22 53 71.5 83t112.5 30q59 0 102.5 -22t72.5 -59.5t43 -87t14 -104.5t-14 -104.5t-43 -87t-72.5 -59.5t-102.5 -22q-29 0 -56.5 7t-51.5 21.5t-42.5 35.5t-28.5 49h-2v-289h-63v707zM473 258q0 40 -9.5 79.5t-30 70.5t-52.5 50.5t-77 19.5
q-52 0 -87 -18t-56 -48t-29.5 -70t-8.5 -84q0 -40 9.5 -79.5t31 -70.5t56 -50.5t84.5 -19.5q45 0 77 19.5t52.5 50.5t30 70.5t9.5 79.5z" />
    <glyph glyph-name="q" unicode="q" horiz-adv-x="574" 
d="M514 -191h-63v289h-2q-10 -28 -28.5 -49t-42.5 -35.5t-51.5 -21.5t-56.5 -7q-59 0 -102.5 22t-72.5 59.5t-43 87t-14 104.5t14 104.5t43 87t72.5 59.5t102.5 22q28 0 56.5 -8t53.5 -23t44.5 -36t29.5 -46h2v98h58v-707zM101 258q0 -40 9.5 -79.5t30 -70.5t52.5 -50.5
t77 -19.5q50 0 84.5 19.5t56 50.5t31 70.5t9.5 79.5t-9.5 79.5t-31 70.5t-56 50.5t-84.5 19.5q-45 0 -77 -19.5t-52.5 -50.5t-30 -70.5t-9.5 -79.5z" />
    <glyph glyph-name="r" unicode="r" horiz-adv-x="315" 
d="M60 516h58v-121h2q24 63 74.5 97t120.5 31v-63q-43 2 -78 -11.5t-60.5 -38.5t-39.5 -60t-14 -75v-275h-63v516z" />
    <glyph glyph-name="s" unicode="s" horiz-adv-x="481" 
d="M369 365q-1 29 -12 50.5t-29.5 35.5t-42.5 20.5t-51 6.5q-21 0 -42.5 -4.5t-39.5 -15t-29 -27.5t-11 -42q0 -21 10.5 -35.5t26.5 -24.5t35 -16.5t35 -10.5l84 -19q27 -4 53.5 -14.5t47 -27.5t33.5 -42t13 -59q0 -42 -19 -71.5t-48.5 -48t-66.5 -27t-73 -8.5
q-91 0 -147.5 43.5t-64.5 138.5h63q4 -64 46.5 -96.5t105.5 -32.5q22 0 47 5t46 17t34.5 30.5t13.5 45.5q0 22 -9.5 38t-25.5 26.5t-36.5 17.5t-41.5 12l-81 18q-31 8 -57 18.5t-45.5 26t-30.5 38t-11 55.5q0 39 17.5 67t45.5 45t62.5 25t68.5 8q39 0 72.5 -10t59 -31
t40.5 -52t17 -73h-63z" />
    <glyph glyph-name="t" unicode="t" horiz-adv-x="296" 
d="M160 516h105v-53h-105v-348q0 -31 8.5 -48.5t42.5 -19.5q27 0 54 3v-54q-14 0 -28 -1t-28 -1q-63 0 -88 25t-24 91v353h-90v53h90v155h63v-155z" />
    <glyph glyph-name="u" unicode="u" horiz-adv-x="537" 
d="M478 0h-58v93h-2q-25 -52 -72.5 -80t-105.5 -28q-49 0 -83.5 13.5t-56 39t-31.5 62t-10 81.5v335h63v-336q2 -70 32.5 -106t105.5 -36q40 0 69.5 17.5t48.5 46.5t28 66.5t9 76.5v271h63v-516z" />
    <glyph glyph-name="v" unicode="v" horiz-adv-x="463" 
d="M2 516h70l162 -453h2l160 453h65l-193 -516h-67z" />
    <glyph glyph-name="w" unicode="w" horiz-adv-x="741" 
d="M8 516h67l132 -442h2l126 442h71l126 -442h2l132 442h67l-166 -516h-69l-127 434h-2l-126 -434h-69z" />
    <glyph glyph-name="x" unicode="x" horiz-adv-x="481" 
d="M201 268l-185 248h79l147 -196l144 196h79l-186 -247l201 -269h-80l-162 217l-159 -217h-78z" />
    <glyph glyph-name="y" unicode="y" horiz-adv-x="463" 
d="M2 516h67l170 -440l159 440h63l-224 -595q-14 -33 -25.5 -54.5t-26.5 -34t-34.5 -18t-49.5 -5.5q-19 1 -29.5 1.5t-18.5 3.5v53q11 -2 21.5 -3.5t21.5 -1.5q21 0 34.5 6t23.5 16.5t17 25.5t15 33l22 59z" />
    <glyph glyph-name="z" unicode="z" horiz-adv-x="463" 
d="M91 53h355v-53h-431v51l337 412h-314v53h394v-45z" />
    <glyph glyph-name="braceleft" unicode="{" horiz-adv-x="333" 
d="M243 -191q-42 0 -65 34t-23 91v148q0 30 -3 59t-11 51.5t-22 36t-36 13.5v53q22 0 36 13.5t22 36t11 51.5t3 59v149q0 57 23 91t65 34h50v-53h-20q-15 0 -25.5 -8.5t-17 -23t-9.5 -33t-3 -38.5v-141q0 -41 -9 -70.5t-21 -49t-23.5 -29.5t-16.5 -13v-2q5 -3 16.5 -13
t23.5 -29.5t21 -49t9 -70.5v-141q0 -20 3 -39t9.5 -33t17 -22.5t25.5 -8.5h20v-53h-50z" />
    <glyph glyph-name="bar" unicode="|" horiz-adv-x="222" 
d="M85 786h53v-1000h-53v1000z" />
    <glyph glyph-name="braceright" unicode="}" horiz-adv-x="333" 
d="M90 729q42 0 65 -34t23 -91v-148q0 -30 3 -59t11 -51.5t22 -36t36 -13.5v-53q-22 0 -36 -13.5t-22 -36t-11 -51.5t-3 -59v-149q0 -57 -23 -91t-65 -34h-50v53h20q15 0 25.5 8.5t17 22.5t9.5 33t3 39v141q0 41 9 70.5t21 49t23.5 29.5t16.5 13v2q-5 3 -16.5 13t-23.5 29.5
t-21 49t-9 70.5v141q0 20 -3 38.5t-9.5 33t-17 23t-25.5 8.5h-20v53h50z" />
    <glyph glyph-name="asciitilde" unicode="~" horiz-adv-x="600" 
d="M531 279q-11 -16 -23.5 -31.5t-27 -27.5t-33 -19.5t-41.5 -7.5q-30 0 -57 10t-53 23q-26 12 -52 22t-55 10q-33 0 -52.5 -21.5t-31.5 -47.5l-36 36q8 16 19.5 31.5t26.5 27.5t34.5 19.5t44.5 7.5q28 0 57.5 -10t57.5 -22q29 -13 54 -23t44 -10q30 0 50.5 21.5t37.5 47.5z
" />
    <glyph glyph-name="uni00A0" unicode="&#xa0;" horiz-adv-x="278" 
 />
    <glyph glyph-name="exclamdown" unicode="&#xa1;" horiz-adv-x="241" 
d="M163 516v-106h-84v106h84zM155 15v-206h-68v206l15 323h38z" />
    <glyph glyph-name="cent" unicode="&#xa2;" horiz-adv-x="556" 
d="M444 354q-12 56 -45 89t-90 35v-440q27 1 51 13t42.5 31.5t30.5 45.5t15 57h63q-12 -91 -66 -144t-136 -56v-101h-39v102q-53 5 -93 28.5t-67.5 60.5t-41.5 84t-14 99t14 99t41.5 83.5t67.5 60t93 28.5v89h39v-87q39 -1 73 -13t60 -34t43 -54.5t22 -75.5h-63zM270 476
q-39 -6 -67.5 -26.5t-47.5 -50.5t-28.5 -66.5t-9.5 -74.5t9.5 -74.5t28.5 -66.5t47.5 -51t67.5 -27v437z" />
    <glyph glyph-name="sterling" unicode="&#xa3;" horiz-adv-x="556" 
d="M46 362h63q-23 37 -39 76.5t-16 84.5q0 54 19.5 92.5t51.5 64t73 37.5t84 12q111 0 172.5 -63t59.5 -174h-63q0 40 -10.5 74t-32 58.5t-53 38t-73.5 13.5q-32 0 -61.5 -9.5t-52.5 -29t-37 -49t-14 -69.5q0 -26 5.5 -45.5t14.5 -37t19.5 -35t19.5 -39.5h160v-32h-142
q11 -18 17.5 -47t6.5 -50q0 -28 -9.5 -54t-25 -49t-35 -43t-40.5 -36l2 -2q22 11 46.5 20.5t50.5 9.5q33 0 57.5 -6t44.5 -14q21 -8 41 -14.5t45 -6.5q32 0 63 16.5t52 39.5l32 -48q-33 -29 -67 -45t-79 -16q-32 0 -57.5 5.5t-48.5 13.5t-46.5 15t-54.5 7q-19 0 -33 -3
t-26 -8.5t-24 -13t-27 -16.5l-36 54q22 18 42.5 38t36 43t24.5 49t9 56q0 23 -8 54t-20 51h-81v32z" />
    <glyph glyph-name="currency" unicode="&#xa4;" horiz-adv-x="556" 
d="M94 346q0 -40 14.5 -75t39.5 -60.5t59 -40t72 -14.5t72 14.5t59 40t39.5 60.5t14.5 75t-14.5 75t-39.5 60.5t-59 40t-72 14.5t-72 -14.5t-59 -40t-39.5 -60.5t-14.5 -75zM86 193q-26 32 -40.5 70.5t-14.5 82.5t14 83t40 71l-56 56l38 38l56 -56q31 26 71 41t85 15
q44 0 82.5 -14.5t70.5 -40.5l55 55l38 -38l-54 -54q26 -32 41 -71.5t15 -84.5t-15 -84.5t-41 -71.5l54 -54l-38 -38l-55 55q-31 -26 -69.5 -40.5t-83.5 -14.5t-84.5 15t-71.5 41l-56 -56l-38 38z" />
    <glyph glyph-name="yen" unicode="&#xa5;" horiz-adv-x="556" 
d="M110 349h106l-210 365h72l199 -365l201 365h69l-211 -365h109v-45h-131l-6 -10v-73h137v-45h-137v-176h-63v176h-135v45h135v73l-6 10h-129v45z" />
    <glyph glyph-name="brokenbar" unicode="&#xa6;" horiz-adv-x="222" 
d="M85 661h53v-250h-53v250zM85 161h53v-250h-53v250z" />
    <glyph glyph-name="section" unicode="&#xa7;" horiz-adv-x="556" 
d="M511 231q0 -25 -8.5 -46.5t-23.5 -39.5t-35 -31.5t-42 -22.5q50 -44 50 -109q0 -35 -14.5 -61.5t-38.5 -44.5t-54.5 -27.5t-61.5 -9.5q-85 0 -135 45.5t-50 131.5h63q-1 -26 7 -48.5t23.5 -39t37.5 -26.5t48 -10q21 0 41 5t36 16t25.5 27.5t9.5 40.5q0 38 -25.5 65
t-63.5 50.5t-83 45.5t-83 49t-63.5 62t-25.5 84q0 25 8.5 46.5t23.5 39.5t35 31.5t42 22.5q-50 44 -50 109q0 34 14.5 61t38.5 45t54.5 27.5t61.5 9.5q85 0 135 -45.5t50 -131.5h-63q1 25 -7 48t-23.5 39.5t-37.5 26.5t-48 10q-21 0 -41 -5t-36 -16t-25.5 -27.5t-9.5 -40.5
q0 -38 25.5 -65t63.5 -50.5t83 -45.5t83 -49t63.5 -62t25.5 -84zM448 230q0 40 -28.5 70.5t-69 55.5t-84.5 47t-76 44q-36 -15 -59 -40.5t-23 -67.5q0 -38 28 -68.5t68 -56t84 -48t76 -44.5q36 15 60 40.5t24 67.5z" />
    <glyph glyph-name="dieresis" unicode="&#xa8;" 
d="M-30 610v101h68v-101h-68zM147 610v101h68v-101h-68z" />
    <glyph glyph-name="copyright" unicode="&#xa9;" horiz-adv-x="800" 
d="M543 435q-9 45 -43.5 75t-89.5 31q-41 0 -71.5 -14t-51.5 -39t-31.5 -58.5t-10.5 -72.5t10.5 -72.5t31.5 -58.5t51.5 -39t71.5 -14q55 0 89.5 30.5t43.5 75.5h51q-5 -36 -21 -64.5t-41 -47.5t-56.5 -29t-66.5 -10q-51 0 -91.5 17t-68 48t-42.5 72.5t-15 91.5q0 49 15 91
t42.5 73t68 48t91.5 17q35 0 66.5 -10t56.5 -29t41 -47.5t21 -64.5h-51zM714 357q0 67 -24 125t-66 101t-99.5 68t-124.5 25q-68 0 -125.5 -25t-99.5 -68t-65.5 -101t-23.5 -125t23.5 -125t65.5 -101t99.5 -68t125.5 -25q67 0 124.5 25t99.5 68t66 101t24 125zM772 357
q0 -78 -28.5 -146t-78.5 -118.5t-118 -79t-147 -28.5t-147 28.5t-118 79t-78.5 118.5t-28.5 146t28.5 146t78.5 118.5t118 79t147 28.5t147 -28.5t118 -79t78.5 -118.5t28.5 -146z" />
    <glyph glyph-name="ordfeminine" unicode="&#xaa;" horiz-adv-x="311" 
d="M7 597q3 58 41 83.5t99 25.5q24 0 47.5 -4t41.5 -15t28.5 -30.5t10.5 -50.5v-172q2 -23 25 -23q7 0 13 3v-34q-5 -1 -12 -2t-15 -1q-31 0 -39.5 14.5t-8.5 41.5h-2q-41 -65 -123 -65q-51 0 -84.5 22.5t-33.5 73.5q0 35 15.5 54.5t41 29.5t58 14t65.5 7q26 3 39.5 8.5
t13.5 22.5q0 20 -7 33t-19 20.5t-28 10.5t-34 3q-35 0 -60 -17t-26 -53h-47zM228 549h-2q-3 -7 -14.5 -9.5t-19.5 -4.5q-30 -5 -57.5 -8.5t-48 -10t-32.5 -18t-12 -32.5q0 -14 6.5 -24.5t16.5 -18.5t22 -12t24 -4q23 0 44.5 6.5t37.5 19t25.5 30t9.5 39.5v47z" />
    <glyph glyph-name="guillemotleft" unicode="&#xab;" horiz-adv-x="426" 
d="M60 244v62l133 125v-67l-94 -89l94 -89v-67zM221 244v62l133 125v-67l-94 -89l94 -89v-67z" />
    <glyph glyph-name="logicalnot" unicode="&#xac;" horiz-adv-x="600" 
d="M499 325h-450v53h503v-267h-53v214z" />
    <glyph glyph-name="uni00AD" unicode="&#xad;" horiz-adv-x="370" 
d="M60 246v58h250v-58h-250z" />
    <glyph glyph-name="registered" unicode="&#xae;" horiz-adv-x="800" 
d="M388 378q24 0 47.5 1.5t41.5 8.5t29 22.5t11 42.5q0 22 -8.5 36.5t-23 23t-33 11.5t-37.5 3h-97v-149h70zM318 142h-53v430h165q73 0 106.5 -30.5t33.5 -88.5q0 -29 -8.5 -49.5t-23.5 -35t-34.5 -23t-41.5 -12.5l128 -191h-62l-121 191h-89v-191zM400 676
q-68 0 -125.5 -25t-99.5 -68t-65.5 -101t-23.5 -125t23.5 -125t65.5 -101t99.5 -68t125.5 -25q67 0 124.5 25t99.5 68t66 101t24 125t-24 125t-66 101t-99.5 68t-124.5 25zM400 729q79 0 147 -28.5t118 -79t78.5 -118.5t28.5 -146t-28.5 -146t-78.5 -118.5t-118 -79
t-147 -28.5t-147 28.5t-118 79t-78.5 118.5t-28.5 146t28.5 146t78.5 118.5t118 79t147 28.5z" />
    <glyph glyph-name="macron" unicode="&#xaf;" 
d="M-72 638v45h329v-45h-329z" />
    <glyph glyph-name="degree" unicode="&#xb0;" horiz-adv-x="400" 
d="M95 562q0 -22 8 -41t22.5 -33.5t33.5 -22.5t41 -8t41 8t33 22.5t22.5 33.5t8.5 41t-8.5 41t-22.5 33t-33 22.5t-41 8.5t-41 -8.5t-33.5 -22.5t-22.5 -33t-8 -41zM56 562q0 30 11 56t30.5 45.5t46 31t56.5 11.5t56 -11.5t45.5 -31t31 -45.5t11.5 -56t-11.5 -56.5t-31 -46
t-45.5 -30.5t-56 -11t-56.5 11t-46 30.5t-30.5 46t-11 56.5z" />
    <glyph glyph-name="plusminus" unicode="&#xb1;" horiz-adv-x="600" 
d="M49 53h503v-53h-503v53zM274 503h53v-180h225v-53h-225v-180h-53v180h-224v53h224v180z" />
    <glyph glyph-name="twosuperior" unicode="&#xb2;" horiz-adv-x="333" 
d="M24 553q-2 69 35 111t115 42q63 0 104.5 -30.5t41.5 -94.5q0 -26 -9.5 -48t-25.5 -40t-37 -33t-43 -28q-17 -11 -37.5 -22t-40.5 -25t-36 -31.5t-22 -40.5h248v-39h-302q1 48 24.5 80.5t57 57t71 45.5t66.5 48q19 18 29 36t10 44q0 19 -8.5 34.5t-22.5 26t-32.5 16
t-39.5 5.5q-27 0 -46 -9.5t-31 -25.5t-17 -36.5t-5 -42.5h-47z" />
    <glyph glyph-name="threesuperior" unicode="&#xb3;" horiz-adv-x="333" 
d="M135 517h35q16 0 32.5 4.5t30 13.5t22 23t8.5 33q0 39 -29.5 57.5t-68.5 18.5q-49 0 -75 -29t-25 -74h-47q1 63 39 102.5t108 39.5q28 0 54 -6.5t46.5 -20t32.5 -34.5t12 -50q0 -35 -20 -60t-57 -33v-2q45 -6 69.5 -33.5t24.5 -69.5q0 -32 -13 -57t-34.5 -41.5t-51 -25
t-62.5 -8.5q-74 0 -118.5 38t-39.5 109h47q-2 -48 27.5 -78t82.5 -30q21 0 42 6t37 17.5t26 28.5t10 38q0 42 -32.5 63t-77.5 21h-35v39z" />
    <glyph glyph-name="acute" unicode="&#xb4;" 
d="M84 590h-51l105 141h78z" />
    <glyph glyph-name="mu" unicode="&#xb5;" horiz-adv-x="537" 
d="M478 0h-58v93h-2q-25 -52 -72.5 -80t-105.5 -28q-32 0 -62.5 8.5t-54.5 26.5v-211h-64v707h63v-336q2 -70 32.5 -106t105.5 -36q40 0 69.5 17.5t48.5 46.5t28 66.5t9 76.5v271h63v-516z" />
    <glyph glyph-name="paragraph" unicode="&#xb6;" horiz-adv-x="600" 
d="M273 328q-44 0 -82 15t-65.5 41t-43.5 60.5t-16 73.5q0 95 58.5 145.5t164.5 50.5h230v-891h-63v838h-120v-838h-63v505z" />
    <glyph glyph-name="periodcentered" unicode="&#xb7;" horiz-adv-x="278" 
d="M139 375q24 0 41.5 -18t17.5 -42q0 -23 -18 -40.5t-41 -17.5q-24 0 -41.5 18t-17.5 42q0 23 18 40.5t41 17.5z" />
    <glyph glyph-name="cedilla" unicode="&#xb8;" 
d="M126 0l-44 -54q14 3 25.5 3.5t24.5 -1t28 -8t26.5 -20.5t11.5 -37t-10 -39t-26 -26.5t-35.5 -15.5t-38.5 -5q-24 0 -48 5t-46 16l14 32q13 -5 35 -9.5t44 -4.5q21 0 37 10t16 33q0 18 -13 28t-30 10q-35 0 -51 -8l-16 15l61 76h35z" />
    <glyph glyph-name="onesuperior" unicode="&#xb9;" horiz-adv-x="333" 
d="M35 623q27 1 48.5 3t37.5 9t26.5 21.5t15.5 40.5h40v-423h-47v310h-121v39z" />
    <glyph glyph-name="ordmasculine" unicode="&#xba;" horiz-adv-x="334" 
d="M167 407q29 0 51 11.5t36.5 29.5t22 41.5t7.5 47.5t-7.5 47.5t-22 41.5t-36.5 29.5t-51 11.5t-51 -11.5t-36.5 -29.5t-22 -41.5t-7.5 -47.5t7.5 -47.5t22 -41.5t36.5 -29.5t51 -11.5zM162 368q-39 0 -68.5 13t-49.5 36t-30.5 54t-10.5 66t10.5 66t30.5 54t49.5 36
t68.5 13q42 0 74 -13t53 -36t31.5 -54t10.5 -66t-10.5 -66t-31.5 -54t-53 -36t-74 -13z" />
    <glyph glyph-name="guillemotright" unicode="&#xbb;" horiz-adv-x="426" 
d="M72 186l94 89l-94 89v67l133 -125v-62l-133 -125v67zM233 186l94 89l-94 89v67l133 -125v-62l-133 -125v67z" />
    <glyph glyph-name="onequarter" unicode="&#xbc;" horiz-adv-x="834" 
d="M478 139h164v216h-2zM642 100h-210v39l213 284h44v-284h68v-39h-68v-100h-47v100zM48 623q27 1 48.5 3t37.5 9t26.5 21.5t15.5 40.5h40v-423h-47v310h-121v39zM586 725h47l-452 -759h-48z" />
    <glyph glyph-name="onehalf" unicode="&#xbd;" horiz-adv-x="834" 
d="M489 279q-2 69 35 111t115 42q63 0 104.5 -30.5t41.5 -94.5q0 -26 -9.5 -48t-25.5 -40t-37 -33t-43 -28q-17 -11 -37.5 -22t-40.5 -25t-36 -31.5t-22 -40.5h248v-39h-302q1 48 24.5 80.5t57 57t71 45.5t66.5 48q19 18 29 36t10 44q0 19 -8.5 34.5t-22.5 26t-32.5 16
t-39.5 5.5q-27 0 -46 -9.5t-31 -25.5t-17 -36.5t-5 -42.5h-47zM48 623q27 1 48.5 3t37.5 9t26.5 21.5t15.5 40.5h40v-423h-47v310h-121v39zM586 725h47l-452 -759h-48z" />
    <glyph glyph-name="threequarters" unicode="&#xbe;" horiz-adv-x="834" 
d="M478 139h164v216h-2zM642 100h-210v39l213 284h44v-284h68v-39h-68v-100h-47v100zM626 725h47l-452 -759h-48zM135 517h35q16 0 32.5 4.5t30 13.5t22 23t8.5 33q0 39 -29.5 57.5t-68.5 18.5q-49 0 -75 -29t-25 -74h-47q1 63 39 102.5t108 39.5q28 0 54 -6.5t46.5 -20
t32.5 -34.5t12 -50q0 -35 -20 -60t-57 -33v-2q45 -6 69.5 -33.5t24.5 -69.5q0 -32 -13 -57t-34.5 -41.5t-51 -25t-62.5 -8.5q-74 0 -118.5 38t-39.5 109h47q-2 -48 27.5 -78t82.5 -30q21 0 42 6t37 17.5t26 28.5t10 38q0 42 -32.5 63t-77.5 21h-35v39z" />
    <glyph glyph-name="questiondown" unicode="&#xbf;" horiz-adv-x="537" 
d="M307 410h-84v106h84v-106zM484 29q0 -53 -15.5 -96.5t-44 -74.5t-71 -47.5t-96.5 -16.5q-42 0 -78.5 12.5t-64.5 36.5t-44 58t-16 78q0 56 24.5 95t62.5 75q32 32 50 49t27 34.5t12 41.5t4 70h63q1 -46 -5 -77.5t-20 -56t-36.5 -47.5t-53.5 -52q-28 -26 -46.5 -58
t-18.5 -71q0 -30 11.5 -55t31 -42.5t45.5 -27.5t55 -10q41 0 71.5 14t50.5 38.5t30 57.5t9 72h63z" />
    <glyph glyph-name="Agrave" unicode="&#xc0;" horiz-adv-x="630" 
d="M173 280h281l-138 366zM281 714h76l280 -714h-73l-87 222h-325l-86 -222h-73zM175 919h78l105 -141h-51z" />
    <glyph glyph-name="Aacute" unicode="&#xc1;" horiz-adv-x="630" 
d="M173 280h281l-138 366zM281 714h76l280 -714h-73l-87 222h-325l-86 -222h-73zM332 780h-51l105 141h78z" />
    <glyph glyph-name="Acircumflex" unicode="&#xc2;" horiz-adv-x="630" 
d="M173 280h281l-138 366zM281 714h76l280 -714h-73l-87 222h-325l-86 -222h-73zM465 779h-65l-86 102l-88 -102h-58l114 141h69z" />
    <glyph glyph-name="Atilde" unicode="&#xc3;" horiz-adv-x="630" 
d="M173 280h281l-138 366zM281 714h76l280 -714h-73l-87 222h-325l-86 -222h-73zM474 900q-3 -17 -9.5 -34t-17 -30.5t-26 -22t-34.5 -8.5q-20 0 -39 7t-36 16t-32.5 16t-30.5 7q-20 0 -32 -13t-18 -38h-39q2 18 9 35t18 30.5t26.5 22t35.5 8.5q22 0 40 -7t35 -16t31.5 -15
t28.5 -6q23 0 34.5 14t17.5 34h38z" />
    <glyph glyph-name="Adieresis" unicode="&#xc4;" horiz-adv-x="630" 
d="M173 280h281l-138 366zM281 714h76l280 -714h-73l-87 222h-325l-86 -222h-73zM194 800v101h68v-101h-68zM371 800v101h68v-101h-68z" />
    <glyph glyph-name="Aring" unicode="&#xc5;" horiz-adv-x="630" 
d="M173 280h281l-138 366zM281 714h76l280 -714h-73l-87 222h-325l-86 -222h-73zM250 860q0 -29 19.5 -48.5t48.5 -19.5t48.5 19.5t19.5 48.5t-19.5 48.5t-48.5 19.5t-48.5 -19.5t-19.5 -48.5zM211 860q0 22 8.5 41.5t23 34t34 23t41.5 8.5t41.5 -8.5t34 -23t23 -34
t8.5 -41.5t-8.5 -41.5t-23 -34t-34 -23t-41.5 -8.5t-41.5 8.5t-34 23t-23 34t-8.5 41.5z" />
    <glyph glyph-name="AE" unicode="&#xc6;" horiz-adv-x="907" 
d="M445 284v372h-40l-189 -372h229zM513 58h371v-58h-439v226h-259l-116 -226h-77l374 714h513v-58h-367v-258h344v-58h-344v-282z" />
    <glyph glyph-name="Ccedilla" unicode="&#xc7;" horiz-adv-x="704" 
d="M594 498q-9 41 -29.5 73.5t-50 54.5t-65 33.5t-74.5 11.5q-71 0 -122 -27t-83.5 -71.5t-48 -101t-15.5 -114.5q0 -59 15.5 -115t48 -100.5t83.5 -71.5t122 -27q49 0 89.5 18t69.5 49t47 72.5t23 89.5h68q-7 -66 -31 -119t-62 -90.5t-89.5 -57.5t-114.5 -20h-1l-32 -39
q14 3 25.5 3.5t24.5 -1t28 -8t26.5 -20.5t11.5 -37t-10 -39t-26 -26.5t-35.5 -15.5t-38.5 -5q-24 0 -48 5t-46 16l14 32q13 -5 35 -9.5t44 -4.5q21 0 37 10t16 33q0 18 -13 28t-30 10q-35 0 -51 -8l-16 15l50 63q-63 5 -113 28q-63 31 -105 82.5t-63 119t-21 140.5t21 140.5
t63 119t105.5 82t147.5 30.5q51 0 99.5 -15t88 -44.5t66 -72.5t33.5 -99h-68z" />
    <glyph glyph-name="Egrave" unicode="&#xc8;" horiz-adv-x="593" 
d="M72 714h493v-58h-425v-258h398v-58h-398v-282h430v-58h-498v714zM184 919h78l105 -141h-51z" />
    <glyph glyph-name="Eacute" unicode="&#xc9;" horiz-adv-x="593" 
d="M72 714h493v-58h-425v-258h398v-58h-398v-282h430v-58h-498v714zM331 780h-51l105 141h78z" />
    <glyph glyph-name="Ecircumflex" unicode="&#xca;" horiz-adv-x="593" 
d="M72 714h493v-58h-425v-258h398v-58h-398v-282h430v-58h-498v714zM469 779h-65l-86 102l-88 -102h-58l114 141h69z" />
    <glyph glyph-name="Edieresis" unicode="&#xcb;" horiz-adv-x="593" 
d="M72 714h493v-58h-425v-258h398v-58h-398v-282h430v-58h-498v714zM195 800v101h68v-101h-68zM372 800v101h68v-101h-68z" />
    <glyph glyph-name="Igrave" unicode="&#xcc;" horiz-adv-x="222" 
d="M77 714h68v-714h-68v714zM-37 919h78l105 -141h-51z" />
    <glyph glyph-name="Iacute" unicode="&#xcd;" horiz-adv-x="222" 
d="M77 714h68v-714h-68v714zM128 780h-51l105 141h78z" />
    <glyph glyph-name="Icircumflex" unicode="&#xce;" horiz-adv-x="222" 
d="M77 714h68v-714h-68v714zM260 779h-65l-86 102l-88 -102h-58l114 141h69z" />
    <glyph glyph-name="Idieresis" unicode="&#xcf;" horiz-adv-x="222" 
d="M77 714h68v-714h-68v714zM-11 800v101h68v-101h-68zM166 800v101h68v-101h-68z" />
    <glyph glyph-name="Eth" unicode="&#xd0;" horiz-adv-x="685" 
d="M72 714h247q162 -4 245 -92t83 -265t-83 -265t-245 -92h-247v348h-72v45h72v321zM140 393h236v-45h-236v-290h145q77 0 132.5 16.5t91.5 52.5t53 93t17 137t-17 137t-53 93t-91.5 52.5t-132.5 16.5h-145v-263z" />
    <glyph glyph-name="Ntilde" unicode="&#xd1;" horiz-adv-x="704" 
d="M71 714h76l416 -604h2v604h68v-714h-76l-416 604h-2v-604h-68v714zM516 900q-3 -17 -9.5 -34t-17 -30.5t-26 -22t-34.5 -8.5q-20 0 -39 7t-36 16t-32.5 16t-30.5 7q-20 0 -32 -13t-18 -38h-39q2 18 9 35t18 30.5t26.5 22t35.5 8.5q22 0 40 -7t35 -16t31.5 -15t28.5 -6
q23 0 34.5 14t17.5 34h38z" />
    <glyph glyph-name="Ograve" unicode="&#xd2;" horiz-adv-x="741" 
d="M102 357q0 -59 15.5 -115t48 -100.5t83.5 -71.5t122 -27q70 0 121 27t83.5 71.5t48 100.5t15.5 115q0 58 -15.5 114.5t-48 101t-83.5 71.5t-121 27q-71 0 -122 -27t-83.5 -71.5t-48 -101t-15.5 -114.5zM34 357q0 73 21 140.5t63 119t105.5 82t147.5 30.5t147 -30.5
t105 -82t63 -119t21 -140.5t-21 -140.5t-63 -119t-105 -82t-147 -30.5t-147.5 30.5t-105.5 82t-63 119t-21 140.5zM239 919h78l105 -141h-51z" />
    <glyph glyph-name="Oacute" unicode="&#xd3;" horiz-adv-x="741" 
d="M102 357q0 -59 15.5 -115t48 -100.5t83.5 -71.5t122 -27q70 0 121 27t83.5 71.5t48 100.5t15.5 115q0 58 -15.5 114.5t-48 101t-83.5 71.5t-121 27q-71 0 -122 -27t-83.5 -71.5t-48 -101t-15.5 -114.5zM34 357q0 73 21 140.5t63 119t105.5 82t147.5 30.5t147 -30.5
t105 -82t63 -119t21 -140.5t-21 -140.5t-63 -119t-105 -82t-147 -30.5t-147.5 30.5t-105.5 82t-63 119t-21 140.5zM396 780h-51l105 141h78z" />
    <glyph glyph-name="Ocircumflex" unicode="&#xd4;" horiz-adv-x="741" 
d="M102 357q0 -59 15.5 -115t48 -100.5t83.5 -71.5t122 -27q70 0 121 27t83.5 71.5t48 100.5t15.5 115q0 58 -15.5 114.5t-48 101t-83.5 71.5t-121 27q-71 0 -122 -27t-83.5 -71.5t-48 -101t-15.5 -114.5zM34 357q0 73 21 140.5t63 119t105.5 82t147.5 30.5t147 -30.5
t105 -82t63 -119t21 -140.5t-21 -140.5t-63 -119t-105 -82t-147 -30.5t-147.5 30.5t-105.5 82t-63 119t-21 140.5zM521 779h-65l-86 102l-88 -102h-58l114 141h69z" />
    <glyph glyph-name="Otilde" unicode="&#xd5;" horiz-adv-x="741" 
d="M102 357q0 -59 15.5 -115t48 -100.5t83.5 -71.5t122 -27q70 0 121 27t83.5 71.5t48 100.5t15.5 115q0 58 -15.5 114.5t-48 101t-83.5 71.5t-121 27q-71 0 -122 -27t-83.5 -71.5t-48 -101t-15.5 -114.5zM34 357q0 73 21 140.5t63 119t105.5 82t147.5 30.5t147 -30.5
t105 -82t63 -119t21 -140.5t-21 -140.5t-63 -119t-105 -82t-147 -30.5t-147.5 30.5t-105.5 82t-63 119t-21 140.5zM529 900q-3 -17 -9.5 -34t-17 -30.5t-26 -22t-34.5 -8.5q-20 0 -39 7t-36 16t-32.5 16t-30.5 7q-20 0 -32 -13t-18 -38h-39q2 18 9 35t18 30.5t26.5 22
t35.5 8.5q22 0 40 -7t35 -16t31.5 -15t28.5 -6q23 0 34.5 14t17.5 34h38z" />
    <glyph glyph-name="Odieresis" unicode="&#xd6;" horiz-adv-x="741" 
d="M102 357q0 -59 15.5 -115t48 -100.5t83.5 -71.5t122 -27q70 0 121 27t83.5 71.5t48 100.5t15.5 115q0 58 -15.5 114.5t-48 101t-83.5 71.5t-121 27q-71 0 -122 -27t-83.5 -71.5t-48 -101t-15.5 -114.5zM34 357q0 73 21 140.5t63 119t105.5 82t147.5 30.5t147 -30.5
t105 -82t63 -119t21 -140.5t-21 -140.5t-63 -119t-105 -82t-147 -30.5t-147.5 30.5t-105.5 82t-63 119t-21 140.5zM246 800v101h68v-101h-68zM423 800v101h68v-101h-68z" />
    <glyph glyph-name="multiply" unicode="&#xd7;" horiz-adv-x="600" 
d="M74 440l37 37l189 -189l189 189l37 -37l-189 -189l189 -189l-37 -37l-189 188l-189 -188l-37 37l188 189z" />
    <glyph glyph-name="Oslash" unicode="&#xd8;" horiz-adv-x="741" 
d="M698 696l-73 -81q42 -51 62 -118t20 -140t-21 -140.5t-63 -119t-105 -82t-147 -30.5q-75 0 -132 23.5t-99 65.5l-76 -86l-27 25l79 88q-42 52 -62 118t-20 138q0 73 21 140.5t63 119t105.5 82t147.5 30.5q74 0 131 -23.5t99 -64.5l71 78zM558 593q-32 35 -78.5 56.5
t-108.5 21.5q-71 0 -122 -27t-83.5 -71.5t-48 -101t-15.5 -114.5q0 -57 14 -110.5t44 -96.5zM183 122q33 -37 79.5 -58t108.5 -21q70 0 121 27t83.5 71.5t48 100.5t15.5 115q0 57 -14 111t-45 97z" />
    <glyph glyph-name="Ugrave" unicode="&#xd9;" horiz-adv-x="685" 
d="M65 714h68v-442q0 -62 14 -105.5t41 -71t66 -40t88 -12.5t88.5 12.5t66.5 40t41 71t14 105.5v442h68v-457q0 -55 -15.5 -104.5t-49 -86.5t-86 -59t-127.5 -22q-74 0 -126.5 22t-86 59t-49 86.5t-15.5 104.5v457zM214 919h78l105 -141h-51z" />
    <glyph glyph-name="Uacute" unicode="&#xda;" horiz-adv-x="685" 
d="M65 714h68v-442q0 -62 14 -105.5t41 -71t66 -40t88 -12.5t88.5 12.5t66.5 40t41 71t14 105.5v442h68v-457q0 -55 -15.5 -104.5t-49 -86.5t-86 -59t-127.5 -22q-74 0 -126.5 22t-86 59t-49 86.5t-15.5 104.5v457zM365 780h-51l105 141h78z" />
    <glyph glyph-name="Ucircumflex" unicode="&#xdb;" horiz-adv-x="685" 
d="M65 714h68v-442q0 -62 14 -105.5t41 -71t66 -40t88 -12.5t88.5 12.5t66.5 40t41 71t14 105.5v442h68v-457q0 -55 -15.5 -104.5t-49 -86.5t-86 -59t-127.5 -22q-74 0 -126.5 22t-86 59t-49 86.5t-15.5 104.5v457zM491 779h-65l-86 102l-88 -102h-58l114 141h69z" />
    <glyph glyph-name="Udieresis" unicode="&#xdc;" horiz-adv-x="685" 
d="M65 714h68v-442q0 -62 14 -105.5t41 -71t66 -40t88 -12.5t88.5 12.5t66.5 40t41 71t14 105.5v442h68v-457q0 -55 -15.5 -104.5t-49 -86.5t-86 -59t-127.5 -22q-74 0 -126.5 22t-86 59t-49 86.5t-15.5 104.5v457zM220 800v101h68v-101h-68zM397 800v101h68v-101h-68z" />
    <glyph glyph-name="Yacute" unicode="&#xdd;" horiz-adv-x="611" 
d="M271 294l-281 420h81l235 -362l234 362h81l-282 -420v-294h-68v294zM329 780h-51l105 141h78z" />
    <glyph glyph-name="Thorn" unicode="&#xde;" horiz-adv-x="630" 
d="M140 247h234q71 0 115 36t44 110t-44 110t-115 36h-234v-292zM72 714h68v-117h249q48 0 87 -13.5t67 -40t43 -64.5t15 -86t-15 -86t-43 -64.5t-67 -40t-87 -13.5h-249v-189h-68v714z" />
    <glyph glyph-name="germandbls" unicode="&#xdf;" horiz-adv-x="537" 
d="M61 535q0 49 14.5 85.5t40.5 60.5t62.5 36t81.5 12q40 0 75.5 -11.5t62.5 -34t42.5 -55t15.5 -75.5q0 -27 -7.5 -51.5t-22 -44.5t-35.5 -34t-48 -20v-2q36 -3 64 -19.5t47 -42t28.5 -57.5t9.5 -66q0 -56 -17 -97t-46.5 -69t-70 -42.5t-88.5 -15.5h-25q-12 0 -25 2v55
q12 -2 23.5 -3t23.5 -1q31 0 60 8.5t51.5 28t36.5 50t14 73.5q0 52 -15.5 84t-43 49.5t-66 23.5t-84.5 6v53q33 0 64 6t55.5 20.5t39 39.5t14.5 64q0 28 -10.5 51t-28.5 39.5t-42 25.5t-51 9q-75 0 -106 -37.5t-31 -108.5v-530h-63v535z" />
    <glyph glyph-name="agrave" unicode="&#xe0;" horiz-adv-x="519" 
d="M54 358q5 91 62.5 132t146.5 41q34 0 68 -6.5t61 -24.5t44 -50.5t17 -84.5v-274q0 -38 37 -38q10 0 20 4v-53q-11 -2 -19.5 -3t-21.5 -1q-24 0 -38.5 6.5t-22.5 18.5t-10.5 28.5t-2.5 36.5h-2q-17 -25 -34.5 -44.5t-39 -33t-49.5 -20.5t-65 -7q-36 0 -67.5 9t-55 27.5
t-37 47t-13.5 67.5q0 54 24 84.5t63.5 46.5t89 22.5t100.5 12.5q19 2 34.5 5.5t25.5 10.5t15.5 20t5.5 34q0 32 -10.5 52.5t-29 32.5t-43 16.5t-52.5 4.5q-59 0 -97.5 -28.5t-40.5 -91.5h-63zM390 282h-2q-6 -11 -23 -16t-30 -7q-40 -7 -82.5 -12.5t-77.5 -16.5t-57.5 -31.5
t-22.5 -58.5q0 -24 9.5 -42.5t25.5 -32t37 -20.5t43 -7q36 0 69 11t57.5 32t39 51t14.5 68v82zM126 729h78l105 -141h-51z" />
    <glyph glyph-name="aacute" unicode="&#xe1;" horiz-adv-x="519" 
d="M54 358q5 91 62.5 132t146.5 41q34 0 68 -6.5t61 -24.5t44 -50.5t17 -84.5v-274q0 -38 37 -38q10 0 20 4v-53q-11 -2 -19.5 -3t-21.5 -1q-24 0 -38.5 6.5t-22.5 18.5t-10.5 28.5t-2.5 36.5h-2q-17 -25 -34.5 -44.5t-39 -33t-49.5 -20.5t-65 -7q-36 0 -67.5 9t-55 27.5
t-37 47t-13.5 67.5q0 54 24 84.5t63.5 46.5t89 22.5t100.5 12.5q19 2 34.5 5.5t25.5 10.5t15.5 20t5.5 34q0 32 -10.5 52.5t-29 32.5t-43 16.5t-52.5 4.5q-59 0 -97.5 -28.5t-40.5 -91.5h-63zM390 282h-2q-6 -11 -23 -16t-30 -7q-40 -7 -82.5 -12.5t-77.5 -16.5t-57.5 -31.5
t-22.5 -58.5q0 -24 9.5 -42.5t25.5 -32t37 -20.5t43 -7q36 0 69 11t57.5 32t39 51t14.5 68v82zM278 590h-51l105 141h78z" />
    <glyph glyph-name="acircumflex" unicode="&#xe2;" horiz-adv-x="519" 
d="M54 358q5 91 62.5 132t146.5 41q34 0 68 -6.5t61 -24.5t44 -50.5t17 -84.5v-274q0 -38 37 -38q10 0 20 4v-53q-11 -2 -19.5 -3t-21.5 -1q-24 0 -38.5 6.5t-22.5 18.5t-10.5 28.5t-2.5 36.5h-2q-17 -25 -34.5 -44.5t-39 -33t-49.5 -20.5t-65 -7q-36 0 -67.5 9t-55 27.5
t-37 47t-13.5 67.5q0 54 24 84.5t63.5 46.5t89 22.5t100.5 12.5q19 2 34.5 5.5t25.5 10.5t15.5 20t5.5 34q0 32 -10.5 52.5t-29 32.5t-43 16.5t-52.5 4.5q-59 0 -97.5 -28.5t-40.5 -91.5h-63zM390 282h-2q-6 -11 -23 -16t-30 -7q-40 -7 -82.5 -12.5t-77.5 -16.5t-57.5 -31.5
t-22.5 -58.5q0 -24 9.5 -42.5t25.5 -32t37 -20.5t43 -7q36 0 69 11t57.5 32t39 51t14.5 68v82zM408 589h-65l-86 102l-88 -102h-58l114 141h69z" />
    <glyph glyph-name="atilde" unicode="&#xe3;" horiz-adv-x="519" 
d="M54 358q5 91 62.5 132t146.5 41q34 0 68 -6.5t61 -24.5t44 -50.5t17 -84.5v-274q0 -38 37 -38q10 0 20 4v-53q-11 -2 -19.5 -3t-21.5 -1q-24 0 -38.5 6.5t-22.5 18.5t-10.5 28.5t-2.5 36.5h-2q-17 -25 -34.5 -44.5t-39 -33t-49.5 -20.5t-65 -7q-36 0 -67.5 9t-55 27.5
t-37 47t-13.5 67.5q0 54 24 84.5t63.5 46.5t89 22.5t100.5 12.5q19 2 34.5 5.5t25.5 10.5t15.5 20t5.5 34q0 32 -10.5 52.5t-29 32.5t-43 16.5t-52.5 4.5q-59 0 -97.5 -28.5t-40.5 -91.5h-63zM390 282h-2q-6 -11 -23 -16t-30 -7q-40 -7 -82.5 -12.5t-77.5 -16.5t-57.5 -31.5
t-22.5 -58.5q0 -24 9.5 -42.5t25.5 -32t37 -20.5t43 -7q36 0 69 11t57.5 32t39 51t14.5 68v82zM415 710q-3 -17 -9.5 -34t-17 -30.5t-26 -22t-34.5 -8.5q-20 0 -39 7t-36 16t-32.5 16t-30.5 7q-20 0 -32 -13t-18 -38h-39q2 18 9 35t18 30.5t26.5 22t35.5 8.5q22 0 40 -7
t35 -16t31.5 -15t28.5 -6q23 0 34.5 14t17.5 34h38z" />
    <glyph glyph-name="adieresis" unicode="&#xe4;" horiz-adv-x="519" 
d="M54 358q5 91 62.5 132t146.5 41q34 0 68 -6.5t61 -24.5t44 -50.5t17 -84.5v-274q0 -38 37 -38q10 0 20 4v-53q-11 -2 -19.5 -3t-21.5 -1q-24 0 -38.5 6.5t-22.5 18.5t-10.5 28.5t-2.5 36.5h-2q-17 -25 -34.5 -44.5t-39 -33t-49.5 -20.5t-65 -7q-36 0 -67.5 9t-55 27.5
t-37 47t-13.5 67.5q0 54 24 84.5t63.5 46.5t89 22.5t100.5 12.5q19 2 34.5 5.5t25.5 10.5t15.5 20t5.5 34q0 32 -10.5 52.5t-29 32.5t-43 16.5t-52.5 4.5q-59 0 -97.5 -28.5t-40.5 -91.5h-63zM390 282h-2q-6 -11 -23 -16t-30 -7q-40 -7 -82.5 -12.5t-77.5 -16.5t-57.5 -31.5
t-22.5 -58.5q0 -24 9.5 -42.5t25.5 -32t37 -20.5t43 -7q36 0 69 11t57.5 32t39 51t14.5 68v82zM136 610v101h68v-101h-68zM313 610v101h68v-101h-68z" />
    <glyph glyph-name="aring" unicode="&#xe5;" horiz-adv-x="519" 
d="M54 358q5 91 62.5 132t146.5 41q34 0 68 -6.5t61 -24.5t44 -50.5t17 -84.5v-274q0 -38 37 -38q10 0 20 4v-53q-11 -2 -19.5 -3t-21.5 -1q-24 0 -38.5 6.5t-22.5 18.5t-10.5 28.5t-2.5 36.5h-2q-17 -25 -34.5 -44.5t-39 -33t-49.5 -20.5t-65 -7q-36 0 -67.5 9t-55 27.5
t-37 47t-13.5 67.5q0 54 24 84.5t63.5 46.5t89 22.5t100.5 12.5q19 2 34.5 5.5t25.5 10.5t15.5 20t5.5 34q0 32 -10.5 52.5t-29 32.5t-43 16.5t-52.5 4.5q-59 0 -97.5 -28.5t-40.5 -91.5h-63zM390 282h-2q-6 -11 -23 -16t-30 -7q-40 -7 -82.5 -12.5t-77.5 -16.5t-57.5 -31.5
t-22.5 -58.5q0 -24 9.5 -42.5t25.5 -32t37 -20.5t43 -7q36 0 69 11t57.5 32t39 51t14.5 68v82zM189 680q0 -29 19.5 -48.5t48.5 -19.5t48.5 19.5t19.5 48.5t-19.5 48.5t-48.5 19.5t-48.5 -19.5t-19.5 -48.5zM150 680q0 22 8.5 41.5t23 34t34 23t41.5 8.5t41.5 -8.5t34 -23
t23 -34t8.5 -41.5t-8.5 -41.5t-23 -34t-34 -23t-41.5 -8.5t-41.5 8.5t-34 23t-23 34t-8.5 41.5z" />
    <glyph glyph-name="ae" unicode="&#xe6;" horiz-adv-x="870" 
d="M453 241q-3 -41 6 -78t30 -65t54 -44t78 -16q64 0 101.5 34t51.5 95h63q-20 -87 -77.5 -134.5t-147.5 -47.5q-69 0 -117.5 32.5t-71.5 97.5h-2q-6 -32 -27.5 -56.5t-52.5 -41t-66.5 -24.5t-69.5 -8q-36 0 -67.5 9t-55 27.5t-37 47t-13.5 67.5q0 54 24 84.5t63.5 46.5
t89 22.5t100.5 12.5q19 2 34.5 5.5t25.5 10.5t15.5 20t5.5 34q0 32 -10.5 52.5t-29 32.5t-43 16.5t-52.5 4.5q-59 0 -97.5 -28.5t-40.5 -91.5h-63q5 91 62.5 132t146.5 41q26 0 54.5 -4.5t53 -16t42 -32.5t22.5 -54h2q10 27 29.5 47t43.5 33.5t52 20t56 6.5q64 0 106.5 -24
t68.5 -64.5t37 -93t11 -108.5h-388zM390 282h-2q-6 -11 -23 -16t-30 -7q-40 -7 -82.5 -12.5t-77.5 -16.5t-57.5 -31.5t-22.5 -58.5q0 -24 9.5 -42.5t25.5 -32t37 -20.5t43 -7q36 0 69 11t57.5 32t39 51t14.5 68v82zM778 294q0 36 -11.5 69t-32.5 58.5t-51.5 41t-67.5 15.5
q-39 0 -69.5 -15t-51.5 -40.5t-31.5 -59t-9.5 -69.5h325z" />
    <glyph glyph-name="ccedilla" unicode="&#xe7;" horiz-adv-x="519" 
d="M424 354q-13 58 -48.5 91t-97.5 33q-45 0 -79 -19t-56.5 -50t-34 -70.5t-11.5 -80.5t11.5 -80.5t34 -70.5t56.5 -50t79 -19q29 0 55 11t46 30.5t33 46.5t16 59h63q-13 -94 -70 -147q-55 -51 -138 -53l-32 -39q14 3 25.5 3.5t24.5 -1t28 -8t26.5 -20.5t11.5 -37t-10 -39
t-26 -26.5t-35.5 -15.5t-38.5 -5q-24 0 -48 5t-46 16l14 32q13 -5 35 -9.5t44 -4.5q21 0 37 10t16 33q0 18 -13 28t-30 10q-35 0 -51 -8l-16 15l50 63q-42 4 -76 20q-45 22 -76 59t-47 86.5t-16 105.5q0 55 16 105t47 87t76.5 59t104.5 22q83 0 140.5 -44t68.5 -133h-63z
" />
    <glyph glyph-name="egrave" unicode="&#xe8;" horiz-adv-x="519" 
d="M431 294q-1 36 -12.5 69t-32.5 58.5t-51 41t-68 15.5q-39 0 -69 -15.5t-51 -41t-33.5 -59t-16.5 -68.5h334zM97 241q0 -35 10 -71t30 -65t52.5 -48t77.5 -19q69 0 108 36.5t54 95.5h63q-20 -88 -73.5 -136.5t-151.5 -48.5q-62 0 -106 22t-72 59.5t-41.5 87t-13.5 104.5
q0 51 13.5 100t41.5 87.5t72 62t106 23.5t106 -25t71.5 -65.5t39.5 -93t10 -106.5h-397zM133 729h78l105 -141h-51z" />
    <glyph glyph-name="eacute" unicode="&#xe9;" horiz-adv-x="519" 
d="M431 294q-1 36 -12.5 69t-32.5 58.5t-51 41t-68 15.5q-39 0 -69 -15.5t-51 -41t-33.5 -59t-16.5 -68.5h334zM97 241q0 -35 10 -71t30 -65t52.5 -48t77.5 -19q69 0 108 36.5t54 95.5h63q-20 -88 -73.5 -136.5t-151.5 -48.5q-62 0 -106 22t-72 59.5t-41.5 87t-13.5 104.5
q0 51 13.5 100t41.5 87.5t72 62t106 23.5t106 -25t71.5 -65.5t39.5 -93t10 -106.5h-397zM285 590h-51l105 141h78z" />
    <glyph glyph-name="ecircumflex" unicode="&#xea;" horiz-adv-x="519" 
d="M431 294q-1 36 -12.5 69t-32.5 58.5t-51 41t-68 15.5q-39 0 -69 -15.5t-51 -41t-33.5 -59t-16.5 -68.5h334zM97 241q0 -35 10 -71t30 -65t52.5 -48t77.5 -19q69 0 108 36.5t54 95.5h63q-20 -88 -73.5 -136.5t-151.5 -48.5q-62 0 -106 22t-72 59.5t-41.5 87t-13.5 104.5
q0 51 13.5 100t41.5 87.5t72 62t106 23.5t106 -25t71.5 -65.5t39.5 -93t10 -106.5h-397zM417 589h-65l-86 102l-88 -102h-58l114 141h69z" />
    <glyph glyph-name="edieresis" unicode="&#xeb;" horiz-adv-x="519" 
d="M431 294q-1 36 -12.5 69t-32.5 58.5t-51 41t-68 15.5q-39 0 -69 -15.5t-51 -41t-33.5 -59t-16.5 -68.5h334zM97 241q0 -35 10 -71t30 -65t52.5 -48t77.5 -19q69 0 108 36.5t54 95.5h63q-20 -88 -73.5 -136.5t-151.5 -48.5q-62 0 -106 22t-72 59.5t-41.5 87t-13.5 104.5
q0 51 13.5 100t41.5 87.5t72 62t106 23.5t106 -25t71.5 -65.5t39.5 -93t10 -106.5h-397zM146 610v101h68v-101h-68zM323 610v101h68v-101h-68z" />
    <glyph glyph-name="igrave" unicode="&#xec;" 
d="M61 0v516h63v-516h-63zM-57 729h78l105 -141h-51z" />
    <glyph glyph-name="iacute" unicode="&#xed;" 
d="M61 0v516h63v-516h-63zM110 590h-51l105 141h78z" />
    <glyph glyph-name="icircumflex" unicode="&#xee;" 
d="M61 0v516h63v-516h-63zM243 589h-65l-86 102l-88 -102h-58l114 141h69z" />
    <glyph glyph-name="idieresis" unicode="&#xef;" 
d="M61 0v516h63v-516h-63zM-29 610v101h68v-101h-68zM148 610v101h68v-101h-68z" />
    <glyph glyph-name="eth" unicode="&#xf0;" horiz-adv-x="556" 
d="M235 652q-23 15 -46 29t-47 26l36 35q26 -14 52.5 -29.5t51.5 -34.5l114 64l33 -32l-109 -61q42 -34 77.5 -75t62 -89.5t41.5 -105t15 -121.5q0 -56 -15 -106t-45 -87t-76 -58.5t-109 -21.5q-60 0 -105 20.5t-74 56t-43.5 83.5t-14.5 104q0 52 15.5 98.5t46 82t74.5 56
t101 20.5q37 0 74 -8.5t59 -31.5h2q-25 47 -58.5 85.5t-74.5 71.5l-105 -59l-33 32zM276 453q-48 0 -82 -16.5t-55.5 -44.5t-31.5 -65.5t-10 -78.5t10 -79t31.5 -67t55 -46.5t80.5 -17.5q44 0 77.5 15.5t56 44t34 67t11.5 85.5q0 37 -10 73.5t-31 65.5t-54.5 46.5
t-81.5 17.5z" />
    <glyph glyph-name="ntilde" unicode="&#xf1;" horiz-adv-x="537" 
d="M59 516h63v-89h2q9 23 25.5 42.5t38.5 33t48 21t53 7.5q54 0 90.5 -14t58.5 -39.5t31 -62.5t9 -83v-332h-63v322q0 33 -6 61.5t-21 49.5t-40.5 33t-63.5 12t-67.5 -13.5t-50.5 -37t-32 -56t-12 -70.5v-301h-63v516zM425 710q-3 -17 -9.5 -34t-17 -30.5t-26 -22
t-34.5 -8.5q-20 0 -39 7t-36 16t-32.5 16t-30.5 7q-20 0 -32 -13t-18 -38h-39q2 18 9 35t18 30.5t26.5 22t35.5 8.5q22 0 40 -7t35 -16t31.5 -15t28.5 -6q23 0 34.5 14t17.5 34h38z" />
    <glyph glyph-name="ograve" unicode="&#xf2;" horiz-adv-x="556" 
d="M278 478q-45 0 -79 -19t-56.5 -50t-34 -70.5t-11.5 -80.5t11.5 -80.5t34 -70.5t56.5 -50t79 -19t79 19t56.5 50t34 70.5t11.5 80.5t-11.5 80.5t-34 70.5t-56.5 50t-79 19zM278 531q59 0 104.5 -22t76.5 -59t47 -87t16 -105q0 -56 -16 -105.5t-47 -86.5t-76.5 -59
t-104.5 -22t-104.5 22t-76.5 59t-47 86.5t-16 105.5q0 55 16 105t47 87t76.5 59t104.5 22zM146 729h78l105 -141h-51z" />
    <glyph glyph-name="oacute" unicode="&#xf3;" horiz-adv-x="556" 
d="M278 478q-45 0 -79 -19t-56.5 -50t-34 -70.5t-11.5 -80.5t11.5 -80.5t34 -70.5t56.5 -50t79 -19t79 19t56.5 50t34 70.5t11.5 80.5t-11.5 80.5t-34 70.5t-56.5 50t-79 19zM278 531q59 0 104.5 -22t76.5 -59t47 -87t16 -105q0 -56 -16 -105.5t-47 -86.5t-76.5 -59
t-104.5 -22t-104.5 22t-76.5 59t-47 86.5t-16 105.5q0 55 16 105t47 87t76.5 59t104.5 22zM299 590h-51l105 141h78z" />
    <glyph glyph-name="ocircumflex" unicode="&#xf4;" horiz-adv-x="556" 
d="M278 478q-45 0 -79 -19t-56.5 -50t-34 -70.5t-11.5 -80.5t11.5 -80.5t34 -70.5t56.5 -50t79 -19t79 19t56.5 50t34 70.5t11.5 80.5t-11.5 80.5t-34 70.5t-56.5 50t-79 19zM278 531q59 0 104.5 -22t76.5 -59t47 -87t16 -105q0 -56 -16 -105.5t-47 -86.5t-76.5 -59
t-104.5 -22t-104.5 22t-76.5 59t-47 86.5t-16 105.5q0 55 16 105t47 87t76.5 59t104.5 22zM428 589h-65l-86 102l-88 -102h-58l114 141h69z" />
    <glyph glyph-name="otilde" unicode="&#xf5;" horiz-adv-x="556" 
d="M278 478q-45 0 -79 -19t-56.5 -50t-34 -70.5t-11.5 -80.5t11.5 -80.5t34 -70.5t56.5 -50t79 -19t79 19t56.5 50t34 70.5t11.5 80.5t-11.5 80.5t-34 70.5t-56.5 50t-79 19zM278 531q59 0 104.5 -22t76.5 -59t47 -87t16 -105q0 -56 -16 -105.5t-47 -86.5t-76.5 -59
t-104.5 -22t-104.5 22t-76.5 59t-47 86.5t-16 105.5q0 55 16 105t47 87t76.5 59t104.5 22zM437 710q-3 -17 -9.5 -34t-17 -30.5t-26 -22t-34.5 -8.5q-20 0 -39 7t-36 16t-32.5 16t-30.5 7q-20 0 -32 -13t-18 -38h-39q2 18 9 35t18 30.5t26.5 22t35.5 8.5q22 0 40 -7t35 -16
t31.5 -15t28.5 -6q23 0 34.5 14t17.5 34h38z" />
    <glyph glyph-name="odieresis" unicode="&#xf6;" horiz-adv-x="556" 
d="M278 478q-45 0 -79 -19t-56.5 -50t-34 -70.5t-11.5 -80.5t11.5 -80.5t34 -70.5t56.5 -50t79 -19t79 19t56.5 50t34 70.5t11.5 80.5t-11.5 80.5t-34 70.5t-56.5 50t-79 19zM278 531q59 0 104.5 -22t76.5 -59t47 -87t16 -105q0 -56 -16 -105.5t-47 -86.5t-76.5 -59
t-104.5 -22t-104.5 22t-76.5 59t-47 86.5t-16 105.5q0 55 16 105t47 87t76.5 59t104.5 22zM157 610v101h68v-101h-68zM334 610v101h68v-101h-68z" />
    <glyph glyph-name="divide" unicode="&#xf7;" horiz-adv-x="600" 
d="M244 50q0 23 16.5 39.5t39.5 16.5t39.5 -16.5t16.5 -39.5q0 -21 -16.5 -38.5t-38.5 -17.5q-23 0 -40 16.5t-17 39.5zM244 453q0 23 16.5 39.5t39.5 16.5t39.5 -16.5t16.5 -39.5q0 -21 -16.5 -38.5t-38.5 -17.5q-23 0 -40 16.5t-17 39.5zM49 225v53h503v-53h-503z" />
    <glyph glyph-name="oslash" unicode="&#xf8;" horiz-adv-x="556" 
d="M522 499l-54 -59q27 -38 40.5 -84.5t13.5 -97.5q0 -56 -16 -105.5t-47 -86.5t-76.5 -59t-104.5 -22q-54 0 -96 18t-72 50l-59 -64l-22 20l61 67q-28 36 -42 83t-14 99q0 55 16 105t47 87t76.5 59t104.5 22q54 0 97 -18t73 -50l52 56zM151 97q21 -26 53 -42.5t74 -16.5
q45 0 79 19t56.5 50t34 70.5t11.5 80.5q0 36 -8.5 70.5t-26.5 63.5zM406 418q-22 27 -54 43.5t-74 16.5q-45 0 -79 -19t-56.5 -50t-34 -70.5t-11.5 -80.5q0 -36 8.5 -70.5t27.5 -64.5z" />
    <glyph glyph-name="ugrave" unicode="&#xf9;" horiz-adv-x="537" 
d="M478 0h-58v93h-2q-25 -52 -72.5 -80t-105.5 -28q-49 0 -83.5 13.5t-56 39t-31.5 62t-10 81.5v335h63v-336q2 -70 32.5 -106t105.5 -36q40 0 69.5 17.5t48.5 46.5t28 66.5t9 76.5v271h63v-516zM142 729h78l105 -141h-51z" />
    <glyph glyph-name="uacute" unicode="&#xfa;" horiz-adv-x="537" 
d="M478 0h-58v93h-2q-25 -52 -72.5 -80t-105.5 -28q-49 0 -83.5 13.5t-56 39t-31.5 62t-10 81.5v335h63v-336q2 -70 32.5 -106t105.5 -36q40 0 69.5 17.5t48.5 46.5t28 66.5t9 76.5v271h63v-516zM290 590h-51l105 141h78z" />
    <glyph glyph-name="ucircumflex" unicode="&#xfb;" horiz-adv-x="537" 
d="M478 0h-58v93h-2q-25 -52 -72.5 -80t-105.5 -28q-49 0 -83.5 13.5t-56 39t-31.5 62t-10 81.5v335h63v-336q2 -70 32.5 -106t105.5 -36q40 0 69.5 17.5t48.5 46.5t28 66.5t9 76.5v271h63v-516zM417 589h-65l-86 102l-88 -102h-58l114 141h69z" />
    <glyph glyph-name="udieresis" unicode="&#xfc;" horiz-adv-x="537" 
d="M478 0h-58v93h-2q-25 -52 -72.5 -80t-105.5 -28q-49 0 -83.5 13.5t-56 39t-31.5 62t-10 81.5v335h63v-336q2 -70 32.5 -106t105.5 -36q40 0 69.5 17.5t48.5 46.5t28 66.5t9 76.5v271h63v-516zM146 610v101h68v-101h-68zM323 610v101h68v-101h-68z" />
    <glyph glyph-name="yacute" unicode="&#xfd;" horiz-adv-x="463" 
d="M2 516h67l170 -440l159 440h63l-224 -595q-14 -33 -25.5 -54.5t-26.5 -34t-34.5 -18t-49.5 -5.5q-19 1 -29.5 1.5t-18.5 3.5v53q11 -2 21.5 -3.5t21.5 -1.5q21 0 34.5 6t23.5 16.5t17 25.5t15 33l22 59zM262 590h-51l105 141h78z" />
    <glyph glyph-name="thorn" unicode="&#xfe;" horiz-adv-x="574" 
d="M60 714h63v-296h2q10 28 28.5 49t42.5 35t51.5 21.5t56.5 7.5q59 0 102.5 -22t72.5 -59.5t43 -87t14 -104.5t-14 -104.5t-43 -87t-72.5 -59.5t-102.5 -22q-29 0 -56.5 7t-51.5 21.5t-42.5 35.5t-28.5 49h-2v-289h-63v905zM473 258q0 40 -9.5 79.5t-30 70.5t-52.5 50.5
t-77 19.5q-50 0 -84.5 -19.5t-56 -50.5t-31 -70.5t-9.5 -79.5t9.5 -79.5t31 -70.5t56 -50.5t84.5 -19.5q45 0 77 19.5t52.5 50.5t30 70.5t9.5 79.5z" />
    <glyph glyph-name="ydieresis" unicode="&#xff;" horiz-adv-x="463" 
d="M2 516h67l170 -440l159 440h63l-224 -595q-14 -33 -25.5 -54.5t-26.5 -34t-34.5 -18t-49.5 -5.5q-19 1 -29.5 1.5t-18.5 3.5v53q11 -2 21.5 -3.5t21.5 -1.5q21 0 34.5 6t23.5 16.5t17 25.5t15 33l22 59zM117 610v101h68v-101h-68zM294 610v101h68v-101h-68z" />
    <glyph glyph-name="Amacron" unicode="&#x100;" horiz-adv-x="630" 
d="M173 280h281l-138 366zM281 714h76l280 -714h-73l-87 222h-325l-86 -222h-73zM151 828v45h329v-45h-329z" />
    <glyph glyph-name="amacron" unicode="&#x101;" horiz-adv-x="519" 
d="M54 358q5 91 62.5 132t146.5 41q34 0 68 -6.5t61 -24.5t44 -50.5t17 -84.5v-274q0 -38 37 -38q10 0 20 4v-53q-11 -2 -19.5 -3t-21.5 -1q-24 0 -38.5 6.5t-22.5 18.5t-10.5 28.5t-2.5 36.5h-2q-17 -25 -34.5 -44.5t-39 -33t-49.5 -20.5t-65 -7q-36 0 -67.5 9t-55 27.5
t-37 47t-13.5 67.5q0 54 24 84.5t63.5 46.5t89 22.5t100.5 12.5q19 2 34.5 5.5t25.5 10.5t15.5 20t5.5 34q0 32 -10.5 52.5t-29 32.5t-43 16.5t-52.5 4.5q-59 0 -97.5 -28.5t-40.5 -91.5h-63zM390 282h-2q-6 -11 -23 -16t-30 -7q-40 -7 -82.5 -12.5t-77.5 -16.5t-57.5 -31.5
t-22.5 -58.5q0 -24 9.5 -42.5t25.5 -32t37 -20.5t43 -7q36 0 69 11t57.5 32t39 51t14.5 68v82zM99 638v45h329v-45h-329z" />
    <glyph glyph-name="Abreve" unicode="&#x102;" horiz-adv-x="630" 
d="M173 280h281l-138 366zM281 714h76l280 -714h-73l-87 222h-325l-86 -222h-73zM214 914q1 -20 10.5 -35.5t23.5 -26t32 -15.5t37 -5t37 5.5t32.5 16t24 25.5t12.5 35h39q-8 -59 -46.5 -93t-98.5 -34q-61 0 -99 33t-43 94h39z" />
    <glyph glyph-name="abreve" unicode="&#x103;" horiz-adv-x="519" 
d="M54 358q5 91 62.5 132t146.5 41q34 0 68 -6.5t61 -24.5t44 -50.5t17 -84.5v-274q0 -38 37 -38q10 0 20 4v-53q-11 -2 -19.5 -3t-21.5 -1q-24 0 -38.5 6.5t-22.5 18.5t-10.5 28.5t-2.5 36.5h-2q-17 -25 -34.5 -44.5t-39 -33t-49.5 -20.5t-65 -7q-36 0 -67.5 9t-55 27.5
t-37 47t-13.5 67.5q0 54 24 84.5t63.5 46.5t89 22.5t100.5 12.5q19 2 34.5 5.5t25.5 10.5t15.5 20t5.5 34q0 32 -10.5 52.5t-29 32.5t-43 16.5t-52.5 4.5q-59 0 -97.5 -28.5t-40.5 -91.5h-63zM390 282h-2q-6 -11 -23 -16t-30 -7q-40 -7 -82.5 -12.5t-77.5 -16.5t-57.5 -31.5
t-22.5 -58.5q0 -24 9.5 -42.5t25.5 -32t37 -20.5t43 -7q36 0 69 11t57.5 32t39 51t14.5 68v82zM157 724q1 -20 10.5 -35.5t23.5 -26t32 -15.5t37 -5t37 5.5t32.5 16t24 25.5t12.5 35h39q-8 -59 -46.5 -93t-98.5 -34q-61 0 -99 33t-43 94h39z" />
    <glyph glyph-name="Aogonek" unicode="&#x104;" horiz-adv-x="630" 
d="M602 0q-27 -22 -44.5 -39.5t-25.5 -31.5t-10 -23.5t-2 -22.5q0 -24 13.5 -35.5t30.5 -11.5q19 0 33 12.5t22 28.5l29 -13q-17 -38 -41.5 -52.5t-56.5 -14.5q-44 0 -67.5 23t-23.5 59q0 8 3 19.5t12 25t30.5 33.5t59.5 43l-87 222h-325l-86 -222h-73l288 714h76l280 -714
h-35zM173 280h281l-138 366z" />
    <glyph glyph-name="aogonek" unicode="&#x105;" horiz-adv-x="519" 
d="M54 358q5 91 62.5 132t146.5 41q34 0 68 -6.5t61 -24.5t44 -50.5t17 -84.5v-274q0 -38 37 -38q10 0 20 4v-53q-11 -2 -19.5 -3t-21.5 -1h-4q-27 -22 -44.5 -39.5t-25.5 -31.5t-10 -23.5t-2 -22.5q0 -24 13.5 -35.5t30.5 -11.5q19 0 33 12.5t22 28.5l29 -13
q-17 -38 -41.5 -52.5t-56.5 -14.5q-44 0 -67.5 23t-23.5 59q0 8 3 19.5t12 25t30 33.5q20 19 66 48q-2 1 -3 1q-14 7 -22 19t-10.5 28.5t-2.5 36.5h-2q-17 -25 -34.5 -44.5t-39 -33t-49.5 -20.5t-65 -7q-36 0 -67.5 9t-55 27.5t-37 47t-13.5 67.5q0 54 24 84.5t63.5 46.5
t89 22.5t100.5 12.5q19 2 34.5 5.5t25.5 10.5t15.5 20t5.5 34q0 32 -10.5 52.5t-29 32.5t-43 16.5t-52.5 4.5q-59 0 -97.5 -28.5t-40.5 -91.5h-63zM390 282h-2q-6 -11 -23 -16t-30 -7q-40 -7 -82.5 -12.5t-77.5 -16.5t-57.5 -31.5t-22.5 -58.5q0 -24 9.5 -42.5t25.5 -32
t37 -20.5t43 -7q36 0 69 11t57.5 32t39 51t14.5 68v82z" />
    <glyph glyph-name="Cacute" unicode="&#x106;" horiz-adv-x="704" 
d="M594 498q-9 41 -29.5 73.5t-50 54.5t-65 33.5t-74.5 11.5q-71 0 -122 -27t-83.5 -71.5t-48 -101t-15.5 -114.5q0 -59 15.5 -115t48 -100.5t83.5 -71.5t122 -27q49 0 89.5 18t69.5 49t47 72.5t23 89.5h68q-7 -66 -31 -119t-62 -90.5t-89.5 -57.5t-114.5 -20
q-84 0 -147.5 30.5t-105.5 82t-63 119t-21 140.5t21 140.5t63 119t105.5 82t147.5 30.5q51 0 99.5 -15t88 -44.5t66 -72.5t33.5 -99h-68zM394 780h-51l105 141h78z" />
    <glyph glyph-name="cacute" unicode="&#x107;" horiz-adv-x="519" 
d="M424 354q-13 58 -48.5 91t-97.5 33q-45 0 -79 -19t-56.5 -50t-34 -70.5t-11.5 -80.5t11.5 -80.5t34 -70.5t56.5 -50t79 -19q29 0 55 11t46 30.5t33 46.5t16 59h63q-13 -94 -69.5 -147t-143.5 -53q-59 0 -104.5 22t-76.5 59t-47 86.5t-16 105.5q0 55 16 105t47 87t76.5 59
t104.5 22q83 0 140.5 -44t68.5 -133h-63zM297 590h-51l105 141h78z" />
    <glyph glyph-name="Ccircumflex" unicode="&#x108;" horiz-adv-x="704" 
d="M594 498q-9 41 -29.5 73.5t-50 54.5t-65 33.5t-74.5 11.5q-71 0 -122 -27t-83.5 -71.5t-48 -101t-15.5 -114.5q0 -59 15.5 -115t48 -100.5t83.5 -71.5t122 -27q49 0 89.5 18t69.5 49t47 72.5t23 89.5h68q-7 -66 -31 -119t-62 -90.5t-89.5 -57.5t-114.5 -20
q-84 0 -147.5 30.5t-105.5 82t-63 119t-21 140.5t21 140.5t63 119t105.5 82t147.5 30.5q51 0 99.5 -15t88 -44.5t66 -72.5t33.5 -99h-68zM523 779h-65l-86 102l-88 -102h-58l114 141h69z" />
    <glyph glyph-name="ccircumflex" unicode="&#x109;" horiz-adv-x="519" 
d="M424 354q-13 58 -48.5 91t-97.5 33q-45 0 -79 -19t-56.5 -50t-34 -70.5t-11.5 -80.5t11.5 -80.5t34 -70.5t56.5 -50t79 -19q29 0 55 11t46 30.5t33 46.5t16 59h63q-13 -94 -69.5 -147t-143.5 -53q-59 0 -104.5 22t-76.5 59t-47 86.5t-16 105.5q0 55 16 105t47 87t76.5 59
t104.5 22q83 0 140.5 -44t68.5 -133h-63zM426 589h-65l-86 102l-88 -102h-58l114 141h69z" />
    <glyph glyph-name="Cdotaccent" unicode="&#x10a;" horiz-adv-x="704" 
d="M594 498q-9 41 -29.5 73.5t-50 54.5t-65 33.5t-74.5 11.5q-71 0 -122 -27t-83.5 -71.5t-48 -101t-15.5 -114.5q0 -59 15.5 -115t48 -100.5t83.5 -71.5t122 -27q49 0 89.5 18t69.5 49t47 72.5t23 89.5h68q-7 -66 -31 -119t-62 -90.5t-89.5 -57.5t-114.5 -20
q-84 0 -147.5 30.5t-105.5 82t-63 119t-21 140.5t21 140.5t63 119t105.5 82t147.5 30.5q51 0 99.5 -15t88 -44.5t66 -72.5t33.5 -99h-68zM337 800v101h68v-101h-68z" />
    <glyph glyph-name="cdotaccent" unicode="&#x10b;" horiz-adv-x="519" 
d="M424 354q-13 58 -48.5 91t-97.5 33q-45 0 -79 -19t-56.5 -50t-34 -70.5t-11.5 -80.5t11.5 -80.5t34 -70.5t56.5 -50t79 -19q29 0 55 11t46 30.5t33 46.5t16 59h63q-13 -94 -69.5 -147t-143.5 -53q-59 0 -104.5 22t-76.5 59t-47 86.5t-16 105.5q0 55 16 105t47 87t76.5 59
t104.5 22q83 0 140.5 -44t68.5 -133h-63zM242 610v101h68v-101h-68z" />
    <glyph glyph-name="Ccaron" unicode="&#x10c;" horiz-adv-x="704" 
d="M594 498q-9 41 -29.5 73.5t-50 54.5t-65 33.5t-74.5 11.5q-71 0 -122 -27t-83.5 -71.5t-48 -101t-15.5 -114.5q0 -59 15.5 -115t48 -100.5t83.5 -71.5t122 -27q49 0 89.5 18t69.5 49t47 72.5t23 89.5h68q-7 -66 -31 -119t-62 -90.5t-89.5 -57.5t-114.5 -20
q-84 0 -147.5 30.5t-105.5 82t-63 119t-21 140.5t21 140.5t63 119t105.5 82t147.5 30.5q51 0 99.5 -15t88 -44.5t66 -72.5t33.5 -99h-68zM220 921h65l86 -102l88 102h58l-114 -141h-69z" />
    <glyph glyph-name="ccaron" unicode="&#x10d;" horiz-adv-x="519" 
d="M424 354q-13 58 -48.5 91t-97.5 33q-45 0 -79 -19t-56.5 -50t-34 -70.5t-11.5 -80.5t11.5 -80.5t34 -70.5t56.5 -50t79 -19q29 0 55 11t46 30.5t33 46.5t16 59h63q-13 -94 -69.5 -147t-143.5 -53q-59 0 -104.5 22t-76.5 59t-47 86.5t-16 105.5q0 55 16 105t47 87t76.5 59
t104.5 22q83 0 140.5 -44t68.5 -133h-63zM128 731h65l86 -102l88 102h58l-114 -141h-69z" />
    <glyph glyph-name="Dcaron" unicode="&#x10e;" horiz-adv-x="685" 
d="M72 714h247q162 -4 245 -92t83 -265t-83 -265t-245 -92h-247v714zM140 58h145q77 0 132.5 16.5t91.5 52.5t53 93t17 137t-17 137t-53 93t-91.5 52.5t-132.5 16.5h-145v-598zM156 921h65l86 -102l88 102h58l-114 -141h-69z" />
    <glyph glyph-name="dcaron" unicode="&#x10f;" horiz-adv-x="645" 
d="M514 0h-58v98h-2q-10 -25 -29.5 -46t-44.5 -36t-53.5 -23t-56.5 -8q-59 0 -102.5 22t-72.5 59.5t-43 87t-14 104.5t14 104.5t43 87t72.5 59.5t102.5 22q29 0 56.5 -7.5t51.5 -21.5t42.5 -35t28.5 -49h2v296h63v-714zM101 258q0 -40 9.5 -79.5t30 -70.5t52.5 -50.5
t77 -19.5q50 0 84.5 19.5t56 50.5t31 70.5t9.5 79.5t-9.5 79.5t-31 70.5t-56 50.5t-84.5 19.5q-45 0 -77 -19.5t-52.5 -50.5t-30 -70.5t-9.5 -79.5zM611 573h-47l55 141h78z" />
    <glyph glyph-name="Dcroat" unicode="&#x110;" horiz-adv-x="685" 
d="M72 714h247q162 -4 245 -92t83 -265t-83 -265t-245 -92h-247v348h-72v45h72v321zM140 393h236v-45h-236v-290h145q77 0 132.5 16.5t91.5 52.5t53 93t17 137t-17 137t-53 93t-91.5 52.5t-132.5 16.5h-145v-263z" />
    <glyph glyph-name="dcroat" unicode="&#x111;" horiz-adv-x="598" 
d="M514 0h-58v98h-2q-10 -25 -29.5 -46t-44.5 -36t-53.5 -23t-56.5 -8q-59 0 -102.5 22t-72.5 59.5t-43 87t-14 104.5t14 104.5t43 87t72.5 59.5t102.5 22q29 0 56.5 -7.5t51.5 -21.5t42.5 -35t28.5 -49h2v166h-173v45h173v85h63v-85h84v-45h-84v-584zM101 258
q0 -40 9.5 -79.5t30 -70.5t52.5 -50.5t77 -19.5q50 0 84.5 19.5t56 50.5t31 70.5t9.5 79.5t-9.5 79.5t-31 70.5t-56 50.5t-84.5 19.5q-45 0 -77 -19.5t-52.5 -50.5t-30 -70.5t-9.5 -79.5z" />
    <glyph glyph-name="Emacron" unicode="&#x112;" horiz-adv-x="593" 
d="M72 714h493v-58h-425v-258h398v-58h-398v-282h430v-58h-498v714zM156 828v45h329v-45h-329z" />
    <glyph glyph-name="emacron" unicode="&#x113;" horiz-adv-x="519" 
d="M431 294q-1 36 -12.5 69t-32.5 58.5t-51 41t-68 15.5q-39 0 -69 -15.5t-51 -41t-33.5 -59t-16.5 -68.5h334zM97 241q0 -35 10 -71t30 -65t52.5 -48t77.5 -19q69 0 108 36.5t54 95.5h63q-20 -88 -73.5 -136.5t-151.5 -48.5q-62 0 -106 22t-72 59.5t-41.5 87t-13.5 104.5
q0 51 13.5 100t41.5 87.5t72 62t106 23.5t106 -25t71.5 -65.5t39.5 -93t10 -106.5h-397zM102 638v45h329v-45h-329z" />
    <glyph glyph-name="Ebreve" unicode="&#x114;" horiz-adv-x="593" 
d="M72 714h493v-58h-425v-258h398v-58h-398v-282h430v-58h-498v714zM213 914q1 -20 10.5 -35.5t23.5 -26t32 -15.5t37 -5t37 5.5t32.5 16t24 25.5t12.5 35h39q-8 -59 -46.5 -93t-98.5 -34q-61 0 -99 33t-43 94h39z" />
    <glyph glyph-name="ebreve" unicode="&#x115;" horiz-adv-x="519" 
d="M431 294q-1 36 -12.5 69t-32.5 58.5t-51 41t-68 15.5q-39 0 -69 -15.5t-51 -41t-33.5 -59t-16.5 -68.5h334zM97 241q0 -35 10 -71t30 -65t52.5 -48t77.5 -19q69 0 108 36.5t54 95.5h63q-20 -88 -73.5 -136.5t-151.5 -48.5q-62 0 -106 22t-72 59.5t-41.5 87t-13.5 104.5
q0 51 13.5 100t41.5 87.5t72 62t106 23.5t106 -25t71.5 -65.5t39.5 -93t10 -106.5h-397zM167 724q1 -20 10.5 -35.5t23.5 -26t32 -15.5t37 -5t37 5.5t32.5 16t24 25.5t12.5 35h39q-8 -59 -46.5 -93t-98.5 -34q-61 0 -99 33t-43 94h39z" />
    <glyph glyph-name="Edotaccent" unicode="&#x116;" horiz-adv-x="593" 
d="M72 714h493v-58h-425v-258h398v-58h-398v-282h430v-58h-498v714zM285 800v101h68v-101h-68z" />
    <glyph glyph-name="edotaccent" unicode="&#x117;" horiz-adv-x="519" 
d="M431 294q-1 36 -12.5 69t-32.5 58.5t-51 41t-68 15.5q-39 0 -69 -15.5t-51 -41t-33.5 -59t-16.5 -68.5h334zM97 241q0 -35 10 -71t30 -65t52.5 -48t77.5 -19q69 0 108 36.5t54 95.5h63q-20 -88 -73.5 -136.5t-151.5 -48.5q-62 0 -106 22t-72 59.5t-41.5 87t-13.5 104.5
q0 51 13.5 100t41.5 87.5t72 62t106 23.5t106 -25t71.5 -65.5t39.5 -93t10 -106.5h-397zM232 610v101h68v-101h-68z" />
    <glyph glyph-name="Eogonek" unicode="&#x118;" horiz-adv-x="593" 
d="M524 0q-27 -22 -44.5 -39.5t-25.5 -31.5t-10 -23.5t-2 -22.5q0 -24 13.5 -35.5t30.5 -11.5q19 0 33 12.5t22 28.5l29 -13q-17 -38 -41.5 -52.5t-56.5 -14.5q-44 0 -67.5 23t-23.5 59q0 8 3 19.5t12 25t30.5 33.5t59.5 43h-414v714h493v-58h-425v-258h398v-58h-398v-282
h430v-58h-46z" />
    <glyph glyph-name="eogonek" unicode="&#x119;" horiz-adv-x="519" 
d="M97 241q0 -35 10 -71t30 -65t52.5 -48t77.5 -19q69 0 108 36.5t54 95.5h63q-20 -88 -74 -137q-43 -39 -117 -46q-16 -14 -28 -26q-17 -18 -25 -32t-10 -23.5t-2 -22.5q0 -24 13.5 -35.5t30.5 -11.5q19 0 33 12.5t22 28.5l29 -13q-17 -38 -41.5 -52.5t-56.5 -14.5
q-44 0 -67.5 23t-23.5 59q0 8 3 19.5t12 25t30 33.5q14 13 36 28q-55 2 -95 22q-44 22 -72 59.5t-41.5 87t-13.5 104.5q0 51 13.5 100t41.5 87.5t72 62t106 23.5t106 -25t71.5 -65.5t39.5 -93t10 -106.5h-397zM431 294q-1 36 -12.5 69t-32.5 58.5t-51 41t-68 15.5
q-39 0 -69 -15.5t-51 -41t-33.5 -59t-16.5 -68.5h334z" />
    <glyph glyph-name="Ecaron" unicode="&#x11a;" horiz-adv-x="593" 
d="M72 714h493v-58h-425v-258h398v-58h-398v-282h430v-58h-498v714zM166 921h65l86 -102l88 102h58l-114 -141h-69z" />
    <glyph glyph-name="ecaron" unicode="&#x11b;" horiz-adv-x="519" 
d="M431 294q-1 36 -12.5 69t-32.5 58.5t-51 41t-68 15.5q-39 0 -69 -15.5t-51 -41t-33.5 -59t-16.5 -68.5h334zM97 241q0 -35 10 -71t30 -65t52.5 -48t77.5 -19q69 0 108 36.5t54 95.5h63q-20 -88 -73.5 -136.5t-151.5 -48.5q-62 0 -106 22t-72 59.5t-41.5 87t-13.5 104.5
q0 51 13.5 100t41.5 87.5t72 62t106 23.5t106 -25t71.5 -65.5t39.5 -93t10 -106.5h-397zM120 731h65l86 -102l88 102h58l-114 -141h-69z" />
    <glyph glyph-name="Gcircumflex" unicode="&#x11c;" horiz-adv-x="741" 
d="M682 0h-49l-9 130h-2q-18 -38 -44.5 -65.5t-58.5 -45t-68.5 -26t-75.5 -8.5q-84 0 -147.5 30.5t-105.5 82t-63 119t-21 140.5t21 140.5t63 119t105.5 82t147.5 30.5q56 0 106 -15t89.5 -45t66 -74.5t36.5 -102.5h-68q-3 31 -20.5 62.5t-47 57.5t-70.5 42.5t-92 16.5
q-71 0 -122 -27t-83.5 -71.5t-48 -101t-15.5 -114.5q0 -59 15.5 -115t48 -100.5t83.5 -71.5t122 -27q59 0 105.5 19.5t78.5 54.5t48 83t15 105h-243v58h303v-363zM522 779h-65l-86 102l-88 -102h-58l114 141h69z" />
    <glyph glyph-name="gcircumflex" unicode="&#x11d;" horiz-adv-x="556" 
d="M496 42q0 -58 -12.5 -104t-39.5 -78t-70.5 -49t-106.5 -17q-39 0 -76 9t-66.5 28t-49 48.5t-22.5 70.5h63q5 -29 19.5 -48.5t35 -31.5t45.5 -17.5t51 -5.5q88 0 127 50t39 145v70h-2q-22 -48 -65 -77t-99 -29q-62 0 -106 20.5t-72.5 56.5t-41.5 84.5t-13 103.5
q0 53 15.5 100.5t45 83t73 56t99.5 20.5q57 0 101 -30.5t63 -73.5h2v89h63v-474zM267 59q41 0 72 17.5t52 46t31.5 65.5t10.5 76q0 38 -9 76t-29 69t-51.5 50t-76.5 19t-77 -18.5t-53 -48.5t-30.5 -68.5t-9.5 -78.5q0 -39 10 -76t31 -65.5t53 -46t76 -17.5zM439 589h-65
l-86 102l-88 -102h-58l114 141h69z" />
    <glyph glyph-name="Gbreve" unicode="&#x11e;" horiz-adv-x="741" 
d="M682 0h-49l-9 130h-2q-18 -38 -44.5 -65.5t-58.5 -45t-68.5 -26t-75.5 -8.5q-84 0 -147.5 30.5t-105.5 82t-63 119t-21 140.5t21 140.5t63 119t105.5 82t147.5 30.5q56 0 106 -15t89.5 -45t66 -74.5t36.5 -102.5h-68q-3 31 -20.5 62.5t-47 57.5t-70.5 42.5t-92 16.5
q-71 0 -122 -27t-83.5 -71.5t-48 -101t-15.5 -114.5q0 -59 15.5 -115t48 -100.5t83.5 -71.5t122 -27q59 0 105.5 19.5t78.5 54.5t48 83t15 105h-243v58h303v-363zM270 914q1 -20 10.5 -35.5t23.5 -26t32 -15.5t37 -5t37 5.5t32.5 16t24 25.5t12.5 35h39q-8 -59 -46.5 -93
t-98.5 -34q-61 0 -99 33t-43 94h39z" />
    <glyph glyph-name="gbreve" unicode="&#x11f;" horiz-adv-x="556" 
d="M496 42q0 -58 -12.5 -104t-39.5 -78t-70.5 -49t-106.5 -17q-39 0 -76 9t-66.5 28t-49 48.5t-22.5 70.5h63q5 -29 19.5 -48.5t35 -31.5t45.5 -17.5t51 -5.5q88 0 127 50t39 145v70h-2q-22 -48 -65 -77t-99 -29q-62 0 -106 20.5t-72.5 56.5t-41.5 84.5t-13 103.5
q0 53 15.5 100.5t45 83t73 56t99.5 20.5q57 0 101 -30.5t63 -73.5h2v89h63v-474zM267 59q41 0 72 17.5t52 46t31.5 65.5t10.5 76q0 38 -9 76t-29 69t-51.5 50t-76.5 19t-77 -18.5t-53 -48.5t-30.5 -68.5t-9.5 -78.5q0 -39 10 -76t31 -65.5t53 -46t76 -17.5zM164 724
q1 -20 10.5 -35.5t23.5 -26t32 -15.5t37 -5t37 5.5t32.5 16t24 25.5t12.5 35h39q-8 -59 -46.5 -93t-98.5 -34q-61 0 -99 33t-43 94h39z" />
    <glyph glyph-name="Gdotaccent" unicode="&#x120;" horiz-adv-x="741" 
d="M682 0h-49l-9 130h-2q-18 -38 -44.5 -65.5t-58.5 -45t-68.5 -26t-75.5 -8.5q-84 0 -147.5 30.5t-105.5 82t-63 119t-21 140.5t21 140.5t63 119t105.5 82t147.5 30.5q56 0 106 -15t89.5 -45t66 -74.5t36.5 -102.5h-68q-3 31 -20.5 62.5t-47 57.5t-70.5 42.5t-92 16.5
q-71 0 -122 -27t-83.5 -71.5t-48 -101t-15.5 -114.5q0 -59 15.5 -115t48 -100.5t83.5 -71.5t122 -27q59 0 105.5 19.5t78.5 54.5t48 83t15 105h-243v58h303v-363zM342 800v101h68v-101h-68z" />
    <glyph glyph-name="gdotaccent" unicode="&#x121;" horiz-adv-x="556" 
d="M496 42q0 -58 -12.5 -104t-39.5 -78t-70.5 -49t-106.5 -17q-39 0 -76 9t-66.5 28t-49 48.5t-22.5 70.5h63q5 -29 19.5 -48.5t35 -31.5t45.5 -17.5t51 -5.5q88 0 127 50t39 145v70h-2q-22 -48 -65 -77t-99 -29q-62 0 -106 20.5t-72.5 56.5t-41.5 84.5t-13 103.5
q0 53 15.5 100.5t45 83t73 56t99.5 20.5q57 0 101 -30.5t63 -73.5h2v89h63v-474zM267 59q41 0 72 17.5t52 46t31.5 65.5t10.5 76q0 38 -9 76t-29 69t-51.5 50t-76.5 19t-77 -18.5t-53 -48.5t-30.5 -68.5t-9.5 -78.5q0 -39 10 -76t31 -65.5t53 -46t76 -17.5zM243 610v101h68
v-101h-68z" />
    <glyph glyph-name="Gcommaaccent" unicode="&#x122;" horiz-adv-x="741" 
d="M682 0h-49l-9 130h-2q-18 -38 -44.5 -65.5t-58.5 -45t-68.5 -26t-75.5 -8.5q-84 0 -147.5 30.5t-105.5 82t-63 119t-21 140.5t21 140.5t63 119t105.5 82t147.5 30.5q56 0 106 -15t89.5 -45t66 -74.5t36.5 -102.5h-68q-3 31 -20.5 62.5t-47 57.5t-70.5 42.5t-92 16.5
q-71 0 -122 -27t-83.5 -71.5t-48 -101t-15.5 -114.5q0 -59 15.5 -115t48 -100.5t83.5 -71.5t122 -27q59 0 105.5 19.5t78.5 54.5t48 83t15 105h-243v58h303v-363zM417 -50v-80q0 -27 -12.5 -42.5t-30 -22.5t-43.5 -8v28q15 3 22 7.5t11.5 11.5t5.5 15h-39v91h86z" />
    <glyph glyph-name="gcommaaccent" unicode="&#x123;" horiz-adv-x="556" 
d="M496 42q0 -58 -12.5 -104t-39.5 -78t-70.5 -49t-106.5 -17q-39 0 -76 9t-66.5 28t-49 48.5t-22.5 70.5h63q5 -29 19.5 -48.5t35 -31.5t45.5 -17.5t51 -5.5q88 0 127 50t39 145v70h-2q-22 -48 -65 -77t-99 -29q-62 0 -106 20.5t-72.5 56.5t-41.5 84.5t-13 103.5
q0 53 15.5 100.5t45 83t73 56t99.5 20.5q57 0 101 -30.5t63 -73.5h2v89h63v-474zM267 59q41 0 72 17.5t52 46t31.5 65.5t10.5 76q0 38 -9 76t-29 69t-51.5 50t-76.5 19t-77 -18.5t-53 -48.5t-30.5 -68.5t-9.5 -78.5q0 -39 10 -76t31 -65.5t53 -46t76 -17.5zM236 623v80
q0 27 12.5 42.5t30 22.5t43.5 8v-28q-15 -3 -22 -7.5t-11.5 -11.5t-5.5 -15h39v-91h-86z" />
    <glyph glyph-name="Hcircumflex" unicode="&#x124;" horiz-adv-x="704" 
d="M72 714h68v-310h424v310h68v-714h-68v346h-424v-346h-68v714zM502 779h-65l-86 102l-88 -102h-58l114 141h69z" />
    <glyph glyph-name="hcircumflex" unicode="&#x125;" horiz-adv-x="537" 
d="M59 714h63v-287h2q9 23 25.5 42.5t38.5 33t48 21t53 7.5q54 0 90.5 -14t58.5 -39.5t31 -62.5t9 -83v-332h-63v322q0 33 -6 61.5t-21 49.5t-40.5 33t-63.5 12t-67.5 -13.5t-50.5 -37t-32 -56t-12 -70.5v-301h-63v714zM414 779h-65l-86 102l-88 -102h-58l114 141h69z" />
    <glyph glyph-name="Hbar" unicode="&#x126;" horiz-adv-x="704" 
d="M72 714h68v-198h424v198h68v-714h-68v336h-424v-336h-68v714zM140 471v-77h424v77h-424z" />
    <glyph glyph-name="hbar" unicode="&#x127;" horiz-adv-x="560" 
d="M82 714h63v-85h153v-45h-153v-157h2q9 23 25.5 42.5t38.5 33t48 21t53 7.5q54 0 90.5 -14t58.5 -39.5t31 -62.5t9 -83v-332h-63v322q0 33 -6 61.5t-21 49.5t-40.5 33t-63.5 12t-67.5 -13.5t-50.5 -37t-32 -56t-12 -70.5v-301h-63v584h-82v45h82v85z" />
    <glyph glyph-name="Itilde" unicode="&#x128;" horiz-adv-x="222" 
d="M77 714h68v-714h-68v714zM268 900q-3 -17 -9.5 -34t-17 -30.5t-26 -22t-34.5 -8.5q-20 0 -39 7t-36 16t-32.5 16t-30.5 7q-20 0 -32 -13t-18 -38h-39q2 18 9 35t18 30.5t26.5 22t35.5 8.5q22 0 40 -7t35 -16t31.5 -15t28.5 -6q23 0 34.5 14t17.5 34h38z" />
    <glyph glyph-name="itilde" unicode="&#x129;" 
d="M61 0v516h63v-516h-63zM250 710q-3 -17 -9.5 -34t-17 -30.5t-26 -22t-34.5 -8.5q-20 0 -39 7t-36 16t-32.5 16t-30.5 7q-20 0 -32 -13t-18 -38h-39q2 18 9 35t18 30.5t26.5 22t35.5 8.5q22 0 40 -7t35 -16t31.5 -15t28.5 -6q23 0 34.5 14t17.5 34h38z" />
    <glyph glyph-name="Imacron" unicode="&#x12a;" horiz-adv-x="222" 
d="M77 714h68v-714h-68v714zM-53 828v45h329v-45h-329z" />
    <glyph glyph-name="imacron" unicode="&#x12b;" 
d="M61 0v516h63v-516h-63zM-71 638v45h329v-45h-329z" />
    <glyph glyph-name="Iogonek" unicode="&#x12e;" horiz-adv-x="222" 
d="M145 0q-24 -22 -40 -39.5t-23.5 -31.5t-9 -23.5t-1.5 -22.5q0 -24 12 -35.5t28 -11.5q17 0 29.5 12.5t19.5 28.5l27 -13q-16 -38 -38 -52.5t-51 -14.5q-40 0 -61 23t-21 59q0 8 2.5 19.5t10.5 25t27.5 33.5t54.5 43h-34v714h68v-714z" />
    <glyph glyph-name="iogonek" unicode="&#x12f;" 
d="M124 0q-24 -22 -40 -39.5t-23 -31.5t-9 -23.5t-2 -22.5q0 -24 12.5 -35.5t27.5 -11.5q17 0 29.5 12.5t19.5 28.5l26 -13q-15 -38 -37 -52.5t-51 -14.5q-39 0 -60.5 23t-21.5 59q0 8 3 19.5t11 25t27.5 33.5t53.5 43h-29v516h63v-516zM61 714h63v-101h-63v101z" />
    <glyph glyph-name="Idotaccent" unicode="&#x130;" horiz-adv-x="222" 
d="M77 714h68v-714h-68v714zM77 800v101h68v-101h-68z" />
    <glyph glyph-name="dotlessi" unicode="&#x131;" 
d="M61 0v516h63v-516h-63z" />
    <glyph glyph-name="Jcircumflex" unicode="&#x134;" horiz-adv-x="500" 
d="M360 714h68v-515q0 -54 -11 -94.5t-35.5 -67t-64 -39.5t-97.5 -13q-62 0 -100.5 20.5t-60.5 55t-30 78t-8 90.5h68q1 -23 2.5 -55t14 -61t40 -49.5t80.5 -20.5q40 0 66 10.5t41 33t21 57.5t6 84v486zM539 779h-65l-86 102l-88 -102h-58l114 141h69z" />
    <glyph glyph-name="jcircumflex" unicode="&#x135;" 
d="M61 516h63v-564q0 -29 -4.5 -55t-17 -45.5t-34 -31t-54.5 -11.5q-11 0 -22 1t-22 1v52q8 -1 17 -1.5t17 0.5q37 0 47 21.5t10 53.5v579zM240 589h-65l-86 102l-88 -102h-58l114 141h69z" />
    <glyph glyph-name="Kcommaaccent" unicode="&#x136;" horiz-adv-x="648" 
d="M72 714h68v-384l415 384h92l-319 -295l334 -419h-88l-297 372l-137 -127v-245h-68v714zM377 -50v-80q0 -27 -12.5 -42.5t-30 -22.5t-43.5 -8v28q15 3 22 7.5t11.5 11.5t5.5 15h-39v91h86z" />
    <glyph glyph-name="kcommaaccent" unicode="&#x137;" horiz-adv-x="500" 
d="M60 714h63v-448l286 250h84l-220 -191l235 -325h-79l-204 281l-102 -85v-196h-63v714zM307 -50v-80q0 -27 -12.5 -42.5t-30 -22.5t-43.5 -8v28q15 3 22 7.5t11.5 11.5t5.5 15h-39v91h86z" />
    <glyph glyph-name="Lacute" unicode="&#x139;" horiz-adv-x="537" 
d="M72 714h68v-656h400v-58h-468v714zM130 780h-51l105 141h78z" />
    <glyph glyph-name="lacute" unicode="&#x13a;" 
d="M61 714h63v-714h-63v714zM112 780h-51l105 141h78z" />
    <glyph glyph-name="Lcommaaccent" unicode="&#x13b;" horiz-adv-x="537" 
d="M72 714h68v-656h400v-58h-468v714zM336 -50v-80q0 -27 -12.5 -42.5t-30 -22.5t-43.5 -8v28q15 3 22 7.5t11.5 11.5t5.5 15h-39v91h86z" />
    <glyph glyph-name="lcommaaccent" unicode="&#x13c;" 
d="M61 714h63v-714h-63v714zM137 -50v-80q0 -27 -12.5 -42.5t-30 -22.5t-43.5 -8v28q15 3 22 7.5t11.5 11.5t5.5 15h-39v91h86z" />
    <glyph glyph-name="Lcaron" unicode="&#x13d;" horiz-adv-x="537" 
d="M72 714h68v-656h400v-58h-468v714zM292 573h-47l55 141h78z" />
    <glyph glyph-name="lcaron" unicode="&#x13e;" horiz-adv-x="255" 
d="M61 714h63v-714h-63v714zM221 573h-47l55 141h78z" />
    <glyph glyph-name="Ldot" unicode="&#x13f;" horiz-adv-x="537" 
d="M72 714h68v-656h400v-58h-468v714zM288 416v101h68v-101h-68z" />
    <glyph glyph-name="ldot" unicode="&#x140;" horiz-adv-x="296" 
d="M61 714h63v-714h-63v714zM188 416v101h68v-101h-68z" />
    <glyph glyph-name="Lslash" unicode="&#x141;" horiz-adv-x="537" 
d="M72 714h68v-361l243 168v-56l-243 -167v-240h400v-58h-468v251l-82 -57v56l82 56v408z" />
    <glyph glyph-name="lslash" unicode="&#x142;" 
d="M61 714h63v-267l67 55v-55l-67 -55v-392h-63v340l-67 -55v55l67 55v319z" />
    <glyph glyph-name="Nacute" unicode="&#x143;" horiz-adv-x="704" 
d="M71 714h76l416 -604h2v604h68v-714h-76l-416 604h-2v-604h-68v714zM365 780h-51l105 141h78z" />
    <glyph glyph-name="nacute" unicode="&#x144;" horiz-adv-x="537" 
d="M59 516h63v-89h2q9 23 25.5 42.5t38.5 33t48 21t53 7.5q54 0 90.5 -14t58.5 -39.5t31 -62.5t9 -83v-332h-63v322q0 33 -6 61.5t-21 49.5t-40.5 33t-63.5 12t-67.5 -13.5t-50.5 -37t-32 -56t-12 -70.5v-301h-63v516zM287 590h-51l105 141h78z" />
    <glyph glyph-name="Ncommaaccent" unicode="&#x145;" horiz-adv-x="704" 
d="M71 714h76l416 -604h2v604h68v-714h-76l-416 604h-2v-604h-68v714zM389 -50v-80q0 -27 -12.5 -42.5t-30 -22.5t-43.5 -8v28q15 3 22 7.5t11.5 11.5t5.5 15h-39v91h86z" />
    <glyph glyph-name="ncommaaccent" unicode="&#x146;" horiz-adv-x="537" 
d="M59 516h63v-89h2q9 23 25.5 42.5t38.5 33t48 21t53 7.5q54 0 90.5 -14t58.5 -39.5t31 -62.5t9 -83v-332h-63v322q0 33 -6 61.5t-21 49.5t-40.5 33t-63.5 12t-67.5 -13.5t-50.5 -37t-32 -56t-12 -70.5v-301h-63v516zM317 -50v-80q0 -27 -12.5 -42.5t-30 -22.5t-43.5 -8v28
q15 3 22 7.5t11.5 11.5t5.5 15h-39v91h86z" />
    <glyph glyph-name="Ncaron" unicode="&#x147;" horiz-adv-x="704" 
d="M71 714h76l416 -604h2v604h68v-714h-76l-416 604h-2v-604h-68v714zM197 921h65l86 -102l88 102h58l-114 -141h-69z" />
    <glyph glyph-name="ncaron" unicode="&#x148;" horiz-adv-x="537" 
d="M59 516h63v-89h2q9 23 25.5 42.5t38.5 33t48 21t53 7.5q54 0 90.5 -14t58.5 -39.5t31 -62.5t9 -83v-332h-63v322q0 33 -6 61.5t-21 49.5t-40.5 33t-63.5 12t-67.5 -13.5t-50.5 -37t-32 -56t-12 -70.5v-301h-63v516zM119 731h65l86 -102l88 102h58l-114 -141h-69z" />
    <glyph glyph-name="Omacron" unicode="&#x14c;" horiz-adv-x="741" 
d="M102 357q0 -59 15.5 -115t48 -100.5t83.5 -71.5t122 -27q70 0 121 27t83.5 71.5t48 100.5t15.5 115q0 58 -15.5 114.5t-48 101t-83.5 71.5t-121 27q-71 0 -122 -27t-83.5 -71.5t-48 -101t-15.5 -114.5zM34 357q0 73 21 140.5t63 119t105.5 82t147.5 30.5t147 -30.5
t105 -82t63 -119t21 -140.5t-21 -140.5t-63 -119t-105 -82t-147 -30.5t-147.5 30.5t-105.5 82t-63 119t-21 140.5zM208 828v45h329v-45h-329z" />
    <glyph glyph-name="omacron" unicode="&#x14d;" horiz-adv-x="556" 
d="M278 478q-45 0 -79 -19t-56.5 -50t-34 -70.5t-11.5 -80.5t11.5 -80.5t34 -70.5t56.5 -50t79 -19t79 19t56.5 50t34 70.5t11.5 80.5t-11.5 80.5t-34 70.5t-56.5 50t-79 19zM278 531q59 0 104.5 -22t76.5 -59t47 -87t16 -105q0 -56 -16 -105.5t-47 -86.5t-76.5 -59
t-104.5 -22t-104.5 22t-76.5 59t-47 86.5t-16 105.5q0 55 16 105t47 87t76.5 59t104.5 22zM118 638v45h329v-45h-329z" />
    <glyph glyph-name="Obreve" unicode="&#x14e;" horiz-adv-x="741" 
d="M102 357q0 -59 15.5 -115t48 -100.5t83.5 -71.5t122 -27q70 0 121 27t83.5 71.5t48 100.5t15.5 115q0 58 -15.5 114.5t-48 101t-83.5 71.5t-121 27q-71 0 -122 -27t-83.5 -71.5t-48 -101t-15.5 -114.5zM34 357q0 73 21 140.5t63 119t105.5 82t147.5 30.5t147 -30.5
t105 -82t63 -119t21 -140.5t-21 -140.5t-63 -119t-105 -82t-147 -30.5t-147.5 30.5t-105.5 82t-63 119t-21 140.5zM268 914q1 -20 10.5 -35.5t23.5 -26t32 -15.5t37 -5t37 5.5t32.5 16t24 25.5t12.5 35h39q-8 -59 -46.5 -93t-98.5 -34q-61 0 -99 33t-43 94h39z" />
    <glyph glyph-name="obreve" unicode="&#x14f;" horiz-adv-x="556" 
d="M278 478q-45 0 -79 -19t-56.5 -50t-34 -70.5t-11.5 -80.5t11.5 -80.5t34 -70.5t56.5 -50t79 -19t79 19t56.5 50t34 70.5t11.5 80.5t-11.5 80.5t-34 70.5t-56.5 50t-79 19zM278 531q59 0 104.5 -22t76.5 -59t47 -87t16 -105q0 -56 -16 -105.5t-47 -86.5t-76.5 -59
t-104.5 -22t-104.5 22t-76.5 59t-47 86.5t-16 105.5q0 55 16 105t47 87t76.5 59t104.5 22zM177 724q1 -20 10.5 -35.5t23.5 -26t32 -15.5t37 -5t37 5.5t32.5 16t24 25.5t12.5 35h39q-8 -59 -46.5 -93t-98.5 -34q-61 0 -99 33t-43 94h39z" />
    <glyph glyph-name="Ohungarumlaut" unicode="&#x150;" horiz-adv-x="741" 
d="M102 357q0 -59 15.5 -115t48 -100.5t83.5 -71.5t122 -27q70 0 121 27t83.5 71.5t48 100.5t15.5 115q0 58 -15.5 114.5t-48 101t-83.5 71.5t-121 27q-71 0 -122 -27t-83.5 -71.5t-48 -101t-15.5 -114.5zM34 357q0 73 21 140.5t63 119t105.5 82t147.5 30.5t147 -30.5
t105 -82t63 -119t21 -140.5t-21 -140.5t-63 -119t-105 -82t-147 -30.5t-147.5 30.5t-105.5 82t-63 119t-21 140.5zM419 780l101 141h76l-126 -141h-51zM263 780l101 141h76l-126 -141h-51z" />
    <glyph glyph-name="ohungarumlaut" unicode="&#x151;" horiz-adv-x="556" 
d="M278 478q-45 0 -79 -19t-56.5 -50t-34 -70.5t-11.5 -80.5t11.5 -80.5t34 -70.5t56.5 -50t79 -19t79 19t56.5 50t34 70.5t11.5 80.5t-11.5 80.5t-34 70.5t-56.5 50t-79 19zM278 531q59 0 104.5 -22t76.5 -59t47 -87t16 -105q0 -56 -16 -105.5t-47 -86.5t-76.5 -59
t-104.5 -22t-104.5 22t-76.5 59t-47 86.5t-16 105.5q0 55 16 105t47 87t76.5 59t104.5 22zM327 590l101 141h76l-126 -141h-51zM171 590l101 141h76l-126 -141h-51z" />
    <glyph glyph-name="OE" unicode="&#x152;" horiz-adv-x="1074" 
d="M637 398h368v-58h-368v-282h409v-58h-477v70q-18 -21 -40.5 -37t-48 -26.5t-52.5 -16t-53 -5.5q-80 0 -142.5 30t-106 81t-66.5 118.5t-23 142.5t23 142.5t66.5 118.5t106 81t142.5 30q57 0 108 -17.5t86 -56.5v59h474v-58h-406v-258zM569 509q0 24 -1 39t-4 27
q-9 23 -30 41t-48 30t-56.5 18.5t-54.5 6.5q-65 0 -115.5 -25.5t-85 -68.5t-52 -100t-17.5 -120t17.5 -120t52 -100t85 -68.5t115.5 -25.5q55 0 98 17t78 62q10 12 13.5 26t4.5 29v332z" />
    <glyph glyph-name="oe" unicode="&#x153;" horiz-adv-x="889" 
d="M800 294q0 36 -10.5 69.5t-30.5 59t-50 40.5t-69 15q-40 0 -70 -15t-50.5 -40.5t-30.5 -58.5t-10 -70h321zM862 166q-21 -87 -80 -134t-148 -47q-32 0 -61.5 8.5t-54 25t-42.5 41t-26 56.5h-2q-19 -66 -68.5 -98.5t-116.5 -32.5q-61 0 -104 22.5t-70.5 60t-40 87
t-12.5 103.5t14 103t42.5 87t71.5 60.5t102 22.5q66 0 115 -31t69 -96h2q21 57 71 92t119 35q115 0 168 -73.5t53 -216.5h-384q0 -38 9.5 -74.5t29 -65t50 -46t72.5 -17.5q66 0 104 34t55 94h63zM265 478q-49 0 -81 -21t-51 -54.5t-26.5 -75t-7.5 -81.5q0 -39 9 -76
t29 -66.5t51 -47.5t76 -18q48 0 77.5 20t46 52.5t22.5 72.5t6 79t-6 77.5t-23 69.5t-46.5 50t-75.5 19z" />
    <glyph glyph-name="Racute" unicode="&#x154;" horiz-adv-x="667" 
d="M140 375h254q31 0 59 9.5t49 27.5t33.5 43.5t12.5 58.5q0 66 -38.5 104t-115.5 38h-254v-281zM72 714h327q44 0 83.5 -11t69 -33.5t47 -58t17.5 -83.5q0 -68 -35 -118t-104 -64v-2q35 -5 58 -18.5t37.5 -34.5t21 -48.5t8.5 -59.5q1 -18 2 -44t4 -52.5t9.5 -50t17.5 -36.5
h-75q-6 10 -9.5 24.5t-5.5 30t-2.5 30.5t-1.5 26q-2 37 -6.5 75t-19 67.5t-42 47.5t-75.5 16h-258v-317h-68v714zM336 780h-51l105 141h78z" />
    <glyph glyph-name="racute" unicode="&#x155;" horiz-adv-x="315" 
d="M60 516h58v-121h2q24 63 74.5 97t120.5 31v-63q-43 2 -78 -11.5t-60.5 -38.5t-39.5 -60t-14 -75v-275h-63v516zM117 590h-51l105 141h78z" />
    <glyph glyph-name="Rcommaaccent" unicode="&#x156;" horiz-adv-x="667" 
d="M140 375h254q31 0 59 9.5t49 27.5t33.5 43.5t12.5 58.5q0 66 -38.5 104t-115.5 38h-254v-281zM72 714h327q44 0 83.5 -11t69 -33.5t47 -58t17.5 -83.5q0 -68 -35 -118t-104 -64v-2q35 -5 58 -18.5t37.5 -34.5t21 -48.5t8.5 -59.5q1 -18 2 -44t4 -52.5t9.5 -50t17.5 -36.5
h-75q-6 10 -9.5 24.5t-5.5 30t-2.5 30.5t-1.5 26q-2 37 -6.5 75t-19 67.5t-42 47.5t-75.5 16h-258v-317h-68v714zM380 -50v-80q0 -27 -12.5 -42.5t-30 -22.5t-43.5 -8v28q15 3 22 7.5t11.5 11.5t5.5 15h-39v91h86z" />
    <glyph glyph-name="rcommaaccent" unicode="&#x157;" horiz-adv-x="315" 
d="M60 516h58v-121h2q24 63 74.5 97t120.5 31v-63q-43 2 -78 -11.5t-60.5 -38.5t-39.5 -60t-14 -75v-275h-63v516zM137 -50v-80q0 -27 -12.5 -42.5t-30 -22.5t-43.5 -8v28q15 3 22 7.5t11.5 11.5t5.5 15h-39v91h86z" />
    <glyph glyph-name="Rcaron" unicode="&#x158;" horiz-adv-x="667" 
d="M140 375h254q31 0 59 9.5t49 27.5t33.5 43.5t12.5 58.5q0 66 -38.5 104t-115.5 38h-254v-281zM72 714h327q44 0 83.5 -11t69 -33.5t47 -58t17.5 -83.5q0 -68 -35 -118t-104 -64v-2q35 -5 58 -18.5t37.5 -34.5t21 -48.5t8.5 -59.5q1 -18 2 -44t4 -52.5t9.5 -50t17.5 -36.5
h-75q-6 10 -9.5 24.5t-5.5 30t-2.5 30.5t-1.5 26q-2 37 -6.5 75t-19 67.5t-42 47.5t-75.5 16h-258v-317h-68v714zM161 921h65l86 -102l88 102h58l-114 -141h-69z" />
    <glyph glyph-name="rcaron" unicode="&#x159;" horiz-adv-x="315" 
d="M60 516h58v-121h2q24 63 74.5 97t120.5 31v-63q-43 2 -78 -11.5t-60.5 -38.5t-39.5 -60t-14 -75v-275h-63v516zM36 731h65l86 -102l88 102h58l-114 -141h-69z" />
    <glyph glyph-name="Sacute" unicode="&#x15a;" horiz-adv-x="630" 
d="M104 235q-1 -55 17 -92t49.5 -59t74.5 -31.5t92 -9.5q28 0 61 8t61.5 25.5t47.5 45t19 66.5q0 30 -13.5 52t-35 37t-47.5 24.5t-51 15.5l-159 39q-32 8 -61 20t-51 32t-35.5 49t-13.5 71q0 26 10 61t37.5 66t75.5 52.5t123 21.5q53 0 101 -14t84.5 -42t57.5 -69.5
t21 -96.5h-68q-2 41 -18 71.5t-43 51t-61.5 31t-72.5 10.5q-35 0 -67.5 -7.5t-57 -24t-39.5 -43.5t-15 -67q0 -25 8.5 -43.5t23.5 -31t34.5 -21t41.5 -13.5l174 -43q38 -10 71.5 -24.5t59 -36t40 -52.5t14.5 -75q0 -12 -2.5 -32t-12 -42.5t-27 -45.5t-48 -42t-75.5 -30.5
t-108 -11.5t-117 14.5t-92 45t-58.5 78t-17.5 112.5h68zM328 780h-51l105 141h78z" />
    <glyph glyph-name="sacute" unicode="&#x15b;" horiz-adv-x="481" 
d="M369 365q-1 29 -12 50.5t-29.5 35.5t-42.5 20.5t-51 6.5q-21 0 -42.5 -4.5t-39.5 -15t-29 -27.5t-11 -42q0 -21 10.5 -35.5t26.5 -24.5t35 -16.5t35 -10.5l84 -19q27 -4 53.5 -14.5t47 -27.5t33.5 -42t13 -59q0 -42 -19 -71.5t-48.5 -48t-66.5 -27t-73 -8.5
q-91 0 -147.5 43.5t-64.5 138.5h63q4 -64 46.5 -96.5t105.5 -32.5q22 0 47 5t46 17t34.5 30.5t13.5 45.5q0 22 -9.5 38t-25.5 26.5t-36.5 17.5t-41.5 12l-81 18q-31 8 -57 18.5t-45.5 26t-30.5 38t-11 55.5q0 39 17.5 67t45.5 45t62.5 25t68.5 8q39 0 72.5 -10t59 -31
t40.5 -52t17 -73h-63zM262 590h-51l105 141h78z" />
    <glyph glyph-name="Scircumflex" unicode="&#x15c;" horiz-adv-x="630" 
d="M104 235q-1 -55 17 -92t49.5 -59t74.5 -31.5t92 -9.5q28 0 61 8t61.5 25.5t47.5 45t19 66.5q0 30 -13.5 52t-35 37t-47.5 24.5t-51 15.5l-159 39q-32 8 -61 20t-51 32t-35.5 49t-13.5 71q0 26 10 61t37.5 66t75.5 52.5t123 21.5q53 0 101 -14t84.5 -42t57.5 -69.5
t21 -96.5h-68q-2 41 -18 71.5t-43 51t-61.5 31t-72.5 10.5q-35 0 -67.5 -7.5t-57 -24t-39.5 -43.5t-15 -67q0 -25 8.5 -43.5t23.5 -31t34.5 -21t41.5 -13.5l174 -43q38 -10 71.5 -24.5t59 -36t40 -52.5t14.5 -75q0 -12 -2.5 -32t-12 -42.5t-27 -45.5t-48 -42t-75.5 -30.5
t-108 -11.5t-117 14.5t-92 45t-58.5 78t-17.5 112.5h68zM466 779h-65l-86 102l-88 -102h-58l114 141h69z" />
    <glyph glyph-name="scircumflex" unicode="&#x15d;" horiz-adv-x="481" 
d="M369 365q-1 29 -12 50.5t-29.5 35.5t-42.5 20.5t-51 6.5q-21 0 -42.5 -4.5t-39.5 -15t-29 -27.5t-11 -42q0 -21 10.5 -35.5t26.5 -24.5t35 -16.5t35 -10.5l84 -19q27 -4 53.5 -14.5t47 -27.5t33.5 -42t13 -59q0 -42 -19 -71.5t-48.5 -48t-66.5 -27t-73 -8.5
q-91 0 -147.5 43.5t-64.5 138.5h63q4 -64 46.5 -96.5t105.5 -32.5q22 0 47 5t46 17t34.5 30.5t13.5 45.5q0 22 -9.5 38t-25.5 26.5t-36.5 17.5t-41.5 12l-81 18q-31 8 -57 18.5t-45.5 26t-30.5 38t-11 55.5q0 39 17.5 67t45.5 45t62.5 25t68.5 8q39 0 72.5 -10t59 -31
t40.5 -52t17 -73h-63zM394 589h-65l-86 102l-88 -102h-58l114 141h69z" />
    <glyph glyph-name="Scedilla" unicode="&#x15e;" horiz-adv-x="630" 
d="M104 235q-1 -55 17 -92t49.5 -59t74.5 -31.5t92 -9.5q28 0 61 8t61.5 25.5t47.5 45t19 66.5q0 30 -13.5 52t-35 37t-47.5 24.5t-51 15.5l-159 39q-32 8 -61 20t-51 32t-35.5 49t-13.5 71q0 26 10 61t37.5 66t75.5 52.5t123 21.5q53 0 101 -14t84.5 -42t57.5 -69.5
t21 -96.5h-68q-2 41 -18 71.5t-43 51t-61.5 31t-72.5 10.5q-35 0 -67.5 -7.5t-57 -24t-39.5 -43.5t-15 -67q0 -25 8.5 -43.5t23.5 -31t34.5 -21t41.5 -13.5l174 -43q38 -10 71.5 -24.5t59 -36t40 -52.5t14.5 -75q0 -12 -2.5 -32t-12 -42.5t-27 -45.5t-48 -42t-75.5 -30
q-44 -11 -105 -12l-32 -39q14 3 25.5 3.5t24.5 -1t28 -8t26.5 -20.5t11.5 -37t-10 -39t-26 -26.5t-35.5 -15.5t-38.5 -5q-24 0 -48 5t-46 16l14 32q13 -5 35 -9.5t44 -4.5q21 0 37 10t16 33q0 18 -13 28t-30 10q-35 0 -51 -8l-16 15l49 62q-45 3 -85 14q-54 14 -92 44.5
t-58.5 78t-17.5 112.5h68z" />
    <glyph glyph-name="scedilla" unicode="&#x15f;" horiz-adv-x="481" 
d="M369 365q-1 29 -12 50.5t-29.5 35.5t-42.5 20.5t-51 6.5q-21 0 -42.5 -4.5t-39.5 -15t-29 -27.5t-11 -42q0 -21 10.5 -35.5t26.5 -24.5t35 -16.5t35 -10.5l84 -19q27 -4 53.5 -14.5t47 -27.5t33.5 -42t13 -59q0 -42 -19 -71.5t-48.5 -48t-66.5 -26.5q-33 -8 -64 -9
l-32 -39q14 3 25.5 3.5t24.5 -1t28 -8t26.5 -20.5t11.5 -37t-10 -39t-26 -26.5t-35.5 -15.5t-38.5 -5q-24 0 -48 5t-46 16l14 32q13 -5 35 -9.5t44 -4.5q21 0 37 10t16 33q0 18 -13 28t-30 10q-35 0 -51 -8l-16 15l49 62q-73 5 -122 42q-56 44 -64 139h63q4 -64 46.5 -96.5
t105.5 -32.5q22 0 47 5t46 17t34.5 30.5t13.5 45.5q0 22 -9.5 38t-25.5 26.5t-36.5 17.5t-41.5 12l-81 18q-31 8 -57 18.5t-45.5 26t-30.5 38t-11 55.5q0 39 17.5 67t45.5 45t62.5 25t68.5 8q39 0 72.5 -10t59 -31t40.5 -52t17 -73h-63z" />
    <glyph glyph-name="Scaron" unicode="&#x160;" horiz-adv-x="630" 
d="M104 235q-1 -55 17 -92t49.5 -59t74.5 -31.5t92 -9.5q28 0 61 8t61.5 25.5t47.5 45t19 66.5q0 30 -13.5 52t-35 37t-47.5 24.5t-51 15.5l-159 39q-32 8 -61 20t-51 32t-35.5 49t-13.5 71q0 26 10 61t37.5 66t75.5 52.5t123 21.5q53 0 101 -14t84.5 -42t57.5 -69.5
t21 -96.5h-68q-2 41 -18 71.5t-43 51t-61.5 31t-72.5 10.5q-35 0 -67.5 -7.5t-57 -24t-39.5 -43.5t-15 -67q0 -25 8.5 -43.5t23.5 -31t34.5 -21t41.5 -13.5l174 -43q38 -10 71.5 -24.5t59 -36t40 -52.5t14.5 -75q0 -12 -2.5 -32t-12 -42.5t-27 -45.5t-48 -42t-75.5 -30.5
t-108 -11.5t-117 14.5t-92 45t-58.5 78t-17.5 112.5h68zM167 921h65l86 -102l88 102h58l-114 -141h-69z" />
    <glyph glyph-name="scaron" unicode="&#x161;" horiz-adv-x="481" 
d="M369 365q-1 29 -12 50.5t-29.5 35.5t-42.5 20.5t-51 6.5q-21 0 -42.5 -4.5t-39.5 -15t-29 -27.5t-11 -42q0 -21 10.5 -35.5t26.5 -24.5t35 -16.5t35 -10.5l84 -19q27 -4 53.5 -14.5t47 -27.5t33.5 -42t13 -59q0 -42 -19 -71.5t-48.5 -48t-66.5 -27t-73 -8.5
q-91 0 -147.5 43.5t-64.5 138.5h63q4 -64 46.5 -96.5t105.5 -32.5q22 0 47 5t46 17t34.5 30.5t13.5 45.5q0 22 -9.5 38t-25.5 26.5t-36.5 17.5t-41.5 12l-81 18q-31 8 -57 18.5t-45.5 26t-30.5 38t-11 55.5q0 39 17.5 67t45.5 45t62.5 25t68.5 8q39 0 72.5 -10t59 -31
t40.5 -52t17 -73h-63zM97 731h65l86 -102l88 102h58l-114 -141h-69z" />
    <glyph glyph-name="Tcommaaccent" unicode="&#x162;" horiz-adv-x="556" 
d="M-5 714h566v-58h-249v-656h-68v656h-249v58zM321 -50v-80q0 -27 -12.5 -42.5t-30 -22.5t-43.5 -8v28q15 3 22 7.5t11.5 11.5t5.5 15h-39v91h86z" />
    <glyph glyph-name="tcommaaccent" unicode="&#x163;" horiz-adv-x="296" 
d="M160 516h105v-53h-105v-348q0 -31 8.5 -48.5t42.5 -19.5q27 0 54 3v-54q-14 0 -28 -1t-28 -1q-63 0 -88 25t-24 91v353h-90v53h90v155h63v-155zM222 -50v-80q0 -27 -12.5 -42.5t-30 -22.5t-43.5 -8v28q15 3 22 7.5t11.5 11.5t5.5 15h-39v91h86z" />
    <glyph glyph-name="Tcaron" unicode="&#x164;" horiz-adv-x="556" 
d="M-5 714h566v-58h-249v-656h-68v656h-249v58zM131 921h65l86 -102l88 102h58l-114 -141h-69z" />
    <glyph glyph-name="tcaron" unicode="&#x165;" horiz-adv-x="332" 
d="M298 573h-47l55 141h78zM160 516h105v-53h-105v-348q0 -31 8.5 -48.5t42.5 -19.5q27 0 54 3v-54q-14 0 -28 -1t-28 -1q-63 0 -88 25t-24 91v353h-90v53h90v155h63v-155z" />
    <glyph glyph-name="Tbar" unicode="&#x166;" horiz-adv-x="556" 
d="M-5 714h566v-58h-249v-170h165v-45h-165v-441h-68v441h-164v45h164v170h-249v58z" />
    <glyph glyph-name="tbar" unicode="&#x167;" horiz-adv-x="296" 
d="M160 516h105v-53h-105v-99h117v-45h-117v-204q0 -31 8.5 -48.5t42.5 -19.5q27 0 54 3v-54q-14 0 -28 -1t-28 -1q-63 0 -88 25t-24 91v209h-100v45h100v99h-90v53h90v155h63v-155z" />
    <glyph glyph-name="Utilde" unicode="&#x168;" horiz-adv-x="685" 
d="M65 714h68v-442q0 -62 14 -105.5t41 -71t66 -40t88 -12.5t88.5 12.5t66.5 40t41 71t14 105.5v442h68v-457q0 -55 -15.5 -104.5t-49 -86.5t-86 -59t-127.5 -22q-74 0 -126.5 22t-86 59t-49 86.5t-15.5 104.5v457zM499 900q-3 -17 -9.5 -34t-17 -30.5t-26 -22t-34.5 -8.5
q-20 0 -39 7t-36 16t-32.5 16t-30.5 7q-20 0 -32 -13t-18 -38h-39q2 18 9 35t18 30.5t26.5 22t35.5 8.5q22 0 40 -7t35 -16t31.5 -15t28.5 -6q23 0 34.5 14t17.5 34h38z" />
    <glyph glyph-name="utilde" unicode="&#x169;" horiz-adv-x="537" 
d="M478 0h-58v93h-2q-25 -52 -72.5 -80t-105.5 -28q-49 0 -83.5 13.5t-56 39t-31.5 62t-10 81.5v335h63v-336q2 -70 32.5 -106t105.5 -36q40 0 69.5 17.5t48.5 46.5t28 66.5t9 76.5v271h63v-516zM426 710q-3 -17 -9.5 -34t-17 -30.5t-26 -22t-34.5 -8.5q-20 0 -39 7t-36 16
t-32.5 16t-30.5 7q-20 0 -32 -13t-18 -38h-39q2 18 9 35t18 30.5t26.5 22t35.5 8.5q22 0 40 -7t35 -16t31.5 -15t28.5 -6q23 0 34.5 14t17.5 34h38z" />
    <glyph glyph-name="Umacron" unicode="&#x16a;" horiz-adv-x="685" 
d="M65 714h68v-442q0 -62 14 -105.5t41 -71t66 -40t88 -12.5t88.5 12.5t66.5 40t41 71t14 105.5v442h68v-457q0 -55 -15.5 -104.5t-49 -86.5t-86 -59t-127.5 -22q-74 0 -126.5 22t-86 59t-49 86.5t-15.5 104.5v457zM176 828v45h329v-45h-329z" />
    <glyph glyph-name="umacron" unicode="&#x16b;" horiz-adv-x="537" 
d="M478 0h-58v93h-2q-25 -52 -72.5 -80t-105.5 -28q-49 0 -83.5 13.5t-56 39t-31.5 62t-10 81.5v335h63v-336q2 -70 32.5 -106t105.5 -36q40 0 69.5 17.5t48.5 46.5t28 66.5t9 76.5v271h63v-516zM106 638v45h329v-45h-329z" />
    <glyph glyph-name="Ubreve" unicode="&#x16c;" horiz-adv-x="685" 
d="M65 714h68v-442q0 -62 14 -105.5t41 -71t66 -40t88 -12.5t88.5 12.5t66.5 40t41 71t14 105.5v442h68v-457q0 -55 -15.5 -104.5t-49 -86.5t-86 -59t-127.5 -22q-74 0 -126.5 22t-86 59t-49 86.5t-15.5 104.5v457zM236 914q1 -20 10.5 -35.5t23.5 -26t32 -15.5t37 -5
t37 5.5t32.5 16t24 25.5t12.5 35h39q-8 -59 -46.5 -93t-98.5 -34q-61 0 -99 33t-43 94h39z" />
    <glyph glyph-name="ubreve" unicode="&#x16d;" horiz-adv-x="537" 
d="M478 0h-58v93h-2q-25 -52 -72.5 -80t-105.5 -28q-49 0 -83.5 13.5t-56 39t-31.5 62t-10 81.5v335h63v-336q2 -70 32.5 -106t105.5 -36q40 0 69.5 17.5t48.5 46.5t28 66.5t9 76.5v271h63v-516zM167 724q1 -20 10.5 -35.5t23.5 -26t32 -15.5t37 -5t37 5.5t32.5 16t24 25.5
t12.5 35h39q-8 -59 -46.5 -93t-98.5 -34q-61 0 -99 33t-43 94h39z" />
    <glyph glyph-name="Uring" unicode="&#x16e;" horiz-adv-x="685" 
d="M65 714h68v-442q0 -62 14 -105.5t41 -71t66 -40t88 -12.5t88.5 12.5t66.5 40t41 71t14 105.5v442h68v-457q0 -55 -15.5 -104.5t-49 -86.5t-86 -59t-127.5 -22q-74 0 -126.5 22t-86 59t-49 86.5t-15.5 104.5v457zM272 860q0 -29 19.5 -48.5t48.5 -19.5t48.5 19.5
t19.5 48.5t-19.5 48.5t-48.5 19.5t-48.5 -19.5t-19.5 -48.5zM233 860q0 22 8.5 41.5t23 34t34 23t41.5 8.5t41.5 -8.5t34 -23t23 -34t8.5 -41.5t-8.5 -41.5t-23 -34t-34 -23t-41.5 -8.5t-41.5 8.5t-34 23t-23 34t-8.5 41.5z" />
    <glyph glyph-name="uring" unicode="&#x16f;" horiz-adv-x="537" 
d="M478 0h-58v93h-2q-25 -52 -72.5 -80t-105.5 -28q-49 0 -83.5 13.5t-56 39t-31.5 62t-10 81.5v335h63v-336q2 -70 32.5 -106t105.5 -36q40 0 69.5 17.5t48.5 46.5t28 66.5t9 76.5v271h63v-516zM202 680q0 -29 19.5 -48.5t48.5 -19.5t48.5 19.5t19.5 48.5t-19.5 48.5
t-48.5 19.5t-48.5 -19.5t-19.5 -48.5zM163 680q0 22 8.5 41.5t23 34t34 23t41.5 8.5t41.5 -8.5t34 -23t23 -34t8.5 -41.5t-8.5 -41.5t-23 -34t-34 -23t-41.5 -8.5t-41.5 8.5t-34 23t-23 34t-8.5 41.5z" />
    <glyph glyph-name="Uhungarumlaut" unicode="&#x170;" horiz-adv-x="685" 
d="M65 714h68v-442q0 -62 14 -105.5t41 -71t66 -40t88 -12.5t88.5 12.5t66.5 40t41 71t14 105.5v442h68v-457q0 -55 -15.5 -104.5t-49 -86.5t-86 -59t-127.5 -22q-74 0 -126.5 22t-86 59t-49 86.5t-15.5 104.5v457zM387 780l101 141h76l-126 -141h-51zM231 780l101 141h76
l-126 -141h-51z" />
    <glyph glyph-name="uhungarumlaut" unicode="&#x171;" horiz-adv-x="537" 
d="M478 0h-58v93h-2q-25 -52 -72.5 -80t-105.5 -28q-49 0 -83.5 13.5t-56 39t-31.5 62t-10 81.5v335h63v-336q2 -70 32.5 -106t105.5 -36q40 0 69.5 17.5t48.5 46.5t28 66.5t9 76.5v271h63v-516zM319 590l101 141h76l-126 -141h-51zM163 590l101 141h76l-126 -141h-51z" />
    <glyph glyph-name="Uogonek" unicode="&#x172;" horiz-adv-x="685" 
d="M65 714h68v-442q0 -62 14 -105.5t41 -71t66 -40t88 -12.5t88.5 12.5t66.5 40t41 71t14 105.5v442h68v-457q0 -55 -15.5 -104.5t-49 -86.5t-86.5 -59q-41 -17 -97 -21q-15 -14 -27 -25q-17 -18 -25 -32t-10 -23.5t-2 -22.5q0 -24 13.5 -35.5t30.5 -11.5q19 0 33 12.5
t22 28.5l29 -13q-17 -38 -41.5 -52.5t-56.5 -14.5q-44 0 -67.5 23t-23.5 59q0 8 3 19.5t12 25t30 33.5q14 13 36 28q-65 2 -113 22q-52 22 -85.5 59t-49 86.5t-15.5 104.5v457z" />
    <glyph glyph-name="uogonek" unicode="&#x173;" horiz-adv-x="537" 
d="M458 0q-27 -22 -44.5 -39.5t-25.5 -31.5t-10 -23.5t-2 -22.5q0 -24 13.5 -35.5t30.5 -11.5q19 0 33 12.5t22 28.5l29 -13q-17 -38 -41.5 -52.5t-56.5 -14.5q-44 0 -67.5 23t-23.5 59q0 8 3 19.5t12 25t30.5 33.5t59.5 43v93h-2q-25 -52 -72.5 -80t-105.5 -28
q-49 0 -83.5 13.5t-56 39t-31.5 62t-10 81.5v335h63v-336q2 -70 32.5 -106t105.5 -36q40 0 69.5 17.5t48.5 46.5t28 66.5t9 76.5v271h63v-516h-20z" />
    <glyph glyph-name="Wcircumflex" unicode="&#x174;" horiz-adv-x="907" 
d="M0 714h73l162 -625h2l174 625h85l175 -625h2l163 625h68l-197 -714h-72l-181 639h-2l-180 -639h-74zM603 779h-65l-86 102l-88 -102h-58l114 141h69z" />
    <glyph glyph-name="wcircumflex" unicode="&#x175;" horiz-adv-x="741" 
d="M8 516h67l132 -442h2l126 442h71l126 -442h2l132 442h67l-166 -516h-69l-127 434h-2l-126 -434h-69zM519 589h-65l-86 102l-88 -102h-58l114 141h69z" />
    <glyph glyph-name="Ycircumflex" unicode="&#x176;" horiz-adv-x="611" 
d="M271 294l-281 420h81l235 -362l234 362h81l-282 -420v-294h-68v294zM459 779h-65l-86 102l-88 -102h-58l114 141h69z" />
    <glyph glyph-name="ycircumflex" unicode="&#x177;" horiz-adv-x="463" 
d="M2 516h67l170 -440l159 440h63l-224 -595q-14 -33 -25.5 -54.5t-26.5 -34t-34.5 -18t-49.5 -5.5q-19 1 -29.5 1.5t-18.5 3.5v53q11 -2 21.5 -3.5t21.5 -1.5q21 0 34.5 6t23.5 16.5t17 25.5t15 33l22 59zM387 589h-65l-86 102l-88 -102h-58l114 141h69z" />
    <glyph glyph-name="Ydieresis" unicode="&#x178;" horiz-adv-x="611" 
d="M271 294l-281 420h81l235 -362l234 362h81l-282 -420v-294h-68v294zM183 800v101h68v-101h-68zM360 800v101h68v-101h-68z" />
    <glyph glyph-name="Zacute" unicode="&#x179;" horiz-adv-x="574" 
d="M37 714h514v-60l-470 -596h480v-58h-556v60l470 596h-438v58zM306 780h-51l105 141h78z" />
    <glyph glyph-name="zacute" unicode="&#x17a;" horiz-adv-x="463" 
d="M91 53h355v-53h-431v51l337 412h-314v53h394v-45zM252 590h-51l105 141h78z" />
    <glyph glyph-name="Zdotaccent" unicode="&#x17b;" horiz-adv-x="574" 
d="M37 714h514v-60l-470 -596h480v-58h-556v60l470 596h-438v58zM259 800v101h68v-101h-68z" />
    <glyph glyph-name="zdotaccent" unicode="&#x17c;" horiz-adv-x="463" 
d="M91 53h355v-53h-431v51l337 412h-314v53h394v-45zM199 610v101h68v-101h-68z" />
    <glyph glyph-name="Zcaron" unicode="&#x17d;" horiz-adv-x="574" 
d="M37 714h514v-60l-470 -596h480v-58h-556v60l470 596h-438v58zM138 921h65l86 -102l88 102h58l-114 -141h-69z" />
    <glyph glyph-name="zcaron" unicode="&#x17e;" horiz-adv-x="463" 
d="M91 53h355v-53h-431v51l337 412h-314v53h394v-45zM83 731h65l86 -102l88 102h58l-114 -141h-69z" />
    <glyph glyph-name="florin" unicode="&#x192;" horiz-adv-x="556" 
d="M16 -114q25 -6 52 -6q22 1 38 11.5t26.5 27t17 36t10.5 37.5l75 394h-100l9 53h101l13 69q9 39 18 76.5t26.5 66t47 46t78.5 17.5q16 0 31 -1.5t31 -3.5l-12 -52q-11 2 -23 3t-23 1q-32 -1 -51 -15.5t-30 -37t-17 -50t-12 -52.5l-14 -67h113l-9 -53h-113l-61 -323
q-9 -45 -17.5 -88t-27 -76t-51.5 -53t-90 -19q-20 0 -45 5z" />
    <glyph glyph-name="Scommaaccent" unicode="&#x218;" horiz-adv-x="630" 
d="M104 235q-1 -55 17 -92t49.5 -59t74.5 -31.5t92 -9.5q28 0 61 8t61.5 25.5t47.5 45t19 66.5q0 30 -13.5 52t-35 37t-47.5 24.5t-51 15.5l-159 39q-32 8 -61 20t-51 32t-35.5 49t-13.5 71q0 26 10 61t37.5 66t75.5 52.5t123 21.5q53 0 101 -14t84.5 -42t57.5 -69.5
t21 -96.5h-68q-2 41 -18 71.5t-43 51t-61.5 31t-72.5 10.5q-35 0 -67.5 -7.5t-57 -24t-39.5 -43.5t-15 -67q0 -25 8.5 -43.5t23.5 -31t34.5 -21t41.5 -13.5l174 -43q38 -10 71.5 -24.5t59 -36t40 -52.5t14.5 -75q0 -12 -2.5 -32t-12 -42.5t-27 -45.5t-48 -42t-75.5 -30.5
t-108 -11.5t-117 14.5t-92 45t-58.5 78t-17.5 112.5h68zM361 -50v-80q0 -27 -12.5 -42.5t-30 -22.5t-43.5 -8v28q15 3 22 7.5t11.5 11.5t5.5 15h-39v91h86z" />
    <glyph glyph-name="scommaaccent" unicode="&#x219;" horiz-adv-x="481" 
d="M369 365q-1 29 -12 50.5t-29.5 35.5t-42.5 20.5t-51 6.5q-21 0 -42.5 -4.5t-39.5 -15t-29 -27.5t-11 -42q0 -21 10.5 -35.5t26.5 -24.5t35 -16.5t35 -10.5l84 -19q27 -4 53.5 -14.5t47 -27.5t33.5 -42t13 -59q0 -42 -19 -71.5t-48.5 -48t-66.5 -27t-73 -8.5
q-91 0 -147.5 43.5t-64.5 138.5h63q4 -64 46.5 -96.5t105.5 -32.5q22 0 47 5t46 17t34.5 30.5t13.5 45.5q0 22 -9.5 38t-25.5 26.5t-36.5 17.5t-41.5 12l-81 18q-31 8 -57 18.5t-45.5 26t-30.5 38t-11 55.5q0 39 17.5 67t45.5 45t62.5 25t68.5 8q39 0 72.5 -10t59 -31
t40.5 -52t17 -73h-63zM285 -50v-80q0 -27 -12.5 -42.5t-30 -22.5t-43.5 -8v28q15 3 22 7.5t11.5 11.5t5.5 15h-39v91h86z" />
    <glyph glyph-name="uni021A" unicode="&#x21a;" horiz-adv-x="556" 
d="M-5 714h566v-58h-249v-656h-68v656h-249v58zM321 -50v-80q0 -27 -12.5 -42.5t-30 -22.5t-43.5 -8v28q15 3 22 7.5t11.5 11.5t5.5 15h-39v91h86z" />
    <glyph glyph-name="uni021B" unicode="&#x21b;" horiz-adv-x="296" 
d="M160 516h105v-53h-105v-348q0 -31 8.5 -48.5t42.5 -19.5q27 0 54 3v-54q-14 0 -28 -1t-28 -1q-63 0 -88 25t-24 91v353h-90v53h90v155h63v-155zM222 -50v-80q0 -27 -12.5 -42.5t-30 -22.5t-43.5 -8v28q15 3 22 7.5t11.5 11.5t5.5 15h-39v91h86z" />
    <glyph glyph-name="circumflex" unicode="&#x2c6;" 
d="M244 589h-65l-86 102l-88 -102h-58l114 141h69z" />
    <glyph glyph-name="caron" unicode="&#x2c7;" 
d="M-60 731h65l86 -102l88 102h58l-114 -141h-69z" />
    <glyph glyph-name="uni02C9" unicode="&#x2c9;" 
d="M-72 638v45h329v-45h-329z" />
    <glyph glyph-name="breve" unicode="&#x2d8;" 
d="M-12 724q1 -20 10.5 -35.5t23.5 -26t32 -15.5t37 -5t37 5.5t32.5 16t24 25.5t12.5 35h39q-8 -59 -46.5 -93t-98.5 -34q-61 0 -99 33t-43 94h39z" />
    <glyph glyph-name="dotaccent" unicode="&#x2d9;" 
d="M59 610v101h68v-101h-68z" />
    <glyph glyph-name="ring" unicode="&#x2da;" 
d="M25 680q0 -29 19.5 -48.5t48.5 -19.5t48.5 19.5t19.5 48.5t-19.5 48.5t-48.5 19.5t-48.5 -19.5t-19.5 -48.5zM-14 680q0 22 8.5 41.5t23 34t34 23t41.5 8.5t41.5 -8.5t34 -23t23 -34t8.5 -41.5t-8.5 -41.5t-23 -34t-34 -23t-41.5 -8.5t-41.5 8.5t-34 23t-23 34t-8.5 41.5
z" />
    <glyph glyph-name="ogonek" unicode="&#x2db;" 
d="M189 0q-27 -22 -44.5 -39.5t-25.5 -31.5t-10 -23.5t-2 -22.5q0 -24 13.5 -35.5t30.5 -11.5q19 0 33 12.5t22 28.5l29 -13q-17 -38 -41.5 -52.5t-56.5 -14.5q-44 0 -67.5 23t-23.5 59q0 8 3 19.5t12 25t30.5 33.5t59.5 43h38z" />
    <glyph glyph-name="tilde" unicode="&#x2dc;" 
d="M249 710q-3 -17 -9.5 -34t-17 -30.5t-26 -22t-34.5 -8.5q-20 0 -39 7t-36 16t-32.5 16t-30.5 7q-20 0 -32 -13t-18 -38h-39q2 18 9 35t18 30.5t26.5 22t35.5 8.5q22 0 40 -7t35 -16t31.5 -15t28.5 -6q23 0 34.5 14t17.5 34h38z" />
    <glyph glyph-name="hungarumlaut" unicode="&#x2dd;" 
d="M123 590l101 141h76l-126 -141h-51zM-33 590l101 141h76l-126 -141h-51z" />
    <glyph glyph-name="uni0394" unicode="&#x394;" horiz-adv-x="674" 
d="M333 628l-213 -556h430zM13 0l279 712h83l287 -712h-649z" />
    <glyph glyph-name="uni03A9" unicode="&#x3a9;" horiz-adv-x="748" 
d="M432 0v183q87 17 131.5 78.5t44.5 148.5q0 52 -18 95.5t-50 75.5t-76 50t-96 18q-51 0 -95.5 -18t-76.5 -50t-50.5 -76t-18.5 -95q0 -42 11.5 -80.5t33.5 -68.5t55 -50.5t77 -27.5v-183h-257v67h193v72q-47 13 -82.5 40t-60.5 63t-37.5 80t-12.5 91q0 67 25.5 124
t69.5 97.5t102 63.5t124 23t124 -22.5t101.5 -63t69 -97t25.5 -123.5q0 -48 -12.5 -92t-36.5 -80.5t-60 -63.5t-83 -40v-72h192v-67h-256z" />
    <glyph glyph-name="uni03BC" unicode="&#x3bc;" horiz-adv-x="537" 
d="M478 0h-58v93h-2q-25 -52 -72.5 -80t-105.5 -28q-32 0 -62.5 8.5t-54.5 26.5v-211h-64v707h63v-336q2 -70 32.5 -106t105.5 -36q40 0 69.5 17.5t48.5 46.5t28 66.5t9 76.5v271h63v-516z" />
    <glyph glyph-name="pi" unicode="&#x3c0;" horiz-adv-x="570" 
d="M547 11q-17 -8 -33 -12.5t-36 -4.5q-30 0 -47.5 9.5t-26 26t-10.5 38.5t-2 46v296h-246v-410h-75v410h-69v69h541v-69h-76v-299q0 -22 6 -37.5t32 -15.5q20 0 42 10v-57v0z" />
    <glyph glyph-name="endash" unicode="&#x2013;" horiz-adv-x="500" 
d="M0 246v58h500v-58h-500z" />
    <glyph glyph-name="emdash" unicode="&#x2014;" horiz-adv-x="1000" 
d="M130 246v58h740v-58h-740z" />
    <glyph glyph-name="quoteleft" unicode="&#x2018;" horiz-adv-x="278" 
d="M95 471v107q0 22 5.5 43.5t16.5 40t27.5 32.5t39.5 20v-43q-13 -5 -22 -15.5t-15 -24t-8.5 -28t-1.5 -26.5h42v-106h-84z" />
    <glyph glyph-name="quoteright" unicode="&#x2019;" horiz-adv-x="278" 
d="M183 714v-107q0 -22 -5.5 -43.5t-16.5 -40t-27.5 -32.5t-39.5 -20v43q13 4 22 15t15 24.5t8.5 28t1.5 26.5h-42v106h84z" />
    <glyph glyph-name="quotesinglbase" unicode="&#x201a;" horiz-adv-x="278" 
d="M183 106v-107q0 -22 -5.5 -43.5t-16.5 -40t-27.5 -32.5t-39.5 -20v43q13 4 22 15t15 24.5t8.5 28t1.5 26.5h-42v106h84z" />
    <glyph glyph-name="quotedblleft" unicode="&#x201c;" horiz-adv-x="370" 
d="M64 471v107q0 22 5.5 43.5t16.5 40t27.5 32.5t39.5 20v-43q-13 -5 -22 -15.5t-15 -24t-8.5 -28t-1.5 -26.5h42v-106h-84zM218 471v107q0 22 5.5 43.5t16.5 40t27.5 32.5t39.5 20v-43q-13 -5 -22 -15.5t-15 -24t-8.5 -28t-1.5 -26.5h42v-106h-84z" />
    <glyph glyph-name="quotedblright" unicode="&#x201d;" horiz-adv-x="370" 
d="M152 714v-107q0 -22 -5.5 -43.5t-16.5 -40t-27.5 -32.5t-39.5 -20v43q13 4 22 15t15 24.5t8.5 28t1.5 26.5h-42v106h84zM306 714v-107q0 -22 -5.5 -43.5t-16.5 -40t-27.5 -32.5t-39.5 -20v43q13 4 22 15t15 24.5t8.5 28t1.5 26.5h-42v106h84z" />
    <glyph glyph-name="quotedblbase" unicode="&#x201e;" horiz-adv-x="370" 
d="M152 106v-107q0 -22 -5.5 -43.5t-16.5 -40t-27.5 -32.5t-39.5 -20v43q13 4 22 15t15 24.5t8.5 28t1.5 26.5h-42v106h84zM306 106v-107q0 -22 -5.5 -43.5t-16.5 -40t-27.5 -32.5t-39.5 -20v43q13 4 22 15t15 24.5t8.5 28t1.5 26.5h-42v106h84z" />
    <glyph glyph-name="dagger" unicode="&#x2020;" horiz-adv-x="556" 
d="M48 440v53h198v221h63v-221h199v-53h-199v-591h-63v591h-198z" />
    <glyph glyph-name="daggerdbl" unicode="&#x2021;" horiz-adv-x="556" 
d="M48 47v53h198v363h-198v53h198v198h63v-198h199v-53h-199v-363h199v-53h-199v-198h-63v198h-198z" />
    <glyph glyph-name="bullet" unicode="&#x2022;" horiz-adv-x="500" 
d="M72 357q0 37 14 69.5t38 56.5t56.5 38t69.5 14t69.5 -14t57 -38t38.5 -56.5t14 -69.5t-14 -69.5t-38.5 -57t-57 -38.5t-69.5 -14t-69.5 14t-56.5 38.5t-38 57t-14 69.5z" />
    <glyph glyph-name="ellipsis" unicode="&#x2026;" horiz-adv-x="1000" 
d="M791 0v106h84v-106h-84zM458 0v106h84v-106h-84zM125 0v106h84v-106h-84z" />
    <glyph glyph-name="perthousand" unicode="&#x2030;" horiz-adv-x="1111" 
d="M214 661q-30 0 -49 -11t-29.5 -29t-14 -40t-3.5 -44t3.5 -44t14 -40t29.5 -29t49 -11t48.5 11t29 29t14.5 40t4 44t-4 44t-14.5 40t-29 29t-48.5 11zM214 706q40 0 68.5 -13t46.5 -35.5t26 -53.5t8 -67t-8 -67t-26 -53.5t-46.5 -35.5t-68.5 -13t-68.5 13t-46.5 35.5
t-26 53.5t-8 67t8 67t26 53.5t46.5 35.5t68.5 13zM901 278q-30 0 -49 -11t-29.5 -29t-14 -40t-3.5 -44t3.5 -44t14 -40t29.5 -29t49 -11t48.5 11t29 29t14.5 40t4 44t-4 44t-14.5 40t-29 29t-48.5 11zM901 323q40 0 68.5 -13t46.5 -35.5t26 -53.5t8 -67t-8 -67t-26 -53.5
t-46.5 -35.5t-68.5 -13t-68.5 13t-46.5 35.5t-26 53.5t-8 67t8 67t26 53.5t46.5 35.5t68.5 13zM547 278q-30 0 -49 -11t-29.5 -29t-14 -40t-3.5 -44t3.5 -44t14 -40t29.5 -29t49 -11t48.5 11t29 29t14.5 40t4 44t-4 44t-14.5 40t-29 29t-48.5 11zM547 323q40 0 68.5 -13
t46.5 -35.5t26 -53.5t8 -67t-8 -67t-26 -53.5t-46.5 -35.5t-68.5 -13t-68.5 13t-46.5 35.5t-26 53.5t-8 67t8 67t26 53.5t46.5 35.5t68.5 13zM582 725h47l-452 -759h-48z" />
    <glyph glyph-name="guilsinglleft" unicode="&#x2039;" horiz-adv-x="259" 
d="M53 244v62l133 125v-67l-94 -89l94 -89v-67z" />
    <glyph glyph-name="guilsinglright" unicode="&#x203a;" horiz-adv-x="259" 
d="M73 186l94 89l-94 89v67l133 -125v-62l-133 -125v67z" />
    <glyph glyph-name="fraction" unicode="&#x2044;" horiz-adv-x="167" 
d="M287 725h47l-452 -759h-48z" />
    <glyph glyph-name="Euro" unicode="&#x20ac;" horiz-adv-x="556" 
d="M530 576q-66 79 -160 79q-92 0 -150 -67q-51 -59 -69 -154h333l-18 -45h-321q-3 -26 -3 -43v-8t1 -8h304l-19 -45h-282q14 -105 63 -169q60 -75 158 -75q53 0 96 23q34 19 78 63v-77q-77 -65 -176 -65q-125 0 -202 89q-67 79 -82 211h-66l19 45h44q-1 4 -1 9v11
q0 8 0.5 17.5t1.5 21.5h-64l18 45h51q23 124 92 196q76 82 195 82q124 0 186 -77z" />
    <glyph glyph-name="afii61289" unicode="&#x2113;" horiz-adv-x="500" 
d="M406 38q-53 -52 -120 -52q-50 0 -84.5 29.5t-34.5 94.5v130l-59 -64h-2l-21 27l82 84v264q0 84 34.5 127t83.5 43q44 0 71.5 -32t27.5 -91q0 -73 -43 -153.5t-123 -167.5v-159q0 -27 7.5 -45t18.5 -28.5t25 -14.5t27 -4q21 0 43.5 9.5t44.5 29.5h2l20 -27v0zM341 593
q0 41 -17 66t-40 25q-26 0 -46 -30t-20 -96v-233q59 69 91 138.5t32 129.5z" />
    <glyph glyph-name="trademark" unicode="&#x2122;" horiz-adv-x="990" 
d="M476 302v412h85l133 -334l129 334h85v-412h-53v364h-2l-146 -364h-30l-146 364h-2v-364h-53zM216 302v367h-134v45h321v-45h-134v-367h-53z" />
    <glyph glyph-name="Omega" unicode="&#x2126;" horiz-adv-x="748" 
d="M432 0v183q87 17 131.5 78.5t44.5 148.5q0 52 -18 95.5t-50 75.5t-76 50t-96 18q-51 0 -95.5 -18t-76.5 -50t-50.5 -76t-18.5 -95q0 -42 11.5 -80.5t33.5 -68.5t55 -50.5t77 -27.5v-183h-257v67h193v72q-47 13 -82.5 40t-60.5 63t-37.5 80t-12.5 91q0 67 25.5 124
t69.5 97.5t102 63.5t124 23t124 -22.5t101.5 -63t69 -97t25.5 -123.5q0 -48 -12.5 -92t-36.5 -80.5t-60 -63.5t-83 -40v-72h192v-67h-256z" />
    <glyph glyph-name="estimated" unicode="&#x212e;" horiz-adv-x="600" 
d="M157 259v-181q59 -59 145 -59q63 0 109 28.5t84 91.5l35 -21q-23 -36 -46.5 -61.5t-51 -42t-59.5 -24t-71 -7.5q-59 0 -106.5 21.5t-81.5 59t-52 87.5t-18 108t18 108.5t52 87.5t81.5 58.5t106.5 21.5q58 0 105.5 -20.5t81.5 -57t53 -87t19 -111.5h-404zM448 295v145
q-63 60 -147 60t-144 -60v-145h291z" />
    <glyph glyph-name="partialdiff" unicode="&#x2202;" horiz-adv-x="511" 
d="M389 280q-26 35 -64.5 60t-83.5 25q-33 0 -58.5 -13t-42 -34.5t-25 -49.5t-8.5 -58q0 -29 8 -58t24.5 -52t41.5 -37.5t58 -14.5q42 0 70.5 23.5t46 59t25.5 76t8 73.5zM469 362q0 -38 -3.5 -80.5t-12.5 -84.5t-25.5 -79.5t-42.5 -66.5t-62.5 -46t-85.5 -17
q-47 0 -85 18.5t-64.5 49t-40.5 71.5t-14 86q0 44 13.5 83t39.5 68t62.5 46t83.5 17t89 -20.5t72 -55.5q0 11 0.5 22.5t0.5 22.5q0 40 -8.5 86t-28.5 85t-53 65t-83 26q-34 0 -61 -13.5t-53 -33.5l-42 50q33 29 70.5 44.5t82.5 15.5q73 0 121.5 -33.5t77.5 -85.5t40.5 -116
t11.5 -124z" />
    <glyph glyph-name="Delta" unicode="&#x2206;" horiz-adv-x="674" 
d="M333 628l-213 -556h430zM13 0l279 712h83l287 -712h-649z" />
    <glyph glyph-name="product" unicode="&#x220f;" horiz-adv-x="719" 
d="M572 -214v928h-426v-928h-78v1000h582v-1000h-78z" />
    <glyph glyph-name="summation" unicode="&#x2211;" horiz-adv-x="615" 
d="M25 -214v64l322 440l-308 432v64h538v-72h-437l301 -424l-319 -432h467v-72h-564z" />
    <glyph glyph-name="minus" unicode="&#x2212;" horiz-adv-x="600" 
d="M552 225h-503v53h503v-53z" />
    <glyph glyph-name="uni2215" unicode="&#x2215;" horiz-adv-x="167" 
d="M287 725h47l-452 -759h-48z" />
    <glyph glyph-name="uni2219" unicode="&#x2219;" horiz-adv-x="278" 
d="M139 375q24 0 41.5 -18t17.5 -42q0 -23 -18 -40.5t-41 -17.5q-24 0 -41.5 18t-17.5 42q0 23 18 40.5t41 17.5z" />
    <glyph glyph-name="radical" unicode="&#x221a;" horiz-adv-x="504" 
d="M303 -214h-75l-162 334l-47 -22l-28 60l112 52l151 -317l184 893h76z" />
    <glyph glyph-name="infinity" unicode="&#x221e;" horiz-adv-x="759" 
d="M337 251q-14 13 -31.5 28.5t-37 29t-40.5 23t-41 9.5q-38 0 -59 -27t-21 -62q0 -38 22 -62t61 -24q20 0 40.5 8t39.5 21t36 27.5t31 28.5zM652 252q0 38 -21 64t-61 26q-21 0 -41 -9t-39 -23t-36 -30t-31 -29q16 -15 32.5 -30t35 -27t39 -20t43.5 -8q38 0 58.5 25
t20.5 61zM717 255q0 -33 -10 -61.5t-29 -50t-46.5 -33.5t-61.5 -12q-29 0 -55 9.5t-49.5 25.5t-45 35t-40.5 39q-21 -19 -42 -38.5t-44 -35t-49 -25t-56 -9.5q-33 0 -60.5 11.5t-46.5 32t-29.5 48.5t-10.5 61q0 32 10 60.5t28.5 49.5t45.5 33.5t61 12.5q30 0 56.5 -10
t50.5 -26.5t45 -37t41 -40.5l40.5 40.5t43.5 37.5t49 27.5t56 10.5q34 0 61 -12t46.5 -33t30 -49t10.5 -61z" />
    <glyph glyph-name="integral" unicode="&#x222b;" horiz-adv-x="554" 
d="M420 730q0 -18 -12.5 -28t-29.5 -10q-12 0 -20 6.5t-14 15t-11 15t-11 6.5q-15 0 -22 -20t-8.5 -45t-0.5 -47.5t1 -28.5l1 -39v-511q0 -35 -1 -79t-12.5 -84t-37.5 -67t-75 -27q-11 0 -23.5 3t-22.5 9.5t-16.5 16t-6.5 23.5t11.5 25t25.5 11q12 0 19.5 -6.5t13 -14.5
t10 -14.5t9.5 -6.5q13 0 19.5 22t8 49t1 51t-0.5 29v22v495q0 24 -1 54.5t1 62t8 62t20 54t37.5 38t60.5 14.5q13 0 27 -3t25.5 -9.5t19 -17.5t7.5 -26z" />
    <glyph glyph-name="approxequal" unicode="&#x2248;" horiz-adv-x="593" 
d="M560 234q-3 -28 -11.5 -54t-24 -46.5t-38.5 -32.5t-55 -12t-69 11t-74 24.5t-70.5 25t-58.5 11.5q-32 0 -51.5 -24.5t-23.5 -53.5h-52q4 27 12.5 53.5t24 47.5t38 34t54.5 13q33 0 68.5 -11t71.5 -24.5t70 -24.5t64 -11q34 0 51.5 22t23.5 52h50v0zM561 415
q-3 -28 -11.5 -54.5t-24.5 -46.5t-39 -32.5t-55 -12.5q-33 0 -69.5 11t-73 24.5t-70 24.5t-58.5 11q-32 0 -51.5 -24t-24.5 -53h-51q3 27 12 53.5t24 47.5t38 34t55 13t68 -11t72 -24.5t70 -24.5t64 -11q34 0 51.5 22.5t23.5 52.5h50v0z" />
    <glyph glyph-name="notequal" unicode="&#x2260;" horiz-adv-x="593" 
d="M263 114l-76 -146l-62 32l59 114h-141v72h178l67 127h-245v71h283l77 148l62 -32l-61 -116h146v-71h-183l-67 -127h250v-72h-287z" />
    <glyph glyph-name="lessequal" unicode="&#x2264;" horiz-adv-x="593" 
d="M43 -30v72h507v-72h-507zM43 266v75l507 187v-78l-408 -146l408 -145v-77z" />
    <glyph glyph-name="greaterequal" unicode="&#x2265;" horiz-adv-x="593" 
d="M43 -30v72h507v-72h-507zM43 82v77l408 145l-408 146v78l507 -187v-75z" />
    <glyph glyph-name="lozenge" unicode="&#x25ca;" horiz-adv-x="593" 
d="M296 671l-131 -315l131 -315l132 315zM332 -35h-72l-171 391l171 391h72l172 -391z" />
    <glyph glyph-name="uniF8FF" unicode="&#xf8ff;" horiz-adv-x="512" 
d="M222 117v67h56v-67h-56zM225 234l-2 17q0 55 13 81t46 59q32 31 41 47.5t9 35.5q0 36 -22.5 60.5t-53.5 24.5t-53.5 -22t-28.5 -73l-50 8q7 71 44 104t91 33q53 0 88.5 -36t35.5 -95q0 -32 -12.5 -58.5t-50.5 -61.5q-37 -33 -43 -52t-6 -72h-46zM462 50v617h-412v-617
h412zM512 718v-718h-512v718h512z" />
    <glyph glyph-name="commaaccent" horiz-adv-x="278" 
d="M183 -50v-80q0 -27 -12.5 -42.5t-30 -22.5t-43.5 -8v28q15 3 22 7.5t11.5 11.5t5.5 15h-39v91h86z" />
    <glyph glyph-name="carontwo" 
d="M135 573h-47l55 141h78z" />
    <glyph glyph-name="commaaccenttwo" horiz-adv-x="278" 
d="M94 623v80q0 27 12.5 42.5t30 22.5t43.5 8v-28q-15 -3 -22 -7.5t-11.5 -11.5t-5.5 -15h39v-91h-86z" />
    <glyph glyph-name="dotlessj" 
d="M61 516h63v-564q0 -29 -4.5 -55t-17 -45.5t-34 -31t-54.5 -11.5q-11 0 -22 1t-22 1v52q8 -1 17 -1.5t17 0.5q37 0 47 21.5t10 53.5v579z" />
    <glyph glyph-name="commaaccent.alt" horiz-adv-x="278" 
d="M94 623v80q0 27 12.5 42.5t30 22.5t43.5 8v-28q-15 -3 -22 -7.5t-11.5 -11.5t-5.5 -15h39v-91h-86z" />
    <glyph glyph-name="grave.cap" 
d="M-31 919h78l105 -141h-51z" />
    <glyph glyph-name="acute.cap" 
d="M84 778h-51l105 141h78z" />
    <glyph glyph-name="circumflex.cap" 
d="M244 778h-65l-86 102l-88 -102h-58l114 141h69z" />
    <glyph glyph-name="caron.cap" 
d="M-60 919h65l86 -102l88 102h58l-114 -141h-69z" />
    <glyph glyph-name="caron.alt" 
d="M135 573h-47l55 141h78z" />
    <glyph glyph-name="tilde.cap" 
d="M249 710q-3 -17 -9.5 -34t-17 -30.5t-25.5 -22t-35 -8.5q-21 0 -39.5 7t-35.5 16t-32.5 16t-30.5 7q-38 0 -50 -51h-39q2 18 9 35t18 30.5t26.5 22t35.5 8.5q21 0 39.5 -7t35 -15t31.5 -15t29 -7q23 0 34.5 14t17.5 34h38z" />
    <glyph glyph-name="dieresis.cap" 
d="M-30 800v101h68v-101h-68zM147 800v101h68v-101h-68z" />
    <glyph glyph-name="macron.cap" 
d="M-72 828v45h329v-45h-329z" />
    <glyph glyph-name="breve.cap" 
d="M-12 914q1 -20 10.5 -35.5t23.5 -26t32 -15.5t37 -5q38 0 69 21.5t37 60.5h39q-8 -60 -46.5 -93.5t-98.5 -33.5q-61 0 -99 33t-43 94h39z" />
    <glyph glyph-name="ring.cap" 
d="M25 860q0 -29 19.5 -48.5t48.5 -19.5t48.5 19.5t19.5 48.5t-19.5 48.5t-48.5 19.5t-48.5 -19.5t-19.5 -48.5zM-14 860q0 22 8.5 41.5t23 34t34 23t41.5 8.5t41.5 -8.5t34 -23t23 -34t8.5 -41.5t-8.5 -41.5t-23 -34t-34 -23t-41.5 -8.5t-41.5 8.5t-34 23t-23 34t-8.5 41.5
z" />
    <glyph glyph-name="hungarumlaut.cap" 
d="M123 782l101 141h76l-126 -141h-51zM-33 782l101 141h76l-126 -141h-51z" />
    <glyph glyph-name="dotaccent.cap" 
d="M59 800v101h68v-101h-68z" />
    </font>
</defs>
</svg>
